<svg width="126" height="233" viewBox="0 0 126 233" fill="none" xmlns="http://www.w3.org/2000/svg">
<path opacity="0.8" d="M69.4661 125.154C100.436 125.154 125.541 100.048 125.541 69.0784C125.541 38.1088 100.436 13.0029 69.4661 13.0029C38.4965 13.0029 13.3906 38.1088 13.3906 69.0784C13.3906 100.048 38.4965 125.154 69.4661 125.154Z" fill="url(#paint0_linear_133_1372)" fill-opacity="0.5"/>
<path opacity="0.8" d="M94.6583 232.428C109.021 232.428 120.664 220.785 120.664 206.422C120.664 192.06 109.021 180.417 94.6583 180.417C80.2956 180.417 68.6523 192.06 68.6523 206.422C68.6523 220.785 80.2956 232.428 94.6583 232.428Z" fill="url(#paint1_linear_133_1372)" fill-opacity="0.66"/>
<g filter="url(#filter0_d_133_1372)">
<path fill-rule="evenodd" clip-rule="evenodd" d="M63.7771 0C72.7538 0 80.0309 7.26308 80.0309 16.2225C80.0309 25.182 72.7538 32.4452 63.7771 32.4452C54.8005 32.4452 47.5234 25.182 47.5234 16.2225C47.5234 7.26308 54.8005 0 63.7771 0Z" fill="#2E3148"/>
<path fill-rule="evenodd" clip-rule="evenodd" d="M63.7814 6.79468C68.9603 6.79468 73.1586 10.9849 73.1586 16.1539C73.1586 21.3228 68.9603 25.513 63.7814 25.513C58.6026 25.513 54.4043 21.3228 54.4043 16.1539C54.4043 10.9849 58.6026 6.79468 63.7814 6.79468Z" fill="#161931"/>
<path fill-rule="evenodd" clip-rule="evenodd" d="M64.0685 2.70607C63.9394 2.58747 63.8727 2.58523 63.8615 2.58523C63.8503 2.58523 63.7837 2.58747 63.6546 2.70607C63.5221 2.82781 63.3636 3.03785 63.1929 3.36195C62.8522 4.00883 62.5261 4.98659 62.245 6.24823C61.6852 8.76127 61.3334 12.2637 61.3334 16.1538C61.3334 20.0439 61.6852 23.5464 62.245 26.0594C62.5261 27.3211 62.8522 28.2988 63.1929 28.9457C63.3636 29.2698 63.5221 29.4799 63.6546 29.6016C63.7837 29.7202 63.8503 29.7224 63.8615 29.7224C63.8727 29.7224 63.9394 29.7202 64.0685 29.6016C64.201 29.4799 64.3595 29.2698 64.5302 28.9457C64.8709 28.2988 65.197 27.3211 65.4781 26.0594C66.0379 23.5464 66.3897 20.0439 66.3897 16.1538C66.3897 12.2637 66.0379 8.76127 65.4781 6.24823C65.197 4.98659 64.8709 4.00883 64.5302 3.36195C64.3595 3.03785 64.201 2.82781 64.0685 2.70607ZM67.0258 16.1538C67.0258 8.30944 65.6091 1.95032 63.8615 1.95032C62.114 1.95032 60.6973 8.30944 60.6973 16.1538C60.6973 23.9982 62.114 30.3574 63.8615 30.3574C65.6091 30.3574 67.0258 23.9982 67.0258 16.1538Z" fill="#6F7390"/>
<path fill-rule="evenodd" clip-rule="evenodd" d="M75.6416 9.60845C75.6799 9.43769 75.6486 9.37928 75.6431 9.36991C75.6376 9.36045 75.6025 9.30401 75.4348 9.25172C75.2628 9.19807 75.0011 9.16623 74.6343 9.1808C73.9022 9.20991 72.8901 9.41712 71.6541 9.80514C69.1922 10.5781 65.9753 12.0254 62.5978 13.9705C59.2203 15.9155 56.3552 17.9706 54.4532 19.7108C53.4983 20.5845 52.8124 21.3551 52.4211 21.9728C52.2251 22.2824 52.122 22.5242 52.0826 22.6995C52.0442 22.8702 52.0755 22.9286 52.081 22.938C52.0864 22.9475 52.1216 23.0039 52.2893 23.0562C52.4613 23.1099 52.723 23.1417 53.0898 23.1271C53.8219 23.098 54.834 22.8908 56.07 22.5028C58.5319 21.7299 61.7488 20.2825 65.1263 18.3375C68.5038 16.3924 71.3689 14.3373 73.2709 12.5971C74.2258 11.7235 74.9117 10.9529 75.303 10.3351C75.499 10.0256 75.6021 9.78371 75.6416 9.60845ZM51.5302 23.2557C52.404 24.7653 58.6335 22.8096 65.4442 18.8874C72.2549 14.9653 77.0677 10.5619 76.1939 9.0523C75.3201 7.54267 69.0906 9.49838 62.2799 13.4206C55.4692 17.3427 50.6564 21.746 51.5302 23.2557Z" fill="#6F7390"/>
<path fill-rule="evenodd" clip-rule="evenodd" d="M76.1939 23.2557C77.0677 21.746 72.2549 17.3427 65.4442 13.4206C58.6335 9.49838 52.404 7.54267 51.5302 9.0523C50.6564 10.5619 55.4692 14.9653 62.2799 18.8874C69.0906 22.8096 75.3201 24.7653 76.1939 23.2557ZM52.081 9.36991C52.0865 9.36042 52.1217 9.30397 52.2893 9.25172C52.4613 9.19807 52.723 9.16623 53.0898 9.1808C53.8219 9.20991 54.834 9.41712 56.07 9.80514C58.5319 10.5781 61.7488 12.0254 65.1263 13.9705C68.5038 15.9155 71.3689 17.9706 73.2709 19.7108C74.2258 20.5845 74.9117 21.3551 75.303 21.9728C75.499 22.2824 75.6021 22.5242 75.6416 22.6995C75.6799 22.8703 75.6486 22.9287 75.6431 22.938C75.6376 22.9475 75.6025 23.0039 75.4348 23.0562C75.2628 23.1099 75.0011 23.1417 74.6343 23.1271C73.9022 23.098 72.8901 22.8908 71.6541 22.5028C69.1922 21.7299 65.9753 20.2825 62.5978 18.3375C59.2203 16.3924 56.3552 14.3373 54.4532 12.5971C53.4983 11.7235 52.8124 10.9529 52.4211 10.3351C52.2251 10.0256 52.122 9.78371 52.0826 9.60845C52.0442 9.43775 52.0755 9.37931 52.081 9.36991Z" fill="#6F7390"/>
<path fill-rule="evenodd" clip-rule="evenodd" d="M54.7664 12.1761C55.319 12.1761 55.7671 12.6235 55.7671 13.1754C55.7671 13.7273 55.319 14.1747 54.7664 14.1747C54.2137 14.1747 53.7656 13.7273 53.7656 13.1754C53.7656 12.6235 54.2137 12.1761 54.7664 12.1761Z" fill="#B7B9C8"/>
<path fill-rule="evenodd" clip-rule="evenodd" d="M70.6711 8.75427C71.2241 8.75427 71.6723 9.20166 71.6723 9.75356C71.6723 10.3055 71.2241 10.7528 70.6711 10.7528C70.1182 10.7528 69.6699 10.3055 69.6699 9.75356C69.6699 9.20166 70.1182 8.75427 70.6711 8.75427Z" fill="#B7B9C8"/>
<path fill-rule="evenodd" clip-rule="evenodd" d="M61.845 24.4387C62.3979 24.4387 62.8462 24.8859 62.8462 25.4375C62.8462 25.9891 62.3979 26.4363 61.845 26.4363C61.292 26.4363 60.8438 25.9891 60.8438 25.4375C60.8438 24.8859 61.292 24.4387 61.845 24.4387Z" fill="#B7B9C8"/>
<path fill-rule="evenodd" clip-rule="evenodd" d="M63.8084 14.4547C64.7445 14.4547 65.5034 15.2122 65.5034 16.1466C65.5034 17.0809 64.7445 17.8384 63.8084 17.8384C62.8722 17.8384 62.1133 17.0809 62.1133 16.1466C62.1133 15.2122 62.8722 14.4547 63.8084 14.4547Z" fill="#B7B9C8"/>
</g>
<g filter="url(#filter1_d_133_1372)">
<path d="M15.5436 56.3271C14.7943 55.9834 13.7489 55.9997 12.29 56.3768C11.1232 56.6827 10.1505 57.2261 9.62508 57.8649C9.52 57.9926 9.43609 58.1183 9.36378 58.2535C9.18303 58.5916 9.18191 59.0191 9.36174 59.4396C9.57098 59.9427 10.0321 60.4 10.4392 60.5206C10.5703 60.5505 10.7342 60.588 10.896 60.6043C10.7614 61.5255 10.5793 61.9599 10.5527 62.0159C12.4052 60.8527 14.6187 60.4342 16.7582 60.7921L16.6284 60.6658C16.2738 60.3158 15.928 59.8366 15.6088 59.3015C15.789 59.1771 15.946 59.0336 16.0797 58.871C16.4332 58.4413 16.5647 57.9264 16.4422 57.4362C16.3196 56.946 15.978 56.5092 15.5436 56.3271Z" fill="#5E12A0"/>
<path d="M15.3316 58.9552C16.4913 58.1372 16.0318 57.0388 15.3713 56.7292C14.7013 56.4312 13.7426 56.4604 12.4086 56.804C11.0745 57.1475 10.1026 57.8084 9.76016 58.4614C9.41776 59.1144 10.1318 59.9743 10.5716 60.1024C10.7471 60.1494 11.038 60.1745 11.3904 60.1723C11.3598 60.5171 11.304 60.8217 11.2653 61.0819C12.6203 60.4051 14.1278 60.0874 15.63 60.1548C15.3833 59.8156 15.2001 59.4702 15.0422 59.165C15.1207 59.0933 15.2203 59.0195 15.3316 58.9552Z" fill="url(#paint2_radial_133_1372)"/>
<path d="M21.738 74.3668C24.6873 70.7813 24.1715 65.484 20.5861 62.5348C17.0006 59.5855 11.7033 60.1013 8.75409 63.6867C5.80485 67.2722 6.32059 72.5695 9.90604 75.5187C13.4915 78.468 18.7888 77.9522 21.738 74.3668Z" fill="url(#paint3_radial_133_1372)"/>
<path d="M14.3976 56.8242C12.7425 56.9426 11.8872 57.4852 10.9542 58.2171C10.2185 58.7802 9.97645 58.2695 10.7551 57.4886C10.2814 57.7805 9.9313 58.1351 9.7601 58.4615C9.4177 59.1145 10.1318 59.9745 10.5716 60.1026C10.7471 60.1496 11.038 60.1747 11.3903 60.1724C11.3414 60.658 11.2727 61.0493 11.2073 61.3654C11.3398 61.2991 11.5029 61.2191 11.7084 61.135C12.2422 60.9121 12.9441 60.769 12.9441 60.769C11.8517 60.9608 11.7108 60.6113 11.8192 59.2012C11.8511 58.7601 12.2946 58.2682 12.9302 57.9927C13.5657 57.7171 14.6398 57.666 14.6398 57.666L15.2224 59.0408C15.2626 59.0155 15.3029 58.9903 15.3432 58.965C15.7131 58.7046 15.9096 58.4184 16.0003 58.1425C16.0499 57.7744 16.0643 56.7153 14.3976 56.8242Z" fill="#A98698" fill-opacity="0.6"/>
<path d="M11.5027 58.6869C11.7867 58.5311 12.1976 58.3629 12.7472 58.1918C13.4006 57.9893 14.041 57.8736 14.4971 57.8398C14.697 58.6857 15.2089 59.5547 15.5862 60.1376C15.7692 60.1518 15.9617 60.1545 16.1447 60.1687C15.9213 59.8486 15.6062 59.3558 15.3293 58.8165C15.3792 58.7796 15.4269 58.7215 15.4747 58.6634C15.5893 58.5241 15.6998 58.3424 15.7004 58.1287C15.7071 57.9784 15.6654 57.7688 15.4235 57.5894C15.2029 57.4079 14.7809 57.3528 14.1479 57.4358C13.6939 57.4907 13.1402 57.6194 12.6097 57.7672C11.1262 58.2214 10.3672 58.7654 10.4228 59.3369C10.4599 59.7179 10.7345 59.9048 10.9777 59.988C10.9159 60.5602 10.8322 61.0171 10.7763 61.3217C10.9374 61.2205 11.1006 61.1405 11.2733 61.0489C11.3815 60.5149 11.4842 59.7036 11.5027 58.6869ZM14.9689 57.858C15.0557 57.8709 15.1233 57.9071 15.1581 57.9357C15.2626 58.0217 15.2688 58.0852 15.2729 58.1275C15.2696 58.2027 15.2164 58.3147 15.1495 58.396C15.0675 58.2116 15.0182 58.0348 14.9689 57.858ZM10.879 59.3032C10.8728 59.2397 10.926 59.1277 11.0734 58.9958C11.0708 59.1884 11.0565 59.3714 11.0423 59.5544C10.9514 59.4991 10.8797 59.4206 10.879 59.3032Z" fill="#5E12A0"/>
<path d="M8.37011 63.3723C5.24634 67.17 5.79244 72.7791 9.59007 75.9028C13.3877 79.0266 18.9968 78.4805 22.1206 74.6829C25.2443 70.8852 24.6982 65.2762 20.9006 62.1524C17.103 59.0286 11.4843 59.5863 8.37011 63.3723ZM21.7373 74.3676C18.7855 77.9562 13.4939 78.4714 9.90531 75.5196C6.31672 72.5678 5.80154 67.2762 8.75336 63.6876C11.7052 60.099 16.9968 59.5838 20.5854 62.5356C24.174 65.4874 24.6796 70.7907 21.7373 74.3676Z" fill="#5E12A0"/>
<path d="M21.738 74.3668C24.6873 70.7813 24.1715 65.484 20.5861 62.5348C17.0006 59.5855 11.7033 60.1013 8.75409 63.6867C5.80485 67.2722 6.32059 72.5695 9.90604 75.5187C13.4915 78.468 18.7888 77.9522 21.738 74.3668Z" fill="url(#paint4_linear_133_1372)"/>
<path d="M20.9081 73.7643C17.4254 76.8383 12.1149 76.5007 9.05042 73.0064C7.69275 71.4613 7.00678 69.573 6.95993 67.6652C6.56323 70.0649 7.20725 72.6196 8.9373 74.5879C12.0113 78.0706 17.3219 78.4082 20.795 75.3458C22.7442 73.639 23.6953 71.228 23.6434 68.8293C23.3413 70.6642 22.413 72.4319 20.9081 73.7643Z" fill="#A98698" fill-opacity="0.6"/>
<path d="M9.6979 62.7303C8.08385 64.1481 7.14674 66.0448 6.90139 68.0238C6.90551 68.0661 6.90963 68.1085 6.90963 68.1085C7.01845 67.3607 7.35317 66.4093 7.35317 66.4093C6.89728 69.1887 7.66229 70.7915 7.66229 70.7915C6.84727 68.8944 7.61577 65.9244 8.93125 64.1831C10.2467 62.4418 11.6536 61.7493 13.8418 61.2905C16.0416 60.8413 18.9401 61.8625 20.6385 63.3958C22.3465 64.9175 23.0107 67.0216 23.0107 67.0216C22.7115 65.7046 22.4229 64.8246 22.008 64.0745C21.8604 63.8752 21.7128 63.6759 21.5344 63.4902C18.4816 60.0055 13.1806 59.6562 9.6979 62.7303Z" fill="url(#paint5_linear_133_1372)"/>
<path d="M20.2601 62.8124C23.6629 65.6114 24.1533 70.649 21.3544 74.0517C18.5554 77.4545 13.5082 77.9566 10.1055 75.1576L20.2601 62.8124Z" fill="url(#paint6_linear_133_1372)"/>
<path d="M19.8622 63.301C23.1837 66.0331 23.7423 70.8931 21.157 74.2964L21.3576 74.0525C24.1566 70.6498 23.6662 65.6122 20.2634 62.8132L19.8622 63.301Z" fill="url(#paint7_linear_133_1372)"/>
<path d="M10.8219 74.2866L10.1055 75.1576C13.5082 77.9566 18.5458 77.4661 21.3448 74.0633C21.469 73.9124 21.5836 73.773 21.6867 73.6241C18.8274 76.6268 14.0737 76.9614 10.8219 74.2866Z" fill="url(#paint8_linear_133_1372)"/>
<path d="M20.3102 62.8717C19.6018 62.289 18.1827 63.1857 16.6964 64.7086C15.6291 65.8167 14.7613 67.1085 14.0522 68.8228C13.4262 70.2939 12.4893 71.3146 11.7563 72.0163C10.1355 73.5843 9.32897 74.5175 10.1651 75.2053C11.373 76.1988 14.9079 74.9786 17.4231 70.8556C18.694 68.7661 18.941 67.3532 19.4769 65.9442C20.066 64.4232 20.9374 63.3876 20.3102 62.8717Z" fill="url(#paint9_linear_133_1372)"/>
<path d="M13.9795 64.5992C14.4544 64.0219 14.3713 63.1691 13.794 62.6942C13.2167 62.2194 12.3639 62.3024 11.8891 62.8797C11.4142 63.457 11.4972 64.3098 12.0745 64.7847C12.6518 65.2596 13.5046 65.1765 13.9795 64.5992Z" fill="white"/>
<path d="M16.1608 63.5323C16.3612 63.2887 16.3261 62.9289 16.0825 62.7285C15.8389 62.5282 15.4791 62.5632 15.2788 62.8068C15.0784 63.0504 15.1134 63.4102 15.357 63.6106C15.6006 63.8109 15.9604 63.7759 16.1608 63.5323Z" fill="white"/>
<path d="M14.8026 59.7644L14.7835 59.7877C14.7146 59.8478 14.6067 59.8369 14.535 59.7584C14.0867 59.2145 13.9387 58.3528 13.9346 58.3105C13.9147 58.2163 13.9912 58.1234 14.0758 58.1151C14.17 58.0953 14.263 58.1717 14.2712 58.2564C14.2733 58.2775 14.4151 59.0757 14.8032 59.5507C14.8633 59.6196 14.8504 59.7064 14.8026 59.7644Z" fill="url(#paint10_linear_133_1372)"/>
<path d="M9.62872 57.8649C10.1637 57.2146 11.1364 56.6712 12.2936 56.3769C13.7526 55.9998 14.7864 55.9739 15.5472 56.3272C15.9837 56.5304 16.3233 56.9461 16.4342 57.4267C16.5471 57.9285 16.4252 58.4318 16.0718 58.8615C15.9476 59.0125 15.7906 59.156 15.6008 59.292C15.782 59.6162 15.9822 59.9172 16.19 60.1855C17.8527 60.3654 19.4974 61.0173 20.891 62.1636C24.6886 65.2874 25.2347 70.8965 22.1109 74.6941C18.9872 78.4917 13.3876 79.0262 9.59 75.9024C5.79237 72.7787 5.24628 67.1696 8.37005 63.372C9.05785 62.5358 9.86797 61.8586 10.7581 61.3446C10.803 61.1479 10.8534 60.8973 10.8997 60.6044C10.7378 60.5881 10.576 60.5718 10.4428 60.5206C10.0242 60.3905 9.57461 59.9428 9.36538 59.4397C9.19717 59.0287 9.18873 58.6129 9.36742 58.2536C9.43017 58.13 9.52364 57.9927 9.62872 57.8649ZM9.43129 57.7025C9.31665 57.8419 9.21363 57.9908 9.14339 58.1472C8.9381 58.5625 8.922 59.0555 9.13124 59.5586C9.37944 60.1327 9.88912 60.6493 10.3733 60.7945C10.4389 60.8095 10.5161 60.834 10.6028 60.8469C10.5824 60.9664 10.562 61.0859 10.5299 61.1959C9.63233 61.7427 8.84338 62.4178 8.17468 63.2307C7.39135 64.183 6.81294 65.265 6.46811 66.4417C6.13077 67.5856 6.02084 68.7608 6.13624 69.9461C6.25164 71.1314 6.5862 72.2634 7.13785 73.3207C7.70318 74.4088 8.47941 75.3589 9.43173 76.1422C10.384 76.9255 11.466 77.504 12.6427 77.8488C13.7866 78.1861 14.9618 78.2961 16.1471 78.1807C17.3324 78.0652 18.4644 77.7307 19.5217 77.179C20.6098 76.6137 21.5599 75.8375 22.3432 74.8852C23.1265 73.9328 23.705 72.8509 24.0498 71.6742C24.3871 70.5303 24.4971 69.3551 24.3817 68.1698C24.2663 66.9844 23.9317 65.8525 23.38 64.7951C22.8147 63.707 22.0385 62.757 21.0862 61.9737C19.7274 60.856 18.0998 60.1598 16.3599 59.9552C16.2143 59.7771 16.0879 59.5758 15.9614 59.3744C16.0802 59.2774 16.1969 59.1592 16.2924 59.043C16.6936 58.5553 16.8497 57.9632 16.7073 57.3787C16.5786 56.8251 16.1768 56.3193 15.6748 56.1011C14.8484 55.7328 13.7702 55.7417 12.2498 56.1461C11.0174 56.437 9.99491 57.0173 9.43129 57.7025Z" fill="white"/>
<path d="M19.7336 73.44C19.8812 73.2606 19.8554 72.9953 19.6759 72.8477C19.4965 72.7001 19.2313 72.726 19.0837 72.9054C18.9361 73.0848 18.9619 73.3501 19.1414 73.4976C19.3208 73.6452 19.586 73.6194 19.7336 73.44Z" fill="white" fill-opacity="0.2"/>
<path d="M19.4654 73.5306C19.2327 73.5532 19.0238 73.3814 19.0011 73.1487C18.997 73.1064 19.0045 73.0737 19.0004 73.0314C18.9738 73.0873 18.9684 73.1412 18.9746 73.2047C18.9972 73.4374 19.2061 73.6092 19.4388 73.5865C19.6291 73.568 19.786 73.4246 19.8214 73.2397C19.7723 73.3939 19.6346 73.5141 19.4654 73.5306Z" fill="url(#paint11_linear_133_1372)"/>
<path d="M19.4122 72.9804C19.444 72.9418 19.4384 72.8847 19.3998 72.853C19.3612 72.8212 19.3041 72.8268 19.2724 72.8654C19.2406 72.9039 19.2462 72.9611 19.2848 72.9928C19.3234 73.0246 19.3805 73.019 19.4122 72.9804Z" fill="white" fill-opacity="0.3"/>
<path d="M20.966 71.6108C21.1136 71.4313 21.0878 71.1661 20.9084 71.0185C20.7289 70.8709 20.4637 70.8968 20.3161 71.0762C20.1685 71.2556 20.1944 71.5208 20.3738 71.6684C20.5532 71.816 20.8184 71.7902 20.966 71.6108Z" fill="white" fill-opacity="0.2"/>
<path d="M20.6978 71.7015C20.4651 71.7241 20.2562 71.5523 20.2336 71.3196C20.2294 71.2773 20.2369 71.2446 20.2328 71.2023C20.2062 71.2582 20.2008 71.3121 20.207 71.3756C20.2296 71.6083 20.4385 71.7801 20.6712 71.7574C20.8616 71.7389 21.0184 71.5955 21.0538 71.4106C21.0048 71.5648 20.867 71.685 20.6978 71.7015Z" fill="url(#paint12_linear_133_1372)"/>
<path d="M20.6447 71.1512C20.6764 71.1126 20.6708 71.0555 20.6322 71.0237C20.5937 70.992 20.5365 70.9976 20.5048 71.0361C20.4731 71.0747 20.4786 71.1319 20.5172 71.1636C20.5558 71.1953 20.6129 71.1898 20.6447 71.1512Z" fill="white" fill-opacity="0.3"/>
<path d="M21.0356 73.0687C21.1463 72.9341 21.1269 72.7353 20.9923 72.6245C20.8577 72.5138 20.6589 72.5332 20.5481 72.6678C20.4374 72.8024 20.4567 73.0012 20.5914 73.112C20.726 73.2227 20.9248 73.2033 21.0356 73.0687Z" fill="white" fill-opacity="0.2"/>
<path d="M20.8263 73.1315C20.6571 73.1479 20.4946 73.0143 20.4782 72.8451C20.4761 72.8239 20.4836 72.7912 20.4815 72.77C20.4645 72.8144 20.4686 72.8567 20.4727 72.899C20.4892 73.0682 20.6517 73.2019 20.8209 73.1854C20.969 73.171 21.076 73.0645 21.1039 72.9123C21.0624 73.0338 20.9532 73.1191 20.8263 73.1315Z" fill="url(#paint13_linear_133_1372)"/>
<path d="M20.7761 72.7198C20.7973 72.694 20.7936 72.656 20.7679 72.6348C20.7421 72.6136 20.7041 72.6173 20.6829 72.6431C20.6617 72.6688 20.6654 72.7069 20.6912 72.728C20.7169 72.7492 20.7549 72.7455 20.7761 72.7198Z" fill="white" fill-opacity="0.3"/>
<path d="M22.0941 71.4265C22.2049 71.2919 22.1855 71.0931 22.0509 70.9823C21.9163 70.8716 21.7175 70.8909 21.6067 71.0256C21.496 71.1602 21.5153 71.359 21.65 71.4698C21.7846 71.5805 21.9834 71.5611 22.0941 71.4265Z" fill="white" fill-opacity="0.2"/>
<path d="M21.8869 71.4895C21.7177 71.506 21.5552 71.3723 21.5387 71.2031C21.5366 71.182 21.5441 71.1492 21.5421 71.1281C21.525 71.1724 21.5292 71.2147 21.5333 71.257C21.5497 71.4262 21.7122 71.5599 21.8814 71.5434C22.0295 71.529 22.1366 71.4225 22.1645 71.2703C22.1229 71.3918 22.0138 71.4771 21.8869 71.4895Z" fill="url(#paint14_linear_133_1372)"/>
<path d="M21.8308 71.0787C21.852 71.0529 21.8483 71.0149 21.8225 70.9937C21.7968 70.9725 21.7588 70.9762 21.7376 71.002C21.7164 71.0277 21.7201 71.0657 21.7458 71.0869C21.7716 71.1081 21.8096 71.1044 21.8308 71.0787Z" fill="white" fill-opacity="0.3"/>
<path d="M18.4775 74.7275C18.7201 74.4326 18.6777 73.997 18.3828 73.7545C18.088 73.512 17.6524 73.5543 17.4098 73.8492C17.1674 74.144 17.2098 74.5797 17.5046 74.8222C17.7994 75.0647 18.2351 75.0222 18.4775 74.7275Z" fill="white" fill-opacity="0.2"/>
<path d="M18.0354 74.8659C17.6547 74.903 17.3181 74.6262 17.2811 74.2454C17.2749 74.182 17.2803 74.1281 17.2953 74.0625C17.2612 74.1513 17.2599 74.2475 17.2586 74.3437C17.2957 74.7244 17.6322 75.0013 18.013 74.9642C18.3302 74.9333 18.5846 74.695 18.6288 74.3811C18.5477 74.6452 18.322 74.8487 18.0354 74.8659Z" fill="url(#paint15_linear_133_1372)"/>
<path d="M17.9389 73.9679C17.9916 73.9039 17.9824 73.8091 17.9183 73.7564C17.8542 73.7037 17.7595 73.7129 17.7068 73.777C17.6541 73.8411 17.6633 73.9358 17.7274 73.9885C17.7914 74.0412 17.8862 74.032 17.9389 73.9679Z" fill="white" fill-opacity="0.3"/>
<path d="M21.0967 68.8742C21.3392 68.5793 21.2968 68.1438 21.0019 67.9012C20.7072 67.6587 20.2715 67.701 20.029 67.9959C19.7865 68.2907 19.8289 68.7264 20.1237 68.9689C20.4186 69.2115 20.8542 69.169 21.0967 68.8742Z" fill="white" fill-opacity="0.2"/>
<path d="M20.637 69.0252C20.2562 69.0623 19.9197 68.7855 19.8826 68.4047C19.8764 68.3413 19.8819 68.2874 19.8968 68.2218C19.8628 68.3106 19.8615 68.4068 19.8602 68.503C19.8972 68.8837 20.2338 69.1606 20.6145 69.1235C20.9318 69.0926 21.1862 68.8543 21.2303 68.5404C21.1493 68.8045 20.9331 68.9964 20.637 69.0252Z" fill="url(#paint16_linear_133_1372)"/>
<path d="M20.5502 68.1149C20.6029 68.0508 20.5937 67.9561 20.5296 67.9034C20.4656 67.8507 20.3708 67.8599 20.3181 67.924C20.2654 67.988 20.2746 68.0828 20.3387 68.1355C20.4028 68.1882 20.4975 68.179 20.5502 68.1149Z" fill="white" fill-opacity="0.3"/>
</g>
<path d="M76.0432 134.899C81.1282 132.009 82.9363 125.594 80.0816 120.571C77.2269 115.547 70.7904 113.818 65.7054 116.707C60.6203 119.597 58.8122 126.012 61.667 131.035C64.5217 136.059 70.9581 137.789 76.0432 134.899Z" fill="#F0827D"/>
<path d="M75.2335 133.408C79.5513 130.955 81.1109 125.551 78.717 121.338C76.323 117.125 70.882 115.699 66.5642 118.153C62.2464 120.607 60.6868 126.011 63.0807 130.224C65.4747 134.436 70.9156 135.862 75.2335 133.408Z" fill="white"/>
<path d="M75.0464 133.034C79.1203 130.719 80.5856 125.609 78.3192 121.621C76.0529 117.633 70.9132 116.277 66.8393 118.592C62.7654 120.907 61.3001 126.017 63.5664 130.005C65.8328 133.993 70.9725 135.349 75.0464 133.034Z" fill="#F0827D"/>
<path fill-rule="evenodd" clip-rule="evenodd" d="M69.8018 122.856C69.7205 122.713 69.5514 122.656 69.4241 122.728C69.4241 122.728 69.4239 122.728 69.4238 122.728C69.2966 122.801 69.2593 122.975 69.3406 123.118C69.9337 124.162 72.1458 128.055 72.739 129.099C72.8203 129.242 72.9894 129.299 73.1166 129.227C73.1167 129.227 73.1169 129.226 73.1169 129.226C73.2442 129.154 73.2816 128.979 73.2003 128.836C72.607 127.793 70.395 123.9 69.8018 122.856Z" fill="white"/>
<path fill-rule="evenodd" clip-rule="evenodd" d="M71.6748 128.315C71.5475 128.387 71.51 128.562 71.5912 128.705C71.5912 128.705 71.5913 128.705 71.5914 128.705C71.6725 128.848 71.8416 128.906 71.9689 128.833C72.3232 128.633 72.9975 128.25 73.3518 128.049C73.4792 127.977 73.5167 127.802 73.4356 127.66C73.4355 127.659 73.4354 127.659 73.4354 127.659C73.3542 127.516 73.1851 127.459 73.0577 127.531C72.7034 127.732 72.0291 128.114 71.6748 128.315Z" fill="white"/>
<path fill-rule="evenodd" clip-rule="evenodd" d="M68.6084 125.574C68.481 125.647 68.4436 125.821 68.5248 125.964C68.5248 125.964 68.5249 125.964 68.525 125.965C68.6061 126.107 68.7751 126.165 68.9025 126.093C69.6266 125.682 71.8492 124.422 72.5733 124.011C72.7006 123.939 72.7381 123.764 72.657 123.621C72.6569 123.621 72.6569 123.621 72.6569 123.621C72.5757 123.478 72.4065 123.421 72.2792 123.493C71.5551 123.903 69.3325 125.164 68.6084 125.574Z" fill="white"/>
<path fill-rule="evenodd" clip-rule="evenodd" d="M68.6228 123.834C68.4753 123.784 68.3294 123.867 68.297 124.019C68.297 124.019 68.2969 124.019 68.2969 124.02C68.2645 124.172 68.3579 124.336 68.5054 124.385C69.3181 124.66 71.7547 125.483 72.5673 125.757C72.7149 125.807 72.8608 125.724 72.8931 125.571C72.8932 125.571 72.8932 125.571 72.8932 125.571C72.9256 125.419 72.8323 125.255 72.6847 125.205C71.872 124.931 69.4355 124.108 68.6228 123.834Z" fill="white"/>
<path fill-rule="evenodd" clip-rule="evenodd" d="M69.8793 126.802C69.847 126.954 69.9405 127.118 70.0881 127.168C70.0881 127.168 70.0882 127.168 70.0884 127.168C70.2358 127.218 70.3817 127.134 70.414 126.982C70.5919 126.143 71.1252 123.626 71.3031 122.787C71.3354 122.634 71.242 122.47 71.0946 122.421C71.0944 122.421 71.0942 122.421 71.0942 122.421C70.9467 122.371 70.8008 122.454 70.7685 122.607C70.5906 123.446 70.0572 125.963 69.8793 126.802Z" fill="white"/>
<defs>
<filter id="filter0_d_133_1372" x="43.5234" y="0" width="40.5078" height="40.4452" filterUnits="userSpaceOnUse" color-interpolation-filters="sRGB">
<feFlood flood-opacity="0" result="BackgroundImageFix"/>
<feColorMatrix in="SourceAlpha" type="matrix" values="0 0 0 0 0 0 0 0 0 0 0 0 0 0 0 0 0 0 127 0" result="hardAlpha"/>
<feOffset dy="4"/>
<feGaussianBlur stdDeviation="2"/>
<feComposite in2="hardAlpha" operator="out"/>
<feColorMatrix type="matrix" values="0 0 0 0 0 0 0 0 0 0 0 0 0 0 0 0 0 0 0.25 0"/>
<feBlend mode="normal" in2="BackgroundImageFix" result="effect1_dropShadow_133_1372"/>
<feBlend mode="normal" in="SourceGraphic" in2="effect1_dropShadow_133_1372" result="shape"/>
</filter>
<filter id="filter1_d_133_1372" x="2.0918" y="55.8335" width="26.334" height="30.3915" filterUnits="userSpaceOnUse" color-interpolation-filters="sRGB">
<feFlood flood-opacity="0" result="BackgroundImageFix"/>
<feColorMatrix in="SourceAlpha" type="matrix" values="0 0 0 0 0 0 0 0 0 0 0 0 0 0 0 0 0 0 127 0" result="hardAlpha"/>
<feOffset dy="4"/>
<feGaussianBlur stdDeviation="2"/>
<feComposite in2="hardAlpha" operator="out"/>
<feColorMatrix type="matrix" values="0 0 0 0 0 0 0 0 0 0 0 0 0 0 0 0 0 0 0.25 0"/>
<feBlend mode="normal" in2="BackgroundImageFix" result="effect1_dropShadow_133_1372"/>
<feBlend mode="normal" in="SourceGraphic" in2="effect1_dropShadow_133_1372" result="shape"/>
</filter>
<linearGradient id="paint0_linear_133_1372" x1="129.365" y1="11.3635" x2="9.85714" y2="126.51" gradientUnits="userSpaceOnUse">
<stop offset="0.00404646" stop-color="#232BFF" stop-opacity="0"/>
<stop offset="0.0258" stop-color="#2731FF" stop-opacity="0.0221"/>
<stop offset="0.2871" stop-color="#5175FF" stop-opacity="0.2875"/>
<stop offset="0.5232" stop-color="#73AAFF" stop-opacity="0.5272"/>
<stop offset="0.7262" stop-color="#8CD1FF" stop-opacity="0.7334"/>
<stop offset="0.8881" stop-color="#9BE8FF" stop-opacity="0.8978"/>
<stop offset="0.9887" stop-color="#A0F1FF"/>
</linearGradient>
<linearGradient id="paint1_linear_133_1372" x1="122.438" y1="179.656" x2="67.0136" y2="233.057" gradientUnits="userSpaceOnUse">
<stop offset="0.00404646" stop-color="#232BFF" stop-opacity="0"/>
<stop offset="0.0258" stop-color="#2731FF" stop-opacity="0.0221"/>
<stop offset="0.2871" stop-color="#5175FF" stop-opacity="0.2875"/>
<stop offset="0.5232" stop-color="#73AAFF" stop-opacity="0.5272"/>
<stop offset="0.7262" stop-color="#8CD1FF" stop-opacity="0.7334"/>
<stop offset="0.8881" stop-color="#9BE8FF" stop-opacity="0.8978"/>
<stop offset="0.9887" stop-color="#A0F1FF"/>
</linearGradient>
<radialGradient id="paint2_radial_133_1372" cx="0" cy="0" r="1" gradientUnits="userSpaceOnUse" gradientTransform="translate(14.4654 56.3392) rotate(-50.5607) scale(6.72099)">
<stop stop-color="#FFEAFF" stop-opacity="0.6"/>
<stop offset="0.68" stop-color="#A087C9"/>
<stop offset="1" stop-color="#10002F"/>
</radialGradient>
<radialGradient id="paint3_radial_133_1372" cx="0" cy="0" r="1" gradientUnits="userSpaceOnUse" gradientTransform="translate(14.3059 61.047) rotate(-50.5607) scale(16.4438)">
<stop stop-color="#FFEAFF" stop-opacity="0.6"/>
<stop offset="0.68" stop-color="#A087C9"/>
<stop offset="1" stop-color="#10002F"/>
</radialGradient>
<linearGradient id="paint4_linear_133_1372" x1="20.7894" y1="75.3324" x2="9.68682" y2="62.7185" gradientUnits="userSpaceOnUse">
<stop stop-color="#81FFFF" stop-opacity="0.6"/>
<stop offset="0.62" stop-color="white" stop-opacity="0"/>
<stop offset="1" stop-color="white" stop-opacity="0"/>
</linearGradient>
<linearGradient id="paint5_linear_133_1372" x1="14.6012" y1="60.8257" x2="15.111" y2="70.2455" gradientUnits="userSpaceOnUse">
<stop stop-color="white" stop-opacity="0.6"/>
<stop offset="0.29" stop-color="white" stop-opacity="0.6"/>
<stop offset="0.78" stop-color="white" stop-opacity="0"/>
<stop offset="1" stop-color="white" stop-opacity="0"/>
</linearGradient>
<linearGradient id="paint6_linear_133_1372" x1="13.1896" y1="77.6857" x2="23.3374" y2="65.3487" gradientUnits="userSpaceOnUse">
<stop stop-color="#0002E9"/>
<stop offset="1" stop-color="#FF00C7"/>
</linearGradient>
<linearGradient id="paint7_linear_133_1372" x1="21.2825" y1="62.6773" x2="22.105" y2="74.6123" gradientUnits="userSpaceOnUse">
<stop stop-color="white" stop-opacity="0.6"/>
<stop offset="0.29" stop-color="white" stop-opacity="0.6"/>
<stop offset="0.78" stop-color="white" stop-opacity="0"/>
<stop offset="1" stop-color="white" stop-opacity="0"/>
</linearGradient>
<linearGradient id="paint8_linear_133_1372" x1="13.1896" y1="77.6857" x2="18.6186" y2="71.0855" gradientUnits="userSpaceOnUse">
<stop stop-color="#000292" stop-opacity="0.7"/>
<stop offset="1" stop-color="#7D00C7" stop-opacity="0.7"/>
</linearGradient>
<linearGradient id="paint9_linear_133_1372" x1="10.6886" y1="75.6132" x2="20.8229" y2="63.2927" gradientUnits="userSpaceOnUse">
<stop stop-color="#000292"/>
<stop offset="1" stop-color="#BE00C7"/>
</linearGradient>
<linearGradient id="paint10_linear_133_1372" x1="14.0464" y1="58.0594" x2="14.757" y2="60.1284" gradientUnits="userSpaceOnUse">
<stop stop-color="white" stop-opacity="0.6"/>
<stop offset="0.29" stop-color="white" stop-opacity="0.6"/>
<stop offset="0.78" stop-color="white" stop-opacity="0"/>
<stop offset="1" stop-color="white" stop-opacity="0"/>
</linearGradient>
<linearGradient id="paint11_linear_133_1372" x1="19.1492" y1="73.5094" x2="19.5531" y2="73.0184" gradientUnits="userSpaceOnUse">
<stop stop-color="white" stop-opacity="0.6"/>
<stop offset="0.29" stop-color="white" stop-opacity="0.6"/>
<stop offset="0.78" stop-color="white" stop-opacity="0"/>
<stop offset="1" stop-color="white" stop-opacity="0"/>
</linearGradient>
<linearGradient id="paint12_linear_133_1372" x1="20.3785" y1="71.6797" x2="20.7824" y2="71.1887" gradientUnits="userSpaceOnUse">
<stop stop-color="white" stop-opacity="0.6"/>
<stop offset="0.29" stop-color="white" stop-opacity="0.6"/>
<stop offset="0.78" stop-color="white" stop-opacity="0"/>
<stop offset="1" stop-color="white" stop-opacity="0"/>
</linearGradient>
<linearGradient id="paint13_linear_133_1372" x1="20.5911" y1="73.1156" x2="20.8943" y2="72.747" gradientUnits="userSpaceOnUse">
<stop stop-color="white" stop-opacity="0.6"/>
<stop offset="0.29" stop-color="white" stop-opacity="0.6"/>
<stop offset="0.78" stop-color="white" stop-opacity="0"/>
<stop offset="1" stop-color="white" stop-opacity="0"/>
</linearGradient>
<linearGradient id="paint14_linear_133_1372" x1="21.647" y1="71.4783" x2="21.9502" y2="71.1097" gradientUnits="userSpaceOnUse">
<stop stop-color="white" stop-opacity="0.6"/>
<stop offset="0.29" stop-color="white" stop-opacity="0.6"/>
<stop offset="0.78" stop-color="white" stop-opacity="0"/>
<stop offset="1" stop-color="white" stop-opacity="0"/>
</linearGradient>
<linearGradient id="paint15_linear_133_1372" x1="17.5219" y1="74.8319" x2="18.1815" y2="74.03" gradientUnits="userSpaceOnUse">
<stop stop-color="white" stop-opacity="0.6"/>
<stop offset="0.29" stop-color="white" stop-opacity="0.6"/>
<stop offset="0.78" stop-color="white" stop-opacity="0"/>
<stop offset="1" stop-color="white" stop-opacity="0"/>
</linearGradient>
<linearGradient id="paint16_linear_133_1372" x1="20.1268" y1="68.9865" x2="20.7864" y2="68.1846" gradientUnits="userSpaceOnUse">
<stop stop-color="white" stop-opacity="0.6"/>
<stop offset="0.29" stop-color="white" stop-opacity="0.6"/>
<stop offset="0.78" stop-color="white" stop-opacity="0"/>
<stop offset="1" stop-color="white" stop-opacity="0"/>
</linearGradient>
</defs>
</svg>
