<svg width="236" height="97" viewBox="0 0 236 97" fill="none" xmlns="http://www.w3.org/2000/svg">
<path d="M190.506 45.085C190.506 45.085 179.278 4.89005 200.853 5.10255C214.865 5.24057 212.361 23.2303 212.361 23.2303C212.361 23.2303 230.35 20.7123 230.489 34.7382C230.681 54.2459 190.506 45.085 190.506 45.085Z" fill="white"/>
<path d="M209.518 86.2901C209.518 86.2901 213.993 68.2429 222.31 73.0635C227.712 76.1944 222.79 82.6179 222.79 82.6179C222.79 82.6179 230.316 85.5927 227.29 91.0601C223.08 98.6643 209.518 86.2901 209.518 86.2901Z" fill="white"/>
<path d="M21.0395 40.3004C21.0395 40.3004 3.66729 46.9285 2.87759 37.3483C2.36468 31.1261 10.4484 31.5001 10.4484 31.5001C10.4484 31.5001 8.59415 23.6223 14.811 22.9864C23.4576 22.1018 21.0395 40.3004 21.0395 40.3004Z" fill="white"/>
</svg>
