<svg width="40" height="40" viewBox="0 0 40 40" fill="none" xmlns="http://www.w3.org/2000/svg">
<g clip-path="url(#clip0_273_269)">
<path fill-rule="evenodd" clip-rule="evenodd" d="M20.0007 0.833374C15.2528 0.835837 10.6605 2.51747 7.04507 5.57758C3.42963 8.63769 1.02679 12.8767 0.266192 17.5367C-0.494406 22.1967 0.436829 26.9737 2.8934 31.0137C5.34998 35.0536 9.17168 38.093 13.6752 39.5883C14.6687 39.7727 15.0429 39.157 15.0429 38.6334C15.0429 38.1098 15.0231 36.5917 15.0164 34.9321C9.45261 36.134 8.27693 32.5842 8.27693 32.5842C7.36949 30.2791 6.05801 29.6732 6.05801 29.6732C4.24314 28.4416 6.19381 28.4647 6.19381 28.4647C8.20407 28.6063 9.26054 30.5162 9.26054 30.5162C11.0423 33.5556 13.9401 32.6764 15.0794 32.1627C15.2582 30.8751 15.7782 29.9992 16.3511 29.502C11.9067 29.0014 7.23702 27.2957 7.23702 19.6757C7.20947 17.6996 7.94699 15.7885 9.29697 14.3378C9.09164 13.8373 8.40608 11.8154 9.49235 9.06909C9.49235 9.06909 11.1715 8.53563 14.9933 11.1074C18.2714 10.2161 21.7301 10.2161 25.0082 11.1074C28.8267 8.53563 30.5025 9.06909 30.5025 9.06909C31.592 11.8088 30.9065 13.8307 30.7012 14.3378C32.0554 15.7887 32.7945 17.7031 32.7644 19.6823C32.7644 27.3187 28.0848 29.0014 23.6338 29.4921C24.3491 30.1112 24.9883 31.3197 24.9883 33.1769C24.9883 35.8376 24.9651 37.9781 24.9651 38.6334C24.9651 39.1635 25.3261 39.7826 26.3395 39.5883C30.8435 38.0928 34.6656 35.0529 37.1221 31.0123C39.5787 26.9716 40.5094 22.1939 39.748 17.5335C38.9865 12.873 36.5825 8.63397 32.9658 5.57438C29.3492 2.5148 24.7559 0.834276 20.0073 0.833374H20.0007Z" fill="#1C172E"/>
<path d="M7.57459 29.3867C7.53154 29.4855 7.37257 29.5151 7.24341 29.4459C7.11425 29.3768 7.01821 29.2484 7.06458 29.1463C7.11094 29.0442 7.2666 29.0179 7.39576 29.087C7.52492 29.1562 7.62427 29.2879 7.57459 29.3867Z" fill="#1C172E"/>
<path d="M8.38473 30.2857C8.31615 30.32 8.23768 30.3296 8.16276 30.3128C8.08785 30.296 8.02115 30.2538 7.97407 30.1935C7.84491 30.0552 7.8184 29.8642 7.91775 29.7786C8.01711 29.693 8.19596 29.7325 8.32512 29.8708C8.45428 30.0091 8.48409 30.2001 8.38473 30.2857Z" fill="#1C172E"/>
<path d="M9.17346 31.4283C9.05092 31.5139 8.84226 31.4283 8.72635 31.257C8.6943 31.2263 8.66881 31.1895 8.6514 31.1487C8.63399 31.108 8.625 31.0642 8.625 31.0199C8.625 30.9757 8.63399 30.9319 8.6514 30.8911C8.66881 30.8504 8.6943 30.8136 8.72635 30.7828C8.84889 30.7005 9.05754 30.7828 9.17346 30.9508C9.28937 31.1187 9.29268 31.3426 9.17346 31.4283V31.4283Z" fill="#1C172E"/>
<path d="M10.2434 32.5347C10.1341 32.6566 9.91219 32.6237 9.73004 32.459C9.54789 32.2944 9.50482 32.0704 9.61411 31.9519C9.7234 31.8333 9.94529 31.8663 10.1341 32.0276C10.3228 32.189 10.3593 32.4162 10.2434 32.5347V32.5347Z" fill="#1C172E"/>
<path d="M11.743 33.1802C11.6933 33.3349 11.4681 33.4041 11.2429 33.3382C11.0177 33.2724 10.8687 33.0879 10.9117 32.9299C10.9548 32.7718 11.1833 32.6994 11.4118 32.7718C11.6403 32.8443 11.786 33.0188 11.743 33.1802Z" fill="#1C172E"/>
<path d="M13.3792 33.2922C13.3792 33.4535 13.1938 33.5918 12.9553 33.5951C12.7169 33.5984 12.5215 33.4667 12.5215 33.3053C12.5215 33.144 12.7069 33.0057 12.9454 33.0024C13.1838 32.9991 13.3792 33.1275 13.3792 33.2922Z" fill="#1C172E"/>
<path d="M14.9033 33.0386C14.9331 33.2 14.7675 33.3679 14.5291 33.4074C14.2906 33.4469 14.082 33.3514 14.0522 33.1934C14.0224 33.0353 14.1946 32.8641 14.4264 32.8213C14.6582 32.7785 14.8735 32.8773 14.9033 33.0386Z" fill="#1C172E"/>
</g>
<defs>
<clipPath id="clip0_273_269">
<rect width="40" height="40" fill="white"/>
</clipPath>
</defs>
</svg>
