<svg width="17" height="18" viewBox="0 0 17 18" fill="none" xmlns="http://www.w3.org/2000/svg">
<path d="M16.8391 7.64249C16.8105 7.35149 16.7629 7.01755 16.6677 6.64544C16.5725 6.2781 16.4296 5.8726 16.2201 5.45279C16.0107 5.03298 15.7393 4.59885 15.387 4.17427C15.2489 4.0073 15.0965 3.8451 14.9347 3.68767C15.1775 2.71924 14.6395 1.87961 14.6395 1.87961C13.7111 1.82237 13.1207 2.17062 12.9017 2.32805C12.8636 2.31374 12.8303 2.29466 12.7922 2.28034C12.6351 2.21833 12.4732 2.15631 12.3018 2.10383C12.1351 2.05136 11.9638 2.00365 11.7876 1.96071C11.6114 1.91778 11.4353 1.88439 11.2544 1.85576C11.221 1.85099 11.1925 1.84622 11.1591 1.84145C10.7544 0.543848 9.59274 0 9.59274 0C8.29297 0.825313 8.05016 1.9798 8.05016 1.9798C8.05016 1.9798 8.0454 2.00365 8.03588 2.04659C7.96446 2.06567 7.89304 2.08952 7.82163 2.1086C7.72165 2.13723 7.62166 2.17539 7.52644 2.21356C7.42646 2.25172 7.33124 2.28989 7.23126 2.33282C7.03605 2.41869 6.84085 2.5141 6.65041 2.61906C6.46473 2.72401 6.2838 2.8385 6.10765 2.95777C6.08384 2.94823 6.06003 2.93869 6.06003 2.93869C4.26035 2.25172 2.6654 3.07703 2.6654 3.07703C2.5178 4.99481 3.38432 6.20177 3.55572 6.42122C3.51287 6.54049 3.47478 6.65975 3.43669 6.77902C3.30338 7.21314 3.2034 7.6568 3.1415 8.11955C3.13198 8.18634 3.12246 8.25313 3.1177 8.31992C1.45133 9.14523 0.960938 10.8293 0.960938 10.8293C2.34641 12.4274 3.96517 12.5276 3.96517 12.5276L3.96993 12.5228C4.17465 12.8901 4.41271 13.2384 4.67933 13.5676C4.79359 13.7059 4.90786 13.8347 5.03165 13.9635C4.52697 15.4138 5.10306 16.616 5.10306 16.616C6.64565 16.6732 7.65975 15.9386 7.874 15.7716C8.02635 15.8241 8.18347 15.8718 8.34058 15.9099C8.81669 16.034 9.30232 16.1055 9.78795 16.1246C9.90697 16.1294 10.0308 16.1342 10.1498 16.1294H10.2069H10.245H10.3212L10.3974 16.1246V16.1294C11.1258 17.1694 12.4018 17.3173 12.4018 17.3173C13.3111 16.3584 13.3635 15.4043 13.3635 15.1991C13.3635 15.1991 13.3635 15.1943 13.3635 15.1848C13.3635 15.1657 13.3635 15.1562 13.3635 15.1562C13.3635 15.1419 13.3635 15.1276 13.3635 15.1132C13.5539 14.9797 13.7349 14.8366 13.9063 14.6791C14.2681 14.35 14.5871 13.9731 14.8537 13.5676C14.8775 13.5294 14.9013 13.4912 14.9251 13.4531C15.9535 13.5103 16.682 12.8138 16.682 12.8138C16.5106 11.7404 15.9012 11.2157 15.7726 11.1155C15.7726 11.1155 15.7678 11.1107 15.7583 11.1059C15.7488 11.1012 15.7488 11.0964 15.7488 11.0964C15.744 11.0916 15.7345 11.0869 15.725 11.0821C15.7298 11.0153 15.7345 10.9533 15.7393 10.8865C15.7488 10.772 15.7488 10.6527 15.7488 10.5382V10.4524V10.4094V10.3856C15.7488 10.357 15.7488 10.3665 15.7488 10.357L15.744 10.2854L15.7393 10.19C15.7393 10.1566 15.7345 10.128 15.7298 10.0993C15.725 10.0707 15.725 10.0373 15.7202 10.0087L15.7107 9.91807L15.6964 9.82743C15.6774 9.70816 15.6583 9.59367 15.6298 9.4744C15.5203 9.01165 15.3393 8.57276 15.1061 8.1768C14.868 7.78084 14.5728 7.43259 14.2348 7.13681C13.9015 6.84103 13.5254 6.6025 13.135 6.42599C12.7398 6.24948 12.3304 6.13499 11.9209 6.08251C11.7162 6.05388 11.5115 6.04434 11.3067 6.04911H11.2305H11.2115C11.2067 6.04911 11.1829 6.04911 11.1877 6.04911H11.1544L11.0782 6.05388C11.0496 6.05388 11.0211 6.05866 10.9973 6.05866C10.8925 6.0682 10.7878 6.08251 10.6878 6.10159C10.2783 6.17792 9.89269 6.32581 9.55466 6.53094C9.21662 6.73608 8.92143 6.98892 8.68338 7.27516C8.44533 7.56139 8.25965 7.88102 8.1311 8.21019C8.00255 8.53937 7.93113 8.88285 7.91209 9.21202C7.90733 9.29312 7.90733 9.37899 7.90733 9.46009C7.90733 9.47917 7.90733 9.50303 7.90733 9.52211L7.91209 9.5889C7.91685 9.62706 7.91685 9.67 7.92161 9.70816C7.93589 9.87513 7.96922 10.0373 8.01207 10.19C8.10253 10.5001 8.24536 10.7815 8.42152 11.0201C8.59768 11.2586 8.81193 11.4542 9.0357 11.6116C9.25947 11.7643 9.50228 11.874 9.74034 11.9456C9.97839 12.0171 10.2164 12.0458 10.4402 12.0458C10.4688 12.0458 10.4973 12.0458 10.5212 12.0458C10.5354 12.0458 10.5497 12.0458 10.564 12.0458C10.5783 12.0458 10.5926 12.0458 10.6068 12.041C10.6307 12.041 10.6545 12.0362 10.6783 12.0362C10.683 12.0362 10.6925 12.0362 10.6973 12.0314L10.7211 12.0267C10.7354 12.0267 10.7497 12.0219 10.764 12.0219C10.7925 12.0171 10.8163 12.0124 10.8449 12.0076C10.8735 12.0028 10.8973 11.998 10.9211 11.9885C10.9735 11.979 11.0211 11.9599 11.0687 11.9456C11.1639 11.9122 11.2591 11.874 11.3401 11.8311C11.4258 11.7881 11.5019 11.7357 11.5781 11.688C11.5972 11.6736 11.621 11.6593 11.64 11.6403C11.7162 11.5782 11.7305 11.4637 11.6686 11.3874C11.6162 11.3206 11.521 11.3015 11.4448 11.3445C11.4258 11.354 11.4067 11.3636 11.3877 11.3731C11.321 11.4065 11.2544 11.4351 11.1829 11.459C11.1115 11.4828 11.0353 11.5019 10.9592 11.5162C10.9211 11.521 10.883 11.5258 10.8401 11.5305C10.8211 11.5305 10.8021 11.5353 10.7782 11.5353C10.7592 11.5353 10.7354 11.5353 10.7211 11.5353C10.7021 11.5353 10.683 11.5353 10.664 11.5353C10.6402 11.5353 10.6164 11.5353 10.5926 11.5305C10.5926 11.5305 10.5783 11.5305 10.5878 11.5305H10.5783H10.564C10.5545 11.5305 10.5402 11.5305 10.5307 11.5258C10.5069 11.521 10.4878 11.521 10.464 11.5162C10.2879 11.4924 10.1117 11.4399 9.94506 11.3636C9.77366 11.2872 9.61179 11.1823 9.46419 11.0487C9.3166 10.9151 9.18805 10.7577 9.08807 10.5764C8.98809 10.3951 8.91667 10.1948 8.88334 9.98486C8.86906 9.8799 8.85954 9.77018 8.8643 9.66523C8.8643 9.6366 8.86906 9.60798 8.86906 9.57936C8.86906 9.5889 8.86906 9.57458 8.86906 9.57458V9.56504V9.54119C8.86906 9.52688 8.87382 9.51257 8.87382 9.49825C8.87858 9.44101 8.88811 9.38376 8.89763 9.32651C8.97857 8.86854 9.2071 8.4201 9.55942 8.08139C9.64988 7.99552 9.7451 7.91919 9.84508 7.84763C9.94506 7.77607 10.0546 7.71405 10.1688 7.66158C10.2831 7.6091 10.3974 7.56616 10.5212 7.53277C10.6402 7.49938 10.764 7.48029 10.8925 7.46598C10.9544 7.46121 11.0163 7.45644 11.083 7.45644C11.102 7.45644 11.1115 7.45644 11.1258 7.45644H11.1782H11.2115C11.2258 7.45644 11.2115 7.45644 11.2163 7.45644H11.2305L11.2829 7.46121C11.421 7.47075 11.5543 7.48983 11.6876 7.52323C11.9542 7.58048 12.2161 7.68066 12.4589 7.81424C12.9445 8.08616 13.3587 8.50597 13.6111 9.01165C13.7396 9.2645 13.8301 9.53642 13.8729 9.81789C13.8825 9.88944 13.892 9.961 13.8967 10.0326L13.9015 10.085L13.9063 10.1375C13.9063 10.1566 13.9063 10.1757 13.9063 10.19C13.9063 10.2091 13.9063 10.2282 13.9063 10.2425V10.2902V10.3427C13.9063 10.376 13.9015 10.4333 13.9015 10.4667C13.8967 10.543 13.8872 10.6241 13.8777 10.7004C13.8682 10.7768 13.8539 10.8531 13.8396 10.9294C13.8253 11.0058 13.8063 11.0821 13.7872 11.1537C13.7491 11.3015 13.7015 11.4494 13.6444 11.5973C13.5301 11.8836 13.3778 12.1602 13.1969 12.4131C12.8303 12.9188 12.3304 13.329 11.759 13.5914C11.4734 13.7202 11.1734 13.8156 10.8639 13.8633C10.7116 13.892 10.5545 13.9063 10.3974 13.9111H10.3688H10.345H10.2926H10.2164H10.1784C10.1974 13.9111 10.1736 13.9111 10.1736 13.9111H10.1593C10.0736 13.9111 9.99267 13.9063 9.90697 13.8967C9.5737 13.8729 9.24519 13.8109 8.92143 13.7202C8.60244 13.6296 8.29297 13.5008 7.99779 13.3481C7.41218 13.0333 6.8837 12.6039 6.47425 12.0839C6.26952 11.8263 6.0886 11.5448 5.94101 11.2538C5.79342 10.9628 5.67439 10.6527 5.58869 10.3427C5.50299 10.0278 5.45062 9.70816 5.42681 9.38376L5.42205 9.32174V9.30743V9.29312V9.2645V9.21202V9.19771V9.17862V9.14046V9.06413V9.04982C5.42205 9.04982 5.42205 9.05459 5.42205 9.04505V9.01642C5.42205 8.97826 5.42205 8.93532 5.42205 8.89716C5.42681 8.73973 5.4411 8.57276 5.46014 8.41056C5.47919 8.24836 5.50775 8.08139 5.54108 7.91919C5.57441 7.75699 5.6125 7.59479 5.66011 7.43259C5.75057 7.11296 5.86483 6.80287 5.99814 6.51186C6.26952 5.92985 6.62184 5.40985 7.04557 4.99481C7.15032 4.88986 7.25982 4.79445 7.37409 4.69904C7.48835 4.60839 7.60738 4.52252 7.73117 4.44142C7.85019 4.36032 7.97874 4.28877 8.10729 4.22198C8.16919 4.18858 8.23584 4.15519 8.3025 4.12656C8.33582 4.11225 8.36915 4.09794 8.40248 4.08363C8.4358 4.06932 8.46913 4.05501 8.50246 4.04069C8.63577 3.98345 8.77384 3.93574 8.91667 3.89281C8.95 3.88326 8.98809 3.87372 9.02142 3.85941C9.05474 3.84987 9.09283 3.84033 9.12616 3.83079C9.19757 3.81171 9.26899 3.79262 9.34041 3.77831C9.37373 3.76877 9.41182 3.764 9.44991 3.75446C9.488 3.74492 9.52133 3.74015 9.55942 3.73061C9.5975 3.72583 9.63083 3.71629 9.66892 3.71152L9.72129 3.70198L9.77842 3.69244C9.81651 3.68767 9.84984 3.6829 9.88793 3.67813C9.93078 3.67336 9.96887 3.66859 10.0117 3.66382C10.045 3.65905 10.1022 3.65428 10.1355 3.64951C10.1593 3.64473 10.1879 3.64473 10.2117 3.63996L10.2641 3.63519L10.2879 3.63042H10.3164C10.3593 3.62565 10.3974 3.62565 10.4402 3.62088L10.5021 3.61611C10.5021 3.61611 10.5259 3.61611 10.5069 3.61611H10.5212H10.5497C10.583 3.61611 10.6211 3.61134 10.6545 3.61134C10.7925 3.60657 10.9354 3.60657 11.0734 3.61134C11.3496 3.62088 11.621 3.65428 11.8828 3.70198C12.4113 3.80216 12.9064 3.96914 13.3587 4.19335C13.811 4.4128 14.211 4.68472 14.5633 4.9805C14.5871 4.99958 14.6061 5.01867 14.6299 5.03775C14.649 5.05683 14.6728 5.07591 14.6918 5.095C14.7347 5.13316 14.7728 5.17133 14.8156 5.20949C14.8585 5.24765 14.8966 5.28582 14.9347 5.32398C14.9727 5.36215 15.0108 5.40031 15.0489 5.44325C15.1965 5.60068 15.3346 5.75811 15.4584 5.92031C15.7059 6.23994 15.9059 6.56434 16.063 6.86966C16.0725 6.88874 16.0821 6.90782 16.0916 6.9269C16.1011 6.94599 16.1106 6.96507 16.1202 6.98415C16.1392 7.02232 16.1582 7.06048 16.1725 7.09865C16.1916 7.13681 16.2059 7.1702 16.2249 7.20837C16.2392 7.24653 16.2582 7.27993 16.2725 7.31809C16.3296 7.46121 16.3868 7.59956 16.4296 7.72836C16.501 7.93827 16.5534 8.12432 16.5963 8.28652C16.6105 8.35331 16.6724 8.39625 16.7391 8.38671C16.8105 8.38194 16.8629 8.32469 16.8629 8.25313C16.8676 8.08139 16.8629 7.87625 16.8391 7.64249Z" fill="url(#paint0_linear_138_1518)"/>
<defs>
<linearGradient id="paint0_linear_138_1518" x1="8.91191" y1="-0.0333942" x2="8.91191" y2="-0.000477059" gradientUnits="userSpaceOnUse">
<stop stop-color="#F05A28"/>
<stop offset="1" stop-color="#FBCA0A"/>
</linearGradient>
</defs>
</svg>
