<svg width="18" height="18" viewBox="0 0 18 18" fill="none" xmlns="http://www.w3.org/2000/svg">
<path d="M17.5801 12.9685V4.17208C17.5801 1.86792 15.7122 2.7895e-05 13.408 2.7895e-05L4.61158 2.7895e-05C2.30742 2.7895e-05 0.439526 1.86792 0.439526 4.17208V12.9685C0.439526 15.2727 2.30742 17.1406 4.61158 17.1406H13.408C15.7122 17.1406 17.5801 15.2727 17.5801 12.9685Z" fill="url(#paint0_linear_138_1513)"/>
<path opacity="0.9" d="M17.5801 12.9685V4.17208C17.5801 1.86792 15.7122 2.7895e-05 13.408 2.7895e-05L4.61158 2.7895e-05C2.30742 2.7895e-05 0.439526 1.86792 0.439526 4.17208V12.9685C0.439526 15.2727 2.30742 17.1406 4.61158 17.1406H13.408C15.7122 17.1406 17.5801 15.2727 17.5801 12.9685Z" fill="url(#paint1_linear_138_1513)"/>
<path opacity="0.9" d="M13.408 0H4.6115C2.30734 0 0.439453 1.86789 0.439453 4.17205V12.9685C0.439453 15.2727 2.30734 17.1406 4.6115 17.1406H13.408C15.7121 17.1406 17.58 15.2727 17.58 12.9685V4.17205C17.58 1.86789 15.7121 0 13.408 0Z" fill="url(#paint2_linear_138_1513)"/>
<path d="M7.40633 13.0763V9.08522L11.1045 13.0763H13.1619V12.9733L8.90834 8.42864L12.8337 4.11572V4.06423H10.7638L7.40633 7.87505V4.06423H5.74023V13.0763H7.40633Z" fill="url(#paint3_linear_138_1513)"/>
<defs>
<linearGradient id="paint0_linear_138_1513" x1="18.1805" y1="9.41631" x2="-1.47103" y2="-0.518555" gradientUnits="userSpaceOnUse">
<stop offset="0.210712" stop-color="#457CD6"/>
<stop offset="0.681753" stop-color="#58ADE9"/>
<stop offset="0.943139" stop-color="#71C4FF"/>
</linearGradient>
<linearGradient id="paint1_linear_138_1513" x1="7.78158" y1="0.709667" x2="2.45928" y2="15.3392" gradientUnits="userSpaceOnUse">
<stop stop-color="#457CD6" stop-opacity="0"/>
<stop offset="0.286458" stop-color="#58ADE9" stop-opacity="0"/>
<stop offset="0.570545" stop-color="#AF75EA" stop-opacity="0.3"/>
<stop offset="1" stop-color="#8557E8" stop-opacity="0.8"/>
</linearGradient>
<linearGradient id="paint2_linear_138_1513" x1="0.439452" y1="-0.35482" x2="17.58" y2="16.5128" gradientUnits="userSpaceOnUse">
<stop offset="0.0688789" stop-color="#457CD6" stop-opacity="0"/>
<stop offset="0.286458" stop-color="#58ADE9" stop-opacity="0"/>
<stop offset="0.466157" stop-color="#B594FB" stop-opacity="0"/>
<stop offset="0.634398" stop-color="#D483FB" stop-opacity="0.2"/>
<stop offset="0.899464" stop-color="#BE6CFF" stop-opacity="0.8"/>
<stop offset="1" stop-color="#B969F8" stop-opacity="0.85"/>
</linearGradient>
<linearGradient id="paint3_linear_138_1513" x1="9.45109" y1="4.06423" x2="9.45109" y2="13.0763" gradientUnits="userSpaceOnUse">
<stop stop-color="white"/>
</linearGradient>
</defs>
</svg>
