<?xml version="1.0" encoding="UTF-8"?>
<svg xmlns="http://www.w3.org/2000/svg" xmlns:xlink="http://www.w3.org/1999/xlink" width="45px" height="45px" viewBox="0 0 45 45" version="1.1">
<g id="surface1">
<path style=" stroke:none;fill-rule:nonzero;fill:rgb(99.607843%,26.27451%,31.372549%);fill-opacity:1;" d="M 42.808594 31.316406 L 14.398438 31.316406 L 14.398438 15.085938 L 10.027344 15.085938 L 10.027344 33.550781 C 10.035156 34.152344 10.273438 34.726562 10.683594 35.144531 C 11.089844 35.5625 11.640625 35.792969 12.214844 35.789062 L 37.113281 35.789062 L 31.96875 40.527344 L 4.371094 40.527344 L 4.371094 13.683594 L 32.78125 13.683594 C 33.316406 13.683594 33.832031 13.480469 34.238281 13.113281 L 44.265625 3.90625 C 44.59375 3.609375 44.824219 3.214844 44.933594 2.773438 C 45.042969 2.335938 45.019531 1.871094 44.867188 1.445312 C 44.695312 1.015625 44.410156 0.652344 44.042969 0.394531 C 43.675781 0.136719 43.246094 0 42.804688 0 L 12.214844 0 C 11.640625 -0.00390625 11.089844 0.226562 10.683594 0.644531 C 10.273438 1.0625 10.035156 1.636719 10.027344 2.238281 L 10.027344 7.804688 L 14.398438 7.804688 L 14.398438 4.472656 L 37.109375 4.472656 L 31.96875 9.207031 L 2.1875 9.207031 C 1.613281 9.203125 1.0625 9.433594 0.652344 9.855469 C 0.242188 10.273438 0.0078125 10.847656 0 11.449219 L 0 42.761719 C 0.0117188 43.363281 0.246094 43.9375 0.65625 44.355469 C 1.0625 44.773438 1.613281 45.003906 2.1875 45 L 32.78125 45 C 33.316406 45 33.832031 44.796875 34.238281 44.429688 L 44.265625 35.222656 C 44.589844 34.925781 44.824219 34.53125 44.929688 34.09375 C 45.039062 33.65625 45.015625 33.191406 44.863281 32.765625 C 44.695312 32.339844 44.410156 31.972656 44.046875 31.714844 C 43.679688 31.457031 43.25 31.316406 42.808594 31.316406 Z M 42.808594 31.316406 "/>
</g>
</svg>
