<svg width="41" height="43" viewBox="0 0 41 43" fill="none" xmlns="http://www.w3.org/2000/svg">
<path d="M18.2904 42.6219C12.5294 41.4142 7.04602 37.4768 3.47113 31.9815C1.9011 29.578 0.983131 26.6673 0.620832 22.9588C0.548293 22.2227 0.5 17.3314 0.5 10.8577V-0.00012207H40.2475L40.1992 11.4495C40.1631 21.4377 40.1267 23.0441 39.9576 24.1552C39.5229 26.8605 38.7981 29.1915 37.9044 30.7979C34.6074 36.7039 28.4477 41.3906 22.3605 42.6339C20.8992 42.9359 19.7396 42.9238 18.2904 42.6219V42.6219ZM22.0587 41.3538C26.6602 40.4841 31.7811 37.0903 35.0301 32.7665C37.1075 30.0007 38.0131 27.875 38.6179 24.2518C38.8111 23.1407 38.8353 21.8242 38.8715 12.162L38.9198 1.32844H1.70773V10.3625C1.70773 15.3263 1.76735 20.3023 1.82856 21.4135C2.0581 25.0851 2.58953 27.404 3.76089 29.7712C6.35759 35.0377 12.2154 39.7957 17.7719 41.1725C19.8121 41.6797 20.2227 41.6919 22.0587 41.3538Z" fill="#0DA4EF"/>
<path d="M18.87 36.4141C16.1042 35.8102 13.4471 34.3005 11.1282 32.0057C8.60422 29.5177 7.27546 27.0661 6.71979 23.9137C6.51449 22.7904 6.29707 17.2703 6.45408 17.2703C6.49045 17.2703 10.935 20.5554 16.3216 24.5773C22.9644 29.529 26.1891 31.8722 26.3219 31.8239C26.4427 31.7875 26.8292 31.4977 27.1915 31.1716C27.7953 30.6281 27.8317 30.5555 27.6504 30.4106C27.5296 30.3262 22.7106 26.727 16.9375 22.4033L6.43003 14.5532L6.41791 10.3622V6.15967H34.1964V13.1763C34.1964 18.7807 34.1603 20.1693 34.0516 20.0725C33.9671 20.0129 30.4284 17.3671 26.1891 14.2028L18.4835 8.44217L16.8409 8.47854L15.1866 8.51471L24.6433 15.5681L34.1001 22.6215L34.0156 23.2972C33.5929 26.8481 32.2522 29.3965 29.3174 32.2104C27.0588 34.3965 24.4259 35.8578 21.7326 36.4135C20.7179 36.6315 19.8967 36.6315 18.87 36.4141V36.4141Z" fill="#0DA4EF"/>
</svg>
