<?xml version="1.0" encoding="UTF-8"?>
<svg xmlns="http://www.w3.org/2000/svg" xmlns:xlink="http://www.w3.org/1999/xlink" width="45px" height="45px" viewBox="0 0 45 45" version="1.1">
<g id="surface1">
<path style=" stroke:none;fill-rule:nonzero;fill:rgb(23.529412%,75.686275%,58.039216%);fill-opacity:1;" d="M 44.101562 22.476562 C 44.101562 34.394531 34.4375 44.054688 22.523438 44.054688 C 10.605469 44.054688 0.945312 34.394531 0.945312 22.476562 C 0.945312 10.5625 10.605469 0.898438 22.523438 0.898438 C 34.4375 0.898438 44.101562 10.5625 44.101562 22.476562 Z M 44.101562 22.476562 "/>
<path style=" stroke:none;fill-rule:nonzero;fill:rgb(100%,100%,100%);fill-opacity:1;" d="M 32.617188 26.523438 L 32.554688 26.589844 C 32.164062 26.980469 31.699219 27.292969 31.183594 27.496094 L 31.15625 27.496094 C 30.683594 27.679688 30.179688 27.773438 29.675781 27.773438 C 28.933594 27.789062 28.203125 27.628906 27.53125 27.308594 L 27.492188 27.308594 L 27.390625 27.261719 L 27.363281 27.246094 C 26.742188 26.914062 26.234375 26.40625 25.898438 25.785156 L 25.835938 25.671875 L 24.460938 27.144531 C 24.460938 27.144531 24.1875 28.550781 24.066406 29.242188 L 24.066406 29.285156 L 24.097656 29.316406 L 24.117188 29.339844 C 25.511719 30.871094 27.484375 31.738281 29.554688 31.738281 L 29.667969 31.742188 L 29.757812 31.746094 C 31.113281 31.746094 32.445312 31.402344 33.628906 30.742188 L 33.664062 30.726562 C 34.316406 30.355469 34.914062 29.898438 35.4375 29.363281 L 35.5 29.296875 Z M 32.617188 26.523438 "/>
<path style=" stroke:none;fill-rule:nonzero;fill:rgb(100%,100%,100%);fill-opacity:1;" d="M 13.246094 19.710938 L 13.246094 19.738281 L 13.804688 21.828125 L 13.917969 21.648438 C 14.523438 20.777344 15.441406 20.167969 16.480469 19.964844 L 16.523438 19.964844 C 16.886719 19.890625 17.261719 19.863281 17.636719 19.882812 C 18.199219 19.917969 18.742188 20.078125 19.238281 20.347656 L 19.277344 20.371094 C 19.957031 20.753906 20.558594 21.261719 21.050781 21.871094 L 21.132812 21.972656 L 22.445312 20.125 L 22.863281 18.171875 L 22.820312 18.136719 L 22.671875 18.003906 C 21.8125 17.210938 20.792969 16.617188 19.683594 16.253906 C 19.085938 16.074219 18.464844 15.976562 17.84375 15.964844 L 17.816406 15.964844 C 16.40625 15.96875 15.027344 16.324219 13.789062 16.996094 L 13.746094 17.019531 L 13.195312 19.5 Z M 13.246094 19.710938 "/>
<path style=" stroke:none;fill-rule:nonzero;fill:rgb(100%,100%,100%);fill-opacity:1;" d="M 25.546875 25.042969 L 25.546875 25.007812 C 25.554688 24.851562 25.519531 24.25 25.511719 23.898438 L 25.519531 23.804688 C 25.5 22.875 25.804688 21.964844 26.382812 21.234375 L 26.402344 21.207031 C 26.488281 21.101562 26.574219 21 26.667969 20.902344 C 27.421875 20.125 28.457031 19.683594 29.542969 19.683594 C 29.714844 19.683594 29.890625 19.691406 30.058594 19.710938 L 30.085938 19.710938 C 30.976562 19.828125 31.804688 20.230469 32.449219 20.859375 L 32.515625 20.925781 L 35.292969 18.125 L 35.226562 18.058594 C 33.820312 16.695312 31.976562 15.886719 30.023438 15.761719 L 29.996094 15.761719 L 29.46875 15.738281 C 28.296875 15.726562 27.136719 15.953125 26.050781 16.398438 C 25.335938 16.703125 24.671875 17.132812 24.105469 17.664062 L 24.074219 17.691406 L 24.039062 17.691406 L 24.039062 17.707031 L 24.015625 17.726562 L 23.984375 17.753906 C 23.785156 17.945312 23.601562 18.152344 23.4375 18.375 L 23.4375 18.390625 L 22.984375 20.347656 L 21.503906 22.390625 L 21.503906 23.820312 C 21.492188 25.398438 20.582031 26.828125 19.15625 27.507812 L 19.128906 27.523438 C 18.609375 27.757812 18.046875 27.878906 17.472656 27.882812 C 15.222656 27.898438 13.375 26.117188 13.3125 23.867188 L 13.292969 22.535156 L 13.296875 22.449219 L 12.570312 19.59375 L 13.183594 16.941406 L 13.117188 12.78125 L 9.09375 11.359375 L 9.246094 20.566406 L 9.246094 20.605469 L 9.300781 23.882812 C 9.300781 23.992188 9.304688 24.105469 9.316406 24.21875 C 9.308594 24.238281 9.308594 24.257812 9.308594 24.277344 C 9.46875 26.527344 10.570312 28.605469 12.34375 30 L 12.371094 30.023438 C 13.832031 31.183594 15.652344 31.808594 17.519531 31.800781 L 17.8125 31.796875 L 17.875 31.800781 C 19.746094 31.796875 21.546875 31.09375 22.925781 29.832031 L 22.949219 29.808594 C 23.140625 29.628906 23.320312 29.433594 23.496094 29.230469 L 23.507812 29.214844 L 23.941406 26.914062 L 25.527344 25.09375 Z M 25.546875 25.042969 "/>
</g>
</svg>
