<svg width="45" height="45" viewBox="0 0 45 45" fill="none" xmlns="http://www.w3.org/2000/svg">
<path d="M22.6264 44.1391C34.7354 44.1391 44.5517 34.4417 44.5517 22.4793C44.5517 10.5168 34.7354 0.819397 22.6264 0.819397C10.5174 0.819397 0.701172 10.5168 0.701172 22.4793C0.701172 34.4417 10.5174 44.1391 22.6264 44.1391Z" fill="#F0827D"/>
<path d="M22.6934 40.6279C32.9754 40.6279 41.3106 32.4957 41.3106 22.4641C41.3106 12.4325 32.9754 4.30023 22.6934 4.30023C12.4114 4.30023 4.07617 12.4325 4.07617 22.4641C4.07617 32.4957 12.4114 40.6279 22.6934 40.6279Z" fill="white"/>
<path d="M22.7431 39.7637C32.4441 39.7637 40.3084 32.065 40.3084 22.5682C40.3084 13.0713 32.4441 5.37262 22.7431 5.37262C13.042 5.37262 5.17773 13.0713 5.17773 22.5682C5.17773 32.065 13.042 39.7637 22.7431 39.7637Z" fill="#F0827D"/>
<path fill-rule="evenodd" clip-rule="evenodd" d="M23.7098 16.0788C23.7098 15.7382 23.464 15.462 23.1607 15.462C23.1607 15.462 23.1604 15.462 23.1601 15.462C22.8571 15.462 22.6113 15.7382 22.6113 16.0788C22.6113 18.5643 22.6113 27.8338 22.6113 30.3196C22.6113 30.6603 22.8571 30.9364 23.1601 30.9364C23.1604 30.9364 23.1607 30.9364 23.1607 30.9364C23.464 30.9364 23.7098 30.6603 23.7098 30.3196C23.7098 27.8338 23.7098 18.5643 23.7098 16.0788V16.0788Z" fill="white"/>
<path fill-rule="evenodd" clip-rule="evenodd" d="M21.4912 27.8149C21.1881 27.8147 20.9421 28.0906 20.9419 28.4312C20.9419 28.4312 20.9419 28.4316 20.9419 28.432C20.9416 28.7723 21.1872 29.0486 21.4903 29.0489C22.3336 29.0497 23.9384 29.0512 24.7817 29.052C25.0849 29.0523 25.3309 28.7764 25.3311 28.436C25.3311 28.4357 25.3311 28.4353 25.3311 28.4353C25.3314 28.0947 25.0858 27.8183 24.7826 27.818C23.9393 27.8172 22.3345 27.8157 21.4912 27.8149V27.8149Z" fill="white"/>
<path fill-rule="evenodd" clip-rule="evenodd" d="M18.7784 19.7474C18.475 19.7471 18.2292 20.023 18.229 20.3637C18.229 20.3637 18.229 20.3641 18.229 20.3644C18.2287 20.7047 18.4741 20.9811 18.7775 20.9814C20.5009 20.983 25.7906 20.988 27.514 20.9896C27.8171 20.9898 28.0631 20.7139 28.0634 20.3736C28.0634 20.3733 28.0634 20.3729 28.0634 20.3729C28.0637 20.0322 27.818 19.7558 27.5149 19.7556C25.7915 19.7539 20.5018 19.749 18.7784 19.7474V19.7474Z" fill="white"/>
<path fill-rule="evenodd" clip-rule="evenodd" d="M20.5883 16.6301C20.3737 16.3895 20.0261 16.3899 19.8119 16.6311C19.8119 16.6311 19.8117 16.6313 19.8114 16.6316C19.5975 16.8725 19.5978 17.263 19.8124 17.5036C20.9946 18.8287 24.5389 22.8018 25.7211 24.127C25.9357 24.3676 26.2833 24.3671 26.4973 24.1263C26.4975 24.126 26.4978 24.1257 26.4978 24.1257C26.712 23.8846 26.7116 23.4941 26.497 23.2535C25.3148 21.9283 21.7705 17.9552 20.5883 16.6301V16.6301Z" fill="white"/>
<path fill-rule="evenodd" clip-rule="evenodd" d="M19.8204 23.2638C19.6064 23.5051 19.607 23.8956 19.8218 24.1361C19.8218 24.1361 19.822 24.1363 19.8222 24.1366C20.0368 24.3768 20.3844 24.3761 20.5985 24.1349C21.7773 22.806 25.3116 18.8216 26.4904 17.4927C26.7045 17.2514 26.7038 16.8609 26.4893 16.6207C26.489 16.6205 26.4888 16.6202 26.4888 16.6202C26.274 16.3797 25.9264 16.3804 25.7124 16.6217C24.5335 17.9506 20.9992 21.9349 19.8204 23.2638V23.2638Z" fill="white"/>
</svg>
