<svg width="41" height="44" viewBox="0 0 41 44" fill="none" xmlns="http://www.w3.org/2000/svg">
<path d="M39.7501 8.71497C39.3183 7.08032 37.9304 5.44567 35.4321 3.62597C33.4274 2.17637 31.2992 1.34363 29.6029 1.34363C29.2636 1.34363 28.9552 1.37447 28.6468 1.43616C27.8757 1.59037 27.1972 2.14553 26.7654 2.97828C26.2411 3.96523 26.1177 5.29146 26.457 6.09336C26.5804 6.3401 26.7346 6.64852 26.9196 6.92611C25.285 7.91306 24.3597 8.19065 24.2363 8.22149C28.4926 9.64024 32.0395 12.6011 34.2601 16.4564L34.291 16.0863C34.3835 15.0685 34.6919 13.8965 35.1237 12.6936C35.5555 12.817 35.9873 12.8787 36.4191 12.8787C37.5603 12.8787 38.5472 12.4161 39.1641 11.5833C39.7809 10.7506 40.0276 9.64024 39.7501 8.71497Z" fill="#5E12A0"/>
<path d="M35.3093 11.799C38.116 12.57 39.2571 10.4111 38.887 8.96146C38.4861 7.51187 37.1907 6.03143 34.9083 4.36594C32.626 2.70045 30.3128 2.02192 28.8324 2.33034C27.352 2.63877 26.9202 4.89026 27.2903 5.75385C27.4445 6.09312 27.7837 6.5866 28.2464 7.14176C27.6604 7.54271 27.1052 7.85114 26.6426 8.12872C29.4801 9.39326 31.9475 11.3672 33.798 13.8346C34.0139 13.0018 34.3223 12.2616 34.5999 11.6139C34.8158 11.6448 35.0626 11.7064 35.3093 11.799Z" fill="url(#paint0_radial_133_1383)"/>
<path d="M19.239 42.0251C28.7609 42.0251 36.4799 34.3062 36.4799 24.7842C36.4799 15.2622 28.7609 7.54327 19.239 7.54327C9.71698 7.54327 1.99805 15.2622 1.99805 24.7842C1.99805 34.3062 9.71698 42.0251 19.239 42.0251Z" fill="url(#paint1_radial_133_1383)"/>
<path d="M37.4691 7.54308C35.1251 5.07569 33.1512 4.428 30.7763 3.90367C28.9258 3.47188 29.4193 2.42324 31.6708 2.63913C30.5913 2.26903 29.5735 2.1765 28.8333 2.33071C27.3528 2.63913 26.921 4.89063 27.2912 5.75422C27.4454 6.09349 27.7846 6.58696 28.2473 7.14213C27.4145 7.69729 26.7051 8.09824 26.1191 8.40667C26.3967 8.53004 26.736 8.68425 27.1369 8.90015C28.1856 9.45531 29.3268 10.3806 29.3268 10.3806C27.5996 8.90015 27.9697 8.22161 30.3446 6.55612C31.0848 6.0318 32.4418 6.09349 33.7064 6.74118C34.9709 7.38887 36.4513 9.02352 36.4513 9.02352L35.0326 11.7376C35.1251 11.7685 35.2177 11.7993 35.3102 11.8302C36.2046 12.0769 36.914 12.0152 37.4691 11.7993C38.1168 11.3984 39.8132 10.0413 37.4691 7.54308Z" fill="#A98698" fill-opacity="0.6"/>
<path d="M30.7409 5.3839C31.3578 5.63064 32.1597 6.06244 33.1466 6.71013C34.3187 7.48119 35.3365 8.34478 35.9841 9.02331C34.9047 10.4421 34.1953 12.3851 33.7635 13.7422C33.9794 14.0506 34.2261 14.359 34.442 14.6675C34.6579 13.8964 35.028 12.7552 35.5215 11.6141C35.6449 11.6449 35.7991 11.6449 35.9533 11.6449C36.3234 11.6449 36.7552 11.5832 37.0945 11.3056C37.3412 11.1206 37.6188 10.7813 37.588 10.1645C37.588 9.57847 37.1253 8.83826 36.1692 7.94382C35.4907 7.29613 34.5654 6.58676 33.6401 5.93907C30.9877 4.18105 29.1371 3.68757 28.3044 4.52032C27.7492 5.07548 27.8109 5.75401 27.996 6.24749C27.009 6.89518 26.1763 7.35782 25.6211 7.66624C25.9912 7.78961 26.3305 7.94382 26.7006 8.09804C27.6875 7.57372 29.1063 6.67929 30.7409 5.3839ZM36.5702 9.79437C36.6627 9.94858 36.6935 10.1028 36.6935 10.1953C36.6935 10.4729 36.601 10.5654 36.5393 10.6271C36.4159 10.7196 36.1692 10.7813 35.9533 10.7813C36.1384 10.4112 36.3543 10.1028 36.5702 9.79437ZM28.9521 5.19885C29.0446 5.10632 29.2913 5.04464 29.6923 5.10632C29.3839 5.35306 29.0754 5.56896 28.767 5.78486C28.7362 5.56896 28.767 5.35306 28.9521 5.19885Z" fill="#5E12A0"/>
<path d="M19.2411 6.52527C9.15566 6.52527 0.982422 14.6985 0.982422 24.784C0.982422 34.8694 9.15566 43.0427 19.2411 43.0427C29.3266 43.0427 37.4998 34.8694 37.4998 24.784C37.4998 14.6985 29.2958 6.52527 19.2411 6.52527ZM19.2411 42.0249C9.71083 42.0249 2.00022 34.3143 2.00022 24.784C2.00022 15.2537 9.71083 7.54307 19.2411 7.54307C28.7714 7.54307 36.482 15.2537 36.482 24.784C36.482 34.3143 28.7406 42.0249 19.2411 42.0249Z" fill="#5E12A0"/>
<path d="M19.239 42.0251C28.7609 42.0251 36.4799 34.3062 36.4799 24.7842C36.4799 15.2622 28.7609 7.54327 19.239 7.54327C9.71698 7.54327 1.99805 15.2622 1.99805 24.7842C1.99805 34.3062 9.71698 42.0251 19.239 42.0251Z" fill="url(#paint2_linear_133_1383)"/>
<path d="M19.1172 39.9275C9.7103 38.4163 3.32592 29.5645 4.86804 20.1576C5.54658 15.9938 7.64386 12.4469 10.6047 9.88702C6.28679 12.3853 3.07918 16.734 2.21559 22.0389C0.704315 31.4459 7.0887 40.2976 16.4648 41.8089C21.708 42.6725 26.7662 41.0379 30.4981 37.8303C27.198 39.7425 23.1884 40.5752 19.1172 39.9275Z" fill="#A98698" fill-opacity="0.6"/>
<path d="M21.9837 7.78947C17.6349 7.0801 13.4095 8.06705 9.95517 10.2569C9.89348 10.3186 9.8318 10.3802 9.8318 10.3802C11.158 9.57833 13.1011 8.86896 13.1011 8.86896C8.10462 11.7681 6.5625 15.0683 6.5625 15.0683C8.50557 11.3055 14.2114 8.65306 18.6836 8.46801C23.1557 8.28295 26.0858 9.60917 29.6635 12.4775C33.2412 15.3767 35.4002 21.2985 35.1843 25.9865C34.9992 30.6745 32.5318 34.4682 32.5318 34.4682C34.2282 32.2784 35.246 30.6746 35.8936 29.0399C36.017 28.5464 36.1404 28.0529 36.2021 27.5286C37.7442 18.1525 31.3906 9.30075 21.9837 7.78947Z" fill="url(#paint3_linear_133_1383)"/>
<path d="M35.6156 24.6299C35.6156 33.6667 28.2751 41.0072 19.2382 41.0072C10.2014 41.0072 2.83008 33.6667 2.83008 24.6299H35.6156Z" fill="url(#paint4_linear_133_1383)"/>
<path d="M34.3214 24.6299C34.3214 33.4508 27.351 40.6679 18.5918 41.0072H19.2395C28.2763 41.0072 35.6168 33.6667 35.6168 24.6299H34.3214Z" fill="url(#paint5_linear_133_1383)"/>
<path d="M5.14326 24.6299H2.83008C2.83008 33.6667 10.1706 41.0072 19.2074 41.0072C19.6084 41.0072 19.9785 41.0072 20.3486 40.9764C11.8669 40.3595 5.14326 33.2658 5.14326 24.6299Z" fill="url(#paint6_linear_133_1383)"/>
<path d="M35.5847 24.7839C35.5847 22.9025 32.3154 21.823 27.9667 21.4529C24.8207 21.2062 21.644 21.5146 18.0045 22.6249C14.8586 23.5502 12.0211 23.396 9.95468 23.1492C5.35916 22.6249 2.83008 22.5632 2.83008 24.7839C2.83008 27.9915 9.36867 32.001 19.1766 30.6131C24.1422 29.9037 26.7021 28.4541 29.6321 27.4672C32.8089 26.4185 35.5847 26.4494 35.5847 24.7839Z" fill="url(#paint7_linear_133_1383)"/>
<path d="M24.6078 17.0117C26.141 17.0117 27.3837 15.769 27.3837 14.2358C27.3837 12.7027 26.141 11.46 24.6078 11.46C23.0747 11.46 21.832 12.7027 21.832 14.2358C21.832 15.769 23.0747 17.0117 24.6078 17.0117Z" fill="white"/>
<path d="M29.1408 19.0783C29.7881 19.0783 30.3128 18.5537 30.3128 17.9063C30.3128 17.2589 29.7881 16.7343 29.1408 16.7343C28.4934 16.7343 27.9688 17.2589 27.9688 17.9063C27.9688 18.5537 28.4934 19.0783 29.1408 19.0783Z" fill="white"/>
<path d="M33.3342 12.0151H33.2725C33.0875 11.9843 32.9641 11.7992 32.995 11.5833C33.2725 10.1646 34.4446 8.8075 34.5062 8.74581C34.6296 8.5916 34.8763 8.5916 34.9997 8.71497C35.1539 8.83834 35.1539 9.08508 35.0306 9.20845C34.9997 9.23929 33.9202 10.5038 33.6735 11.7375C33.6426 11.9226 33.4884 12.0151 33.3342 12.0151Z" fill="url(#paint8_linear_133_1383)"/>
<path d="M29.6023 1.34372C31.3295 1.34372 33.4576 2.17646 35.4315 3.62606C37.9298 5.44576 39.3177 7.04957 39.7495 8.71506C39.9962 9.67117 39.7803 10.7507 39.1635 11.5526C38.5158 12.3853 37.5597 12.8479 36.4185 12.8479C36.0175 12.8479 35.5857 12.7863 35.1231 12.6629C34.8455 13.3723 34.6296 14.0816 34.4754 14.7602C36.3568 17.6285 37.4671 21.0829 37.4671 24.784C37.4671 34.8694 29.2939 43.0427 19.2084 43.0427C9.12294 43.0427 0.980537 34.8694 0.980537 24.784C0.980537 14.6985 9.15378 6.52525 19.2393 6.52525C21.4599 6.52525 23.588 6.9262 25.5619 7.66642C25.9321 7.48136 26.3947 7.23462 26.919 6.9262C26.734 6.64861 26.5489 6.37103 26.4564 6.09345C26.1171 5.26071 26.2405 3.96532 26.7648 2.97837C27.1966 2.17646 27.8443 1.6213 28.6462 1.43625C28.9238 1.37456 29.263 1.34372 29.6023 1.34372ZM29.6023 0.819397C29.2322 0.819397 28.8621 0.850239 28.5228 0.942767C27.5975 1.15866 26.7956 1.77551 26.2713 2.76247C25.6853 3.90364 25.5311 5.38408 25.9321 6.34019C25.9937 6.46356 26.0554 6.61777 26.148 6.77198C25.9321 6.89535 25.7162 7.01872 25.5003 7.11125C23.4647 6.40188 21.3674 6.03177 19.2084 6.03177C16.6793 6.03177 14.2119 6.52525 11.8988 7.5122C9.64726 8.46832 7.6425 9.82538 5.91532 11.5526C4.18815 13.2797 2.83108 15.2845 1.87497 17.536C0.88801 19.8492 0.394531 22.3166 0.394531 24.8456C0.394531 27.3747 0.88801 29.8421 1.87497 32.1553C2.83108 34.4068 4.18815 36.4116 5.91532 38.1387C7.6425 39.8659 9.64726 41.223 11.8988 42.1791C14.2119 43.166 16.6793 43.6595 19.2084 43.6595C21.7375 43.6595 24.2049 43.166 26.5181 42.1791C28.7696 41.223 30.7743 39.8659 32.5015 38.1387C34.2287 36.4116 35.5857 34.4068 36.5419 32.1553C37.5288 29.8421 38.0223 27.3747 38.0223 24.8456C38.0223 21.2371 37.0045 17.7519 35.0614 14.7293C35.1539 14.2667 35.3082 13.8041 35.4624 13.3414C35.7708 13.4031 36.1101 13.4339 36.4185 13.4339C37.7139 13.4339 38.855 12.9096 39.5953 11.9227C40.3046 10.9974 40.5822 9.70201 40.2738 8.62253C39.7803 6.83367 38.3616 5.13734 35.7399 3.25595C33.6735 1.68298 31.422 0.819397 29.6023 0.819397Z" fill="white"/>
<path d="M18.096 37.6452C18.5728 37.6452 18.9596 37.2584 18.9596 36.7816C18.9596 36.3048 18.5728 35.918 18.096 35.918C17.6192 35.918 17.2324 36.3048 17.2324 36.7816C17.2324 37.2584 17.6192 37.6452 18.096 37.6452Z" fill="white" fill-opacity="0.2"/>
<path d="M17.6063 37.3368C17.2671 36.9975 17.2671 36.4423 17.6063 36.1031C17.668 36.0414 17.7297 36.0105 17.7914 35.9489C17.668 35.9797 17.5755 36.0414 17.483 36.1339C17.1437 36.4732 17.1437 37.0283 17.483 37.3676C17.7605 37.6452 18.1923 37.7069 18.5316 37.5218C18.2232 37.6452 17.8531 37.5835 17.6063 37.3368Z" fill="url(#paint9_linear_133_1383)"/>
<path d="M18.4077 36.5348C18.5098 36.5348 18.5928 36.4519 18.5928 36.3498C18.5928 36.2477 18.5098 36.1647 18.4077 36.1647C18.3056 36.1647 18.2227 36.2477 18.2227 36.3498C18.2227 36.4519 18.3056 36.5348 18.4077 36.5348Z" fill="white" fill-opacity="0.3"/>
<path d="M22.6038 37.2135C23.0806 37.2135 23.4674 36.8267 23.4674 36.3499C23.4674 35.8731 23.0806 35.4863 22.6038 35.4863C22.127 35.4863 21.7402 35.8731 21.7402 36.3499C21.7402 36.8267 22.127 37.2135 22.6038 37.2135Z" fill="white" fill-opacity="0.2"/>
<path d="M22.1063 36.9048C21.7671 36.5655 21.7671 36.0104 22.1063 35.6711C22.168 35.6094 22.2297 35.5786 22.2914 35.5169C22.168 35.5477 22.0755 35.6094 21.983 35.702C21.6437 36.0412 21.6437 36.5964 21.983 36.9357C22.2605 37.2132 22.6923 37.2749 23.0316 37.0899C22.7232 37.2132 22.3531 37.1516 22.1063 36.9048Z" fill="url(#paint10_linear_133_1383)"/>
<path d="M22.9097 36.1031C23.0118 36.1031 23.0947 36.0201 23.0947 35.918C23.0947 35.8159 23.0118 35.733 22.9097 35.733C22.8076 35.733 22.7246 35.8159 22.7246 35.918C22.7246 36.0201 22.8076 36.1031 22.9097 36.1031Z" fill="white" fill-opacity="0.3"/>
<path d="M20.3821 39.2182C20.7398 39.2182 21.0298 38.9283 21.0298 38.5705C21.0298 38.2128 20.7398 37.9229 20.3821 37.9229C20.0243 37.9229 19.7344 38.2128 19.7344 38.5705C19.7344 38.9283 20.0243 39.2182 20.3821 39.2182Z" fill="white" fill-opacity="0.2"/>
<path d="M20.012 38.9712C19.7652 38.7245 19.7652 38.2927 20.012 38.046C20.0428 38.0151 20.1045 37.9843 20.1353 37.9534C20.0428 37.9843 19.9811 38.046 19.9194 38.1076C19.6727 38.3544 19.6727 38.7862 19.9194 39.0329C20.1353 39.2488 20.4438 39.2797 20.7213 39.1254C20.4746 39.218 20.197 39.1563 20.012 38.9712Z" fill="url(#paint11_linear_133_1383)"/>
<path d="M20.596 38.3547C20.6642 38.3547 20.7194 38.2995 20.7194 38.2313C20.7194 38.1632 20.6642 38.108 20.596 38.108C20.5279 38.108 20.4727 38.1632 20.4727 38.2313C20.4727 38.2995 20.5279 38.3547 20.596 38.3547Z" fill="white" fill-opacity="0.3"/>
<path d="M24.3567 38.7554C24.7144 38.7554 25.0044 38.4655 25.0044 38.1077C25.0044 37.7499 24.7144 37.46 24.3567 37.46C23.9989 37.46 23.709 37.7499 23.709 38.1077C23.709 38.4655 23.9989 38.7554 24.3567 38.7554Z" fill="white" fill-opacity="0.2"/>
<path d="M23.9866 38.5087C23.7398 38.262 23.7398 37.8302 23.9866 37.5834C24.0174 37.5526 24.0791 37.5217 24.1099 37.4909C24.0174 37.5217 23.9557 37.5834 23.894 37.6451C23.6473 37.8919 23.6473 38.3237 23.894 38.5704C24.1099 38.7863 24.4184 38.8171 24.6959 38.6629C24.4492 38.7554 24.1716 38.6938 23.9866 38.5087Z" fill="url(#paint12_linear_133_1383)"/>
<path d="M24.5765 37.8918C24.6447 37.8918 24.6999 37.8366 24.6999 37.7684C24.6999 37.7002 24.6447 37.645 24.5765 37.645C24.5083 37.645 24.4531 37.7002 24.4531 37.7684C24.4531 37.8366 24.5083 37.8918 24.5765 37.8918Z" fill="white" fill-opacity="0.3"/>
<path d="M14.4266 37.337C15.2103 37.337 15.8453 36.7019 15.8453 35.9182C15.8453 35.1348 15.2103 34.4995 14.4266 34.4995C13.6432 34.4995 13.0078 35.1348 13.0078 35.9182C13.0078 36.7019 13.6432 37.337 14.4266 37.337Z" fill="white" fill-opacity="0.2"/>
<path d="M13.6249 36.8123C13.0697 36.2572 13.0697 35.3627 13.6249 34.8076C13.7174 34.715 13.8099 34.6534 13.9333 34.5917C13.7482 34.6534 13.594 34.7767 13.4398 34.9001C12.8846 35.4553 12.8846 36.3497 13.4398 36.9049C13.9024 37.3675 14.6118 37.46 15.167 37.1208C14.6427 37.3366 14.0258 37.2441 13.6249 36.8123Z" fill="url(#paint13_linear_133_1383)"/>
<path d="M14.9198 35.4864C15.09 35.4864 15.2282 35.3482 15.2282 35.1779C15.2282 35.0077 15.09 34.8695 14.9198 34.8695C14.7495 34.8695 14.6113 35.0077 14.6113 35.1779C14.6113 35.3482 14.7495 35.4864 14.9198 35.4864Z" fill="white" fill-opacity="0.3"/>
<path d="M27.1043 33.8515C27.888 33.8515 28.523 33.2164 28.523 32.4327C28.523 31.6493 27.888 31.014 27.1043 31.014C26.3209 31.014 25.6855 31.6493 25.6855 32.4327C25.6855 33.2164 26.3209 33.8515 27.1043 33.8515Z" fill="white" fill-opacity="0.2"/>
<path d="M26.2694 33.3271C25.7142 32.7719 25.7142 31.8775 26.2694 31.3223C26.3619 31.2298 26.4545 31.1681 26.5778 31.1064C26.3928 31.1681 26.2386 31.2915 26.0843 31.4149C25.5292 31.97 25.5292 32.8645 26.0843 33.4196C26.547 33.8823 27.2564 33.9748 27.8115 33.6355C27.2872 33.8514 26.7012 33.7589 26.2694 33.3271Z" fill="url(#paint14_linear_133_1383)"/>
<path d="M27.5975 32.0009C27.7677 32.0009 27.9059 31.8627 27.9059 31.6925C27.9059 31.5222 27.7677 31.384 27.5975 31.384C27.4272 31.384 27.2891 31.5222 27.2891 31.6925C27.2891 31.8627 27.4272 32.0009 27.5975 32.0009Z" fill="white" fill-opacity="0.3"/>
<defs>
<radialGradient id="paint0_radial_133_1383" cx="0" cy="0" r="1" gradientUnits="userSpaceOnUse" gradientTransform="translate(38.3245 7.01836) scale(13.7848)">
<stop stop-color="#FFEAFF" stop-opacity="0.6"/>
<stop offset="0.68" stop-color="#A087C9"/>
<stop offset="1" stop-color="#10002F"/>
</radialGradient>
<radialGradient id="paint1_radial_133_1383" cx="0" cy="0" r="1" gradientUnits="userSpaceOnUse" gradientTransform="translate(30.6539 12.898) scale(33.7265)">
<stop stop-color="#FFEAFF" stop-opacity="0.6"/>
<stop offset="0.68" stop-color="#A087C9"/>
<stop offset="1" stop-color="#10002F"/>
</radialGradient>
<linearGradient id="paint2_linear_133_1383" x1="16.4734" y1="41.7805" x2="21.9879" y2="7.75917" gradientUnits="userSpaceOnUse">
<stop stop-color="#81FFFF" stop-opacity="0.6"/>
<stop offset="0.62" stop-color="white" stop-opacity="0"/>
<stop offset="1" stop-color="white" stop-opacity="0"/>
</linearGradient>
<linearGradient id="paint3_linear_133_1383" x1="31.3891" y1="13.0748" x2="17.1325" y2="26.1557" gradientUnits="userSpaceOnUse">
<stop stop-color="white" stop-opacity="0.6"/>
<stop offset="0.29" stop-color="white" stop-opacity="0.6"/>
<stop offset="0.78" stop-color="white" stop-opacity="0"/>
<stop offset="1" stop-color="white" stop-opacity="0"/>
</linearGradient>
<linearGradient id="paint4_linear_133_1383" x1="2.84396" y1="32.809" x2="35.6076" y2="32.809" gradientUnits="userSpaceOnUse">
<stop stop-color="#0002E9"/>
<stop offset="1" stop-color="#FF00C7"/>
</linearGradient>
<linearGradient id="paint5_linear_133_1383" x1="37.1599" y1="26.067" x2="19.3267" y2="42.9204" gradientUnits="userSpaceOnUse">
<stop stop-color="white" stop-opacity="0.6"/>
<stop offset="0.29" stop-color="white" stop-opacity="0.6"/>
<stop offset="0.78" stop-color="white" stop-opacity="0"/>
<stop offset="1" stop-color="white" stop-opacity="0"/>
</linearGradient>
<linearGradient id="paint6_linear_133_1383" x1="2.84396" y1="32.809" x2="20.3724" y2="32.809" gradientUnits="userSpaceOnUse">
<stop stop-color="#000292" stop-opacity="0.7"/>
<stop offset="1" stop-color="#7D00C7" stop-opacity="0.7"/>
</linearGradient>
<linearGradient id="paint7_linear_133_1383" x1="2.86595" y1="26.1444" x2="35.5858" y2="26.1444" gradientUnits="userSpaceOnUse">
<stop stop-color="#000292"/>
<stop offset="1" stop-color="#BE00C7"/>
</linearGradient>
<linearGradient id="paint8_linear_133_1383" x1="35.0497" y1="8.59561" x2="32.6983" y2="12.417" gradientUnits="userSpaceOnUse">
<stop stop-color="white" stop-opacity="0.6"/>
<stop offset="0.29" stop-color="white" stop-opacity="0.6"/>
<stop offset="0.78" stop-color="white" stop-opacity="0"/>
<stop offset="1" stop-color="white" stop-opacity="0"/>
</linearGradient>
<linearGradient id="paint9_linear_133_1383" x1="17.2277" y1="36.8081" x2="18.5326" y2="36.8081" gradientUnits="userSpaceOnUse">
<stop stop-color="white" stop-opacity="0.6"/>
<stop offset="0.29" stop-color="white" stop-opacity="0.6"/>
<stop offset="0.78" stop-color="white" stop-opacity="0"/>
<stop offset="1" stop-color="white" stop-opacity="0"/>
</linearGradient>
<linearGradient id="paint10_linear_133_1383" x1="21.7245" y1="36.3703" x2="23.0294" y2="36.3703" gradientUnits="userSpaceOnUse">
<stop stop-color="white" stop-opacity="0.6"/>
<stop offset="0.29" stop-color="white" stop-opacity="0.6"/>
<stop offset="0.78" stop-color="white" stop-opacity="0"/>
<stop offset="1" stop-color="white" stop-opacity="0"/>
</linearGradient>
<linearGradient id="paint11_linear_133_1383" x1="19.7303" y1="38.5777" x2="20.71" y2="38.5777" gradientUnits="userSpaceOnUse">
<stop stop-color="white" stop-opacity="0.6"/>
<stop offset="0.29" stop-color="white" stop-opacity="0.6"/>
<stop offset="0.78" stop-color="white" stop-opacity="0"/>
<stop offset="1" stop-color="white" stop-opacity="0"/>
</linearGradient>
<linearGradient id="paint12_linear_133_1383" x1="23.6916" y1="38.1139" x2="24.6713" y2="38.1139" gradientUnits="userSpaceOnUse">
<stop stop-color="white" stop-opacity="0.6"/>
<stop offset="0.29" stop-color="white" stop-opacity="0.6"/>
<stop offset="0.78" stop-color="white" stop-opacity="0"/>
<stop offset="1" stop-color="white" stop-opacity="0"/>
</linearGradient>
<linearGradient id="paint13_linear_133_1383" x1="13.0093" y1="35.954" x2="15.1403" y2="35.954" gradientUnits="userSpaceOnUse">
<stop stop-color="white" stop-opacity="0.6"/>
<stop offset="0.29" stop-color="white" stop-opacity="0.6"/>
<stop offset="0.78" stop-color="white" stop-opacity="0"/>
<stop offset="1" stop-color="white" stop-opacity="0"/>
</linearGradient>
<linearGradient id="paint14_linear_133_1383" x1="25.6656" y1="32.4678" x2="27.7967" y2="32.4678" gradientUnits="userSpaceOnUse">
<stop stop-color="white" stop-opacity="0.6"/>
<stop offset="0.29" stop-color="white" stop-opacity="0.6"/>
<stop offset="0.78" stop-color="white" stop-opacity="0"/>
<stop offset="1" stop-color="white" stop-opacity="0"/>
</linearGradient>
</defs>
</svg>
