<?xml version="1.0" encoding="UTF-8" standalone="no"?>
<svg
   xmlns:dc="http://purl.org/dc/elements/1.1/"
   xmlns:cc="http://creativecommons.org/ns#"
   xmlns:rdf="http://www.w3.org/1999/02/22-rdf-syntax-ns#"
   xmlns:svg="http://www.w3.org/2000/svg"
   xmlns="http://www.w3.org/2000/svg"
   xmlns:sodipodi="http://sodipodi.sourceforge.net/DTD/sodipodi-0.dtd"
   xmlns:inkscape="http://www.inkscape.org/namespaces/inkscape"
   id="Layer_1"
   x="0px"
   y="0px"
   viewBox="0 0 40.999999 41.000001"
   xml:space="preserve"
   fill="none"
   version="1.1"
   sodipodi:docname="mapofzones.svg"
   width="41"
   height="41"
   inkscape:version="1.0.2 (e86c8708, 2021-01-15)"><metadata
   id="metadata918"><rdf:RDF><cc:Work
       rdf:about=""><dc:format>image/svg+xml</dc:format><dc:type
         rdf:resource="http://purl.org/dc/dcmitype/StillImage" /><dc:title></dc:title></cc:Work></rdf:RDF></metadata><defs
   id="defs916" /><sodipodi:namedview
   pagecolor="#ffffff"
   bordercolor="#666666"
   borderopacity="1"
   objecttolerance="10"
   gridtolerance="10"
   guidetolerance="10"
   inkscape:pageopacity="0"
   inkscape:pageshadow="2"
   inkscape:window-width="1635"
   inkscape:window-height="1001"
   id="namedview914"
   showgrid="false"
   inkscape:zoom="6.148532"
   inkscape:cx="57.9"
   inkscape:cy="27.15"
   inkscape:window-x="0"
   inkscape:window-y="23"
   inkscape:window-maximized="0"
   inkscape:current-layer="Layer_1" />
   <style
   type="text/css"
   id="style833">
      .st0{fill:#FFFFFF;}
      .st1{fill:#808080;}
      .st2{fill:#CDC366;}
      .st3{fill:#CEB866;}
      .st4{fill:#D0AC67;}
      .st5{fill:#D1A167;}
      .st6{fill:#D38B68;}
      .st7{fill:#D48068;}
      .st8{fill:#D67469;}
      .st9{fill:#D76969;}
      .st10{fill:#5CA97B;}
      .st11{fill:#6BA779;}
      .st12{fill:#7BA677;}
      .st13{fill:#8AA474;}
      .st14{fill:#A9A270;}
      .st15{fill:#B8A06E;}
      .st16{fill:#C89F6B;}
      .st17{fill:#D79D69;}
   </style>
   <g
   id="g911">
      <g
   id="g907">
         <g
   id="g851">
            <circle
   class="st2"
   cx="19.799999"
   cy="1.4"
   id="ellipse835"
   r="1.1" />
            <circle
   class="st3"
   cx="24.299999"
   cy="5.5999999"
   id="ellipse837"
   r="1.2" />
            <ellipse
   class="st4"
   cx="26.700001"
   cy="11.2"
   rx="1.3"
   ry="1.4"
   id="ellipse839" />
            <circle
   class="st5"
   cx="25.4"
   cy="17.299999"
   id="ellipse841"
   r="1.5" />
            <ellipse
   class="st6"
   cx="14.7"
   cy="23"
   rx="1.7"
   ry="1.8"
   id="ellipse843" />
            <circle
   class="st7"
   cx="13.3"
   cy="28.799999"
   id="ellipse845"
   r="1.9" />
            <circle
   class="st8"
   cx="15.4"
   cy="34.599998"
   id="ellipse847"
   r="2" />
            <ellipse
   class="st9"
   cx="19.799999"
   cy="38.900002"
   rx="2.0999999"
   ry="2.2"
   id="ellipse849" />
         </g>
         <g
   id="g869">
            <ellipse
   transform="matrix(0.6987,-0.7154,0.7154,0.6987,5.2202,25.5807)"
   class="st10"
   cx="33"
   cy="6.5999999"
   rx="2.2"
   ry="2.0999999"
   id="ellipse853" />
            <circle
   transform="matrix(0.6987,-0.7154,0.7154,0.6987,0.8715,27.6044)"
   class="st11"
   cx="33.200001"
   cy="12.8"
   id="ellipse855"
   r="2" />
            <circle
   transform="matrix(0.6987,-0.7154,0.7154,0.6987,-3.8367,27.7133)"
   class="st12"
   cx="31"
   cy="18.4"
   id="ellipse857"
   r="1.9" />
            <circle
   transform="matrix(0.6987,-0.7154,0.7154,0.6987,-7.8617,25.1147)"
   class="st13"
   cx="25.9"
   cy="21.9"
   id="ellipse859"
   r="1.8" />
            <ellipse
   transform="matrix(0.6987,-0.7154,0.7154,0.6987,-8.9238,15.77)"
   class="st14"
   cx="14.3"
   cy="18.5"
   rx="1.6"
   ry="1.5"
   id="ellipse861" />
            <ellipse
   transform="matrix(0.6987,-0.7154,0.7154,0.6987,-12.7042,13.0688)"
   class="st15"
   cx="9.1999998"
   cy="21.6"
   rx="1.5"
   ry="1.4"
   id="ellipse863" />
            <circle
   transform="matrix(0.6987,-0.7154,0.7154,0.6987,-17.5035,12.9082)"
   class="st16"
   cx="6.5999999"
   cy="27.200001"
   id="ellipse865"
   r="1.3" />
            <circle
   transform="matrix(0.6987,-0.7154,0.7154,0.6987,-21.8733,14.9178)"
   class="st17"
   cx="6.8000002"
   cy="33.400002"
   id="ellipse867"
   r="1.2" />
         </g>
         <g
   id="g887">
            <ellipse
   transform="matrix(0.9997,-0.02367516,0.02367516,0.9997,-0.4512,0.9226)"
   class="st2"
   cx="38.700001"
   cy="19.5"
   rx="2.2"
   ry="2.0999999"
   id="ellipse871" />
            <circle
   transform="matrix(0.9997,-0.02367516,0.02367516,0.9997,-0.5607,0.8256)"
   class="st3"
   cx="34.599998"
   cy="24.1"
   id="ellipse873"
   r="2" />
            <circle
   transform="matrix(0.9997,-0.02367516,0.02367516,0.9997,-0.6211,0.6953)"
   class="st4"
   cx="29.1"
   cy="26.6"
   id="ellipse875"
   r="1.9" />
            <circle
   transform="matrix(0.9997,-0.02367516,0.02367516,0.9997,-0.5974,0.5511)"
   class="st5"
   cx="23"
   cy="25.5"
   id="ellipse877"
   r="1.8" />
            <ellipse
   transform="matrix(0.9997,-0.02367516,0.02367516,0.9997,-0.349,0.4077)"
   class="st6"
   cx="17"
   cy="14.9"
   rx="1.6"
   ry="1.5"
   id="ellipse879" />
            <circle
   transform="matrix(0.9997,-0.02367516,0.02367516,0.9997,-0.3194,0.2691)"
   class="st7"
   cx="11.2"
   cy="13.6"
   id="ellipse881"
   r="1.4" />
            <circle
   transform="matrix(0.9997,-0.02367516,0.02367516,0.9997,-0.3733,0.1329)"
   class="st8"
   cx="5.4000001"
   cy="15.8"
   id="ellipse883"
   r="1.3" />
            <circle
   transform="matrix(0.9997,-0.02367516,0.02367516,0.9997,-0.4827,0.03513584)"
   class="st9"
   cx="1.2"
   cy="20.4"
   id="ellipse885"
   r="1.2" />
         </g>
         <g
   id="g905">
            <ellipse
   transform="matrix(0.6816,-0.7318,0.7318,0.6816,-13.2183,35.1968)"
   class="st17"
   cx="33.799999"
   cy="32.799999"
   rx="2.0999999"
   ry="2.2"
   id="ellipse889" />
            <circle
   transform="matrix(0.6816,-0.7318,0.7318,0.6816,-15.4562,30.8028)"
   class="st16"
   cx="27.700001"
   cy="33.200001"
   id="ellipse891"
   r="2" />
            <circle
   transform="matrix(0.6816,-0.7318,0.7318,0.6816,-15.7399,25.9697)"
   class="st15"
   cx="22"
   cy="31.1"
   id="ellipse893"
   r="1.9" />
            <ellipse
   transform="matrix(0.6816,-0.7318,0.7318,0.6816,-13.2171,21.7396)"
   class="st14"
   cx="18.4"
   cy="26.1"
   rx="1.7"
   ry="1.8"
   id="ellipse895" />
            <ellipse
   transform="matrix(0.6816,-0.7318,0.7318,0.6816,-3.6552,20.3072)"
   class="st13"
   cx="21.5"
   cy="14.4"
   rx="1.4"
   ry="1.5"
   id="ellipse897" />
            <circle
   transform="matrix(0.6816,-0.7318,0.7318,0.6816,-1.018,16.3247)"
   class="st12"
   cx="18.200001"
   cy="9.3000002"
   id="ellipse899"
   r="1.3" />
            <circle
   transform="matrix(0.6816,-0.7318,0.7318,0.6816,-1.0283,11.3881)"
   class="st11"
   cx="12.6"
   cy="6.9000001"
   id="ellipse901"
   r="1.2" />
            <ellipse
   transform="matrix(0.6816,-0.7318,0.7318,0.6816,-3.2523,6.9719)"
   class="st10"
   cx="6.4000001"
   cy="7.1999998"
   rx="1"
   ry="1.1"
   id="ellipse903" />
         </g>
      </g>
      <circle
   class="st2"
   cx="20"
   cy="20.200001"
   r="1.7"
   id="circle909" />
   </g>
</svg>
