<svg width="40" height="40" viewBox="0 0 40 40" fill="none" xmlns="http://www.w3.org/2000/svg">
<path d="M22.5624 19.7128C22.5624 25.9974 17.5116 31.092 11.2814 31.092C5.05121 31.092 0 25.9962 0 19.7128C0 13.4295 5.05083 8.33334 11.2814 8.33334C17.512 8.33334 22.5624 13.4283 22.5624 19.7128Z" fill="#F2F1F4"/>
<path d="M34.9377 19.7128C34.9377 25.6284 32.4122 30.4257 29.297 30.4257C26.1817 30.4257 23.6562 25.6284 23.6562 19.7128C23.6562 13.7973 26.1813 8.99991 29.2966 8.99991C32.4119 8.99991 34.9373 13.7958 34.9373 19.7128" fill="#F2F1F4"/>
<path d="M40.0005 19.7128C40.0005 25.0117 39.1125 29.3099 38.0167 29.3099C36.9209 29.3099 36.0332 25.0128 36.0332 19.7128C36.0332 14.4128 36.9213 10.1157 38.0167 10.1157C39.1121 10.1157 40.0005 14.4124 40.0005 19.7128Z" fill="#F2F1F4"/>
</svg>
