<svg width="42" height="26" viewBox="0 0 42 26" fill="none" xmlns="http://www.w3.org/2000/svg">
<path d="M12.6238 7.46923C11.9382 8.52014 11.2465 9.58351 10.8469 10.7511C10.4472 11.9186 10.3619 13.2178 10.884 14.344C11.4811 15.6322 12.7741 16.5286 13.6467 17.6787C14.2334 18.4519 14.6446 19.3573 15.4215 19.9755C15.8447 20.312 16.3559 20.5453 16.8829 20.7228C19.0956 21.4686 21.6216 21.2557 23.7736 20.3733C25.9256 19.4914 27.7211 17.9818 29.1022 16.238C29.5128 15.7195 29.8922 15.1751 30.1579 14.5833C30.6959 13.3843 30.7413 12.0368 30.4996 10.7601C30.258 9.48331 29.7419 8.26439 29.1842 7.0724C28.8616 6.38292 28.516 5.68846 27.9797 5.12013C26.9332 4.01139 25.3127 3.52831 23.761 3.15641C22.4953 2.8528 21.2033 2.58758 19.895 2.60453C16.4406 2.6504 14.2547 4.96858 12.6238 7.46923Z" fill="#FFBA2E"/>
<path d="M12.933 14.1897C13.3917 15.3892 14.173 16.466 15.0451 17.4566C15.349 17.8021 15.67 18.1426 16.0718 18.3919C16.3753 18.5803 16.717 18.7109 17.0614 18.8266C19.5322 19.6576 22.4633 19.7209 24.6568 18.3924C25.5895 17.8275 26.3369 17.0483 27.0729 16.2791C27.5113 15.8204 27.9531 15.3583 28.285 14.8303C29.028 13.6498 29.1674 12.2055 28.8766 10.871C28.5857 9.53589 27.8913 8.29803 27.0581 7.16885C26.425 6.31087 25.6803 5.4838 24.6852 4.98776C24.074 4.68316 23.3916 4.51565 22.7066 4.39999C20.9072 4.09738 18.957 4.16269 17.3725 4.99673C15.9947 5.7226 15.0341 6.94501 14.1167 8.13052C12.6902 9.9751 12.0905 11.9877 12.933 14.1897Z" fill="#79FFCE"/>
<path d="M11.3674 1.40124C11.0317 1.2108 10.6321 1.13054 10.2373 1.11508C9.06673 1.06872 7.8874 1.60564 7.22475 2.48705C6.56209 3.36846 6.43744 4.56444 6.90654 5.54356C5.68402 6.02165 4.30458 6.66775 4.0416 7.85675C3.76495 9.10957 5.05581 10.332 6.45165 10.4491C7.84749 10.5663 9.18866 9.82446 10.0963 8.85083C11.0219 9.33241 11.9481 9.81449 12.8737 10.2961C13.9645 10.8639 15.0569 11.4322 16.0924 12.0803C17.0022 12.6502 17.865 13.2793 18.7266 13.908C19.2564 14.2943 19.7857 14.6807 20.3155 15.067C21.8103 16.1573 23.3111 17.2531 24.6129 18.5323C25.0962 19.0075 25.5511 19.507 26.0481 19.9706C25.4839 20.5065 25.0432 21.2349 25.1831 21.9667C25.375 22.9678 26.5145 23.5376 27.527 23.9629C27.8797 24.1109 28.2449 24.262 28.6331 24.2705C29.3149 24.2849 29.9294 23.8437 30.2673 23.3033C30.6052 22.7629 30.7189 22.1338 30.8272 21.5201C32.3532 21.4966 33.9179 20.6446 34.3537 19.3111C34.7895 17.9775 33.7375 16.3218 32.2132 16.2565C31.679 16.2336 31.1541 16.3892 30.6643 16.5856C30.4406 16.6753 30.2039 16.7765 29.9622 16.7406C29.7463 16.7087 29.5686 16.5721 29.4046 16.4395C28.0503 15.3482 26.772 14.1787 25.5795 12.9403C24.6014 11.9243 23.6517 10.84 22.3685 10.162C22.0437 9.99047 21.6998 9.8464 21.3926 9.64998C21.1394 9.48845 20.9147 9.29353 20.6873 9.10259C19.3024 7.942 17.7791 6.91901 16.1547 6.05406C15.321 5.61036 14.4604 5.20804 13.5779 4.8506C12.7518 4.51608 12.5309 4.41388 12.4527 3.58831C12.3767 2.78019 12.1854 1.86488 11.3674 1.40124Z" fill="white"/>
<path d="M7.92461 17.5546C6.8262 16.3646 4.62828 16.2355 3.33906 17.2535C2.04983 18.2715 1.85683 20.2312 2.88745 21.4701C3.91806 22.7089 5.9935 23.0788 7.48557 22.3261C7.78574 23.1726 8.2029 24.0071 8.88743 24.6407C9.57195 25.2744 10.5621 25.6827 11.5255 25.5421C12.4888 25.402 13.3489 24.6188 13.3243 23.7299C13.2947 22.67 12.1411 21.8544 12.0766 20.7961C17.0859 15.5465 24.4598 12.6216 31.8928 11.0467C32.1356 10.9954 32.3936 10.9455 32.6298 11.0183C32.8458 11.0846 33.0093 11.2421 33.176 11.3832C34.1214 12.1829 35.4948 12.5807 36.749 12.31C38.0038 12.0393 39.0705 11.0567 39.2351 9.89061C39.3996 8.72454 38.5626 7.47621 37.316 7.1761C37.9732 6.45372 37.9918 5.35296 37.498 4.52938C37.0043 3.7058 36.0732 3.14944 35.0803 2.90067C33.9606 2.61999 32.7195 2.70674 31.6971 3.20876C30.6752 3.71029 29.8967 4.63806 29.7119 5.68348C29.6747 5.89237 29.6566 6.11522 29.521 6.28721C29.3751 6.47266 29.1246 6.55891 28.889 6.63618C25.8726 7.62478 22.8994 8.72454 19.9803 9.93199C18.5041 10.5427 17.0416 11.1808 15.5943 11.8459C14.304 12.4386 13.3029 13.342 12.1985 14.193C10.7611 15.3002 9.33685 16.4209 7.92461 17.5546Z" fill="white"/>
<path d="M21.2374 3.90063C21.2073 3.90063 21.2073 3.94366 21.2374 3.94366C21.2668 3.94316 21.2668 3.90063 21.2374 3.90063Z" fill="#231F20"/>
<path d="M0.164464 14.0893C0.157356 14.0878 0.153529 14.0818 0.145328 14.0818C0.0266838 14.0818 0.0234033 14.2498 0.142047 14.2498L0.164464 14.0893ZM8.61933 16.7485C8.52147 16.8372 8.42524 16.9274 8.33284 17.0212C8.3055 17.0356 8.27816 17.0506 8.25301 17.065C8.24755 17.068 8.24372 17.073 8.23825 17.0765C7.8774 16.7465 7.41048 16.5037 6.94684 16.3212C6.37276 16.0954 5.77024 16.0276 5.15133 16.1009C4.42088 16.1876 3.74237 16.4897 3.20054 16.9339C2.7615 17.1194 2.37769 17.4025 2.12072 17.7909C1.66145 18.4849 1.68168 19.3638 1.95177 20.1305C2.0901 21.0897 2.63247 21.9891 3.56959 22.5629C4.39409 23.0679 5.42251 23.2738 6.40338 23.1596C6.70682 23.1242 7.21803 23.0564 7.5078 22.844C7.52475 22.9393 7.54498 23.0315 7.57068 23.1172C7.67893 23.4812 7.861 23.8227 8.09938 24.1288C8.53404 24.8835 9.12453 25.5062 10.0403 25.8118C11.0081 26.1349 12.1579 26.0023 12.961 25.4C13.6888 24.8541 14.0343 23.9229 13.9687 23.0813C13.9271 22.5494 13.7494 22.0449 13.4777 21.5738C13.3361 21.328 13.1666 21.0977 12.9851 20.8748C12.8993 20.7696 12.8123 20.6689 12.7161 20.5797C13.2885 20.1205 13.8659 19.6664 14.4515 19.2202C15.2546 20.7128 17.6117 21.1989 19.236 21.3479C20.3607 21.4511 21.5105 21.3823 22.6177 21.1809C23.6428 20.9945 24.932 20.7008 25.7773 20.0951C25.7921 20.1041 25.8074 20.1126 25.8221 20.121C25.709 20.2068 25.6007 20.2975 25.5078 20.4047C25.3793 20.5528 25.2847 20.7178 25.2125 20.8913C25.1535 20.8758 25.09 20.8698 25.0206 20.8803C24.7226 20.9237 24.4345 21.0737 24.1513 21.1695C23.861 21.2672 23.5674 21.3569 23.2716 21.4382C22.7237 21.5887 22.1721 21.7408 21.6138 21.8564C20.423 22.1032 19.2049 22.2024 17.9856 22.1471C17.8867 22.1426 17.8878 22.2752 17.9829 22.2857C19.2338 22.4218 20.4881 22.4452 21.7418 22.3365C22.3426 22.2842 22.9326 22.2044 23.5165 22.0633C23.815 21.991 24.1108 21.9108 24.4039 21.8215C24.6133 21.7577 24.8462 21.7004 25.054 21.6132C25.0129 22.5639 25.5799 23.3446 26.3853 23.9069C27.177 24.4593 28.288 24.9249 29.2896 24.6228C30.1835 24.3531 30.973 23.6133 31.1524 22.7568C31.2207 22.4308 31.2294 22.0918 31.1895 21.7582C31.5378 21.7288 31.9025 21.6171 32.2169 21.5289C32.6368 21.4113 33.0649 21.2727 33.4427 21.0653C34.1064 20.7008 34.6154 20.14 34.8391 19.4655C34.9003 19.466 34.9637 19.4565 35.0304 19.4206C35.54 19.1469 36.0173 18.8568 36.5526 18.62C37.0588 18.3961 37.5755 18.1957 38.1004 18.0122C39.1644 17.6393 40.2332 17.3173 41.3513 17.1064C41.4842 17.0815 41.4279 16.91 41.2999 16.9244C40.143 17.0541 38.9653 17.242 37.8576 17.5795C37.3153 17.745 36.7811 17.9325 36.2562 18.1399C35.8265 18.3094 35.388 18.4794 34.9659 18.6703C34.9648 18.4574 34.9347 18.248 34.8822 18.0437C35.0096 18.0177 35.1354 17.9833 35.2595 17.9449C35.4492 17.8866 35.6362 17.8213 35.8216 17.752C35.9992 17.6852 36.1693 17.6109 36.3366 17.5242C36.382 17.5007 36.4301 17.4783 36.4733 17.4514C36.5088 17.4295 36.5263 17.3976 36.5564 17.3716C36.6307 17.3088 36.7461 17.2694 36.833 17.2221C36.9604 17.1533 36.8533 16.9853 36.7215 17.0411C36.6428 17.0745 36.552 17.1283 36.4667 17.1453C36.4115 17.1563 36.3612 17.1483 36.3038 17.1627C36.2661 17.1722 36.2289 17.1852 36.1917 17.1961C36.0102 17.249 35.8281 17.3023 35.6455 17.3527C35.4678 17.4015 35.289 17.4444 35.1081 17.4818C34.9736 17.5097 34.8412 17.5346 34.7106 17.5666C34.3202 16.739 33.5099 16.0859 32.4722 15.9274C31.61 15.7958 30.7303 16.0211 30.0621 16.5216C29.967 16.4065 29.8675 16.2948 29.7653 16.1846C29.8615 16.0904 29.9468 15.9832 30.0277 15.888C30.1649 15.7255 30.2912 15.5555 30.4055 15.3785C30.6406 15.0151 30.8232 14.6197 30.9676 14.2189C31.1064 13.8335 31.207 13.4377 31.2776 13.0374C31.3552 12.5997 31.447 12.133 31.3918 11.6903C31.8046 11.5587 32.2152 11.4211 32.6193 11.2701C32.762 11.4356 32.9123 11.5951 33.0785 11.7342C34.0605 12.5573 35.3721 13.0234 36.7111 12.8644C38.043 12.7063 39.1726 11.9416 39.6739 10.8009C40.1933 9.61942 39.8407 8.32871 38.7866 7.49965C38.5618 7.32267 38.312 7.17361 38.0512 7.04399C38.2425 6.52402 38.2956 5.91032 38.2174 5.31806C38.2081 5.1346 38.1698 4.95463 38.1119 4.77815C38.0315 4.49199 37.9194 4.22278 37.7745 3.98648C37.0982 2.88372 35.7472 2.44451 34.4361 2.35727C33.7756 2.3134 32.9878 2.2436 32.3421 2.40812C31.7199 2.56665 31.2048 3.05322 30.7882 3.48146C30.1458 4.14152 29.6696 4.90428 29.5241 5.74431C29.4859 5.78868 29.4454 5.83106 29.4066 5.87493C28.0589 3.61956 24.7461 2.42706 22.1125 2.15486C19.2437 1.85824 16.2814 2.76557 14.4793 4.86041C14.066 4.70586 13.6483 4.55979 13.2279 4.4197C13.2311 4.30105 13.2153 4.17941 13.1907 4.05827C13.1901 4.05577 13.1896 4.05328 13.189 4.05079C13.1852 4.03185 13.1814 4.0134 13.177 3.99446C13.1929 3.17935 12.9736 2.3473 12.5198 1.64536C12.2869 1.28542 11.9698 0.953894 11.5329 0.799847C11.0671 0.635829 10.5247 0.710111 10.0398 0.750492C9.08297 0.830258 8.11086 1.03715 7.43727 1.70967C6.82164 2.32436 6.50288 3.1614 6.50944 3.99047C6.51272 4.39179 6.5931 4.78064 6.72541 5.15853C6.21256 5.34 5.74127 5.7832 5.3323 6.10176C4.90748 6.43279 4.47664 6.77528 4.14094 7.18557C3.44111 8.04156 3.81235 9.02965 4.59583 9.71962C6.04799 10.9979 8.37002 10.9655 9.84623 9.75053C10.0666 9.56907 10.2661 9.36317 10.4427 9.14132C10.7331 9.30385 11.0234 9.46637 11.3148 9.62789C11.0671 9.83279 10.8971 10.2112 10.7981 10.4315C10.5843 10.9076 10.4892 11.4221 10.4176 11.9296C10.3454 12.4386 10.3088 12.9531 10.3727 13.4641C10.4274 13.8993 10.5472 14.4722 10.8818 14.8251C10.5444 15.1053 10.212 15.391 9.87849 15.6751L8.61933 16.7485ZM24.1032 19.9416C23.6362 20.1036 23.1562 20.2347 22.6696 20.3374C21.7019 20.5413 20.7101 20.6201 19.7183 20.5777C17.9856 20.5034 16.0239 20.1689 14.9113 18.8742C14.984 18.8194 15.0567 18.764 15.13 18.7097C15.4487 19.125 16.0715 19.4226 16.5132 19.5916C17.4482 19.9495 18.4832 20.15 19.4848 20.2686C20.5242 20.3917 21.5788 20.3888 22.6089 20.2053C23.3569 20.0722 24.2174 19.8404 24.8992 19.4515C24.9446 19.4894 24.9905 19.5263 25.0359 19.5637C24.7237 19.6853 24.4203 19.8314 24.1032 19.9416ZM16.5132 19.0562C17.4788 19.6674 18.8293 19.796 19.9807 19.8638C20.809 19.9127 21.6428 19.9406 22.4668 19.8309C23.1349 19.7417 23.9605 19.5383 24.4837 19.0985C24.5181 19.128 24.5526 19.1574 24.587 19.1868C24.3377 19.3169 24.0873 19.4445 23.8139 19.5437C23.4093 19.6903 22.99 19.802 22.5641 19.8827C21.6084 20.0647 20.6193 20.0782 19.6505 19.9839C18.698 19.8912 17.7292 19.7068 16.8205 19.4276C16.4679 19.3194 16.1229 19.1868 15.8129 18.9968C15.6078 18.8712 15.4646 18.7207 15.3279 18.5606C15.4318 18.4834 15.534 18.4036 15.6385 18.3268C15.867 18.6354 16.282 18.9241 16.5132 19.0562ZM16.1114 17.9724C16.2169 17.8951 16.3235 17.8178 16.4307 17.7405C16.4296 17.8253 16.4285 17.9105 16.4269 17.9953C16.4252 18.0975 16.4241 18.2002 16.4225 18.3024C16.282 18.2052 16.1693 18.095 16.1114 17.9724ZM16.873 18.4061C16.8735 18.448 16.8714 18.4948 16.8703 18.5422C16.7926 18.5088 16.7155 18.4724 16.6412 18.4335C16.6406 18.4011 16.6395 18.3687 16.6395 18.3358C16.6379 18.2221 16.6363 18.1085 16.6346 17.9948C16.633 17.8851 16.6313 17.7759 16.6302 17.6663C16.6297 17.6428 16.6297 17.6194 16.6297 17.596C16.7084 17.5391 16.7883 17.4828 16.8675 17.426C16.8675 17.4275 16.8675 17.429 16.8675 17.4305C16.8664 17.593 16.8653 17.7555 16.867 17.918C16.8692 18.081 16.8714 18.2436 16.873 18.4061ZM17.3427 18.7117C17.3006 18.6992 17.2541 18.6833 17.2082 18.6683C17.2027 18.6563 17.189 18.6479 17.1781 18.6384C17.1764 18.6284 17.1743 18.6175 17.1743 18.6085C17.171 18.5302 17.1693 18.4515 17.1666 18.3732C17.1611 18.2107 17.1562 18.0481 17.1513 17.8856C17.1464 17.7286 17.1376 17.5715 17.1294 17.4145C17.1267 17.3641 17.1251 17.3053 17.1201 17.246C17.206 17.1852 17.2924 17.1258 17.3782 17.0655C17.3547 17.2869 17.3465 17.5112 17.3383 17.7301C17.3306 17.9275 17.3279 18.1244 17.3306 18.3223C17.3323 18.451 17.3345 18.5816 17.3427 18.7117ZM17.6494 18.7615C17.6527 18.6075 17.6428 18.452 17.6406 18.2989C17.6384 18.109 17.6368 17.9195 17.6368 17.7296C17.6374 17.4469 17.657 17.1607 17.6494 16.8766C17.7369 16.8168 17.8243 16.7574 17.9124 16.6981C17.8703 17.0456 17.8719 17.401 17.8593 17.7465C17.8468 18.105 17.8358 18.4654 17.8325 18.8254C17.7735 18.8139 17.7139 18.8019 17.6548 18.7885C17.6548 18.785 17.6565 18.7815 17.6559 18.7775C17.6559 18.772 17.651 18.7675 17.6494 18.7615ZM18.1606 16.5331C18.3044 16.4384 18.4487 16.3451 18.5942 16.2529C18.563 16.41 18.5559 16.5775 18.5395 16.7225C18.5072 17.0092 18.4772 17.2963 18.4509 17.5835C18.411 18.0247 18.3886 18.4664 18.3787 18.9086C18.3066 18.9006 18.2349 18.8907 18.1633 18.8807C18.1704 18.5028 18.1704 18.1239 18.1737 17.7465C18.1764 17.3457 18.2032 16.9349 18.1606 16.5331ZM18.8254 16.1063C18.8774 16.0744 18.9282 16.041 18.9807 16.0096C18.9572 16.4424 18.9769 16.8781 18.9884 17.3103C18.996 17.6024 19.0037 17.8946 19.0113 18.1867C19.0179 18.4405 19.0113 18.7052 19.0485 18.9585C18.9463 18.9545 18.844 18.947 18.7418 18.94C18.7297 18.9131 18.7046 18.8976 18.6745 18.8937C18.68 18.4674 18.6958 18.0412 18.7254 17.6159C18.7445 17.3392 18.7669 17.063 18.7921 16.7868C18.8101 16.577 18.8626 16.3237 18.8254 16.1063ZM19.5745 18.9709C19.5351 18.9704 19.4957 18.9709 19.4564 18.9704C19.423 18.9699 19.3902 18.9679 19.3569 18.9674C19.3837 18.6902 19.3437 18.3966 19.3301 18.1194C19.3159 17.8273 19.3016 17.5351 19.2874 17.243C19.2656 16.7923 19.2486 16.3382 19.1825 15.8905C19.3388 15.7973 19.4952 15.7055 19.6537 15.6168C19.5018 16.725 19.5165 17.8542 19.5745 18.9709ZM20.1037 18.9714C20.0387 18.9719 19.9741 18.9724 19.9096 18.9729C19.861 17.8203 19.8828 16.6672 19.8424 15.5151C19.9244 15.4702 20.0064 15.4249 20.089 15.3815C20.0753 16.1986 20.0747 17.0137 20.0835 17.8308C20.0884 18.2107 20.095 18.591 20.1037 18.9714ZM20.5827 17.4953C20.6095 17.7889 20.6379 18.0825 20.6685 18.3762C20.6838 18.5227 20.6991 18.6698 20.7155 18.8164C20.7204 18.8617 20.7237 18.9071 20.7281 18.9525C20.6352 18.957 20.5422 18.961 20.4493 18.9639C20.4482 18.9121 20.4471 18.8602 20.446 18.8084C20.4422 18.6389 20.4383 18.4694 20.4345 18.2999C20.4274 17.9739 20.4165 17.6478 20.4066 17.3223C20.3886 16.738 20.358 16.1547 20.3252 15.5709C20.3815 15.6342 20.4405 15.6961 20.5028 15.7559C20.4804 16.3367 20.5296 16.916 20.5827 17.4953ZM20.7243 15.9563C20.8528 16.066 20.9845 16.1717 21.1163 16.2749C21.1119 16.4419 21.1272 16.6129 21.1343 16.7704C21.148 17.0585 21.1617 17.3467 21.1753 17.6344C21.1956 18.0581 21.2005 18.4908 21.2333 18.9181C21.1846 18.9226 21.1365 18.9271 21.0879 18.9305C21.0797 18.8687 21.0682 18.8074 21.0611 18.7481C21.0441 18.6125 21.0277 18.4774 21.0119 18.3418C20.9758 18.0372 20.9419 17.7321 20.9091 17.427C20.8571 16.9354 20.8046 16.4444 20.7243 15.9563ZM21.435 16.5301C21.4553 16.5466 21.4761 16.563 21.4957 16.5795C21.575 16.6463 21.6548 16.7116 21.7347 16.7779C21.7319 17.0645 21.7363 17.3507 21.745 17.6388C21.7522 17.8692 21.7593 18.1 21.7702 18.3303C21.7784 18.4948 21.7533 18.6893 21.8139 18.8483C21.7773 18.8538 21.7434 18.8632 21.7062 18.8682C21.6751 18.8722 21.6439 18.8742 21.6127 18.8782C21.592 18.4634 21.5466 18.0456 21.5154 17.6354C21.4935 17.3472 21.4717 17.059 21.4504 16.7714C21.4443 16.6936 21.44 16.6124 21.435 16.5301ZM22.2852 18.6279C22.2885 18.6678 22.2896 18.7122 22.2907 18.7576C22.2464 18.768 22.1994 18.776 22.1546 18.7855C22.1578 18.7441 22.1562 18.7002 22.1535 18.6494C22.1469 18.5252 22.1403 18.4011 22.1332 18.277C22.1207 18.0461 22.1037 17.8158 22.0873 17.5855C22.0742 17.4005 22.0589 17.2171 22.0425 17.0331C22.1136 17.0919 22.1846 17.1513 22.2557 17.2101C22.242 17.4948 22.2426 17.7794 22.2546 18.0646C22.2628 18.252 22.2699 18.4405 22.2852 18.6279ZM22.5263 17.4369C22.5952 17.4943 22.663 17.5526 22.7319 17.6099C22.7215 17.8742 22.7204 18.1369 22.7363 18.4011C22.7407 18.4779 22.7489 18.5541 22.7554 18.6309C22.7172 18.6429 22.6773 18.6514 22.639 18.6628C22.6368 18.6369 22.6346 18.611 22.6324 18.5846C22.616 18.3966 22.5963 18.2092 22.5805 18.0212C22.5635 17.8263 22.5466 17.6314 22.5263 17.4369ZM22.9741 17.8138C23.0507 17.8786 23.1283 17.942 23.2038 18.0073C23.2273 18.0272 23.2508 18.0471 23.2737 18.0671C23.282 18.1254 23.2902 18.1837 23.2978 18.2416C23.3066 18.3074 23.3153 18.3737 23.3246 18.44C23.2371 18.4714 23.1491 18.4998 23.0616 18.5292C23.0556 18.4864 23.0496 18.444 23.0436 18.4011C23.0184 18.2057 22.9966 18.0098 22.9741 17.8138ZM23.5788 18.3273C23.5838 18.3318 23.5892 18.3363 23.5941 18.3403C23.5898 18.3418 23.5859 18.3433 23.5816 18.3448C23.5805 18.3388 23.5799 18.3328 23.5788 18.3273ZM31.0643 21.1884C31.0578 21.1695 31.055 21.149 31.0479 21.1301C31.0463 21.1251 31.0435 21.1201 31.0414 21.1151C31.0654 21.1161 31.0895 21.1166 31.1135 21.1166C31.1239 21.1301 31.1299 21.147 31.1431 21.158C31.1174 21.168 31.09 21.1769 31.0643 21.1884ZM30.0211 17.421C30.1715 17.58 30.3361 17.7331 30.5285 17.8208C30.7494 17.9215 31.0862 17.7091 30.9134 17.4818C30.8221 17.3622 30.716 17.252 30.6089 17.1418C31.177 16.7589 31.9402 16.6173 32.6225 16.8078C33.3754 17.0172 33.9692 17.6164 34.119 18.3203C34.2797 19.0766 33.909 19.8723 33.236 20.3244C33.2333 20.3264 33.23 20.3279 33.2272 20.3299C33.6362 19.8778 33.8926 19.3069 33.8795 18.7177C33.873 18.4365 33.757 17.9629 33.3415 18.0387C33.2754 18.0506 33.2978 18.1339 33.3563 18.1389C33.558 18.1558 33.6318 18.3827 33.6482 18.5367C33.6657 18.7052 33.6286 18.8777 33.5908 19.0422C33.5137 19.3772 33.3546 19.6938 33.1381 19.9725C32.9211 20.2517 32.6357 20.49 32.3114 20.6625C32.2754 20.6814 32.1425 20.7407 31.9883 20.7991C31.9829 20.7995 31.9774 20.801 31.9714 20.8015C31.8866 20.811 31.8008 20.811 31.716 20.8175C31.8998 20.7412 32.0774 20.653 32.2415 20.5478C32.8429 20.1634 33.254 19.5183 33.0835 18.8343C33.0742 18.7969 33.0064 18.8044 33.0091 18.8433C33.0463 19.3538 32.7281 19.805 32.3169 20.1265C32.1097 20.2886 31.8642 20.4142 31.6127 20.5094C31.4837 20.5583 31.3514 20.6001 31.218 20.637C31.1447 20.6575 31.0714 20.6759 30.9976 20.6949C30.9621 20.7038 30.926 20.7133 30.8905 20.7218C30.8883 20.7198 30.8877 20.7173 30.8855 20.7158C30.8806 20.7123 30.8757 20.7118 30.8708 20.7088C30.8287 20.6221 30.7844 20.5378 30.7396 20.4536C30.7571 20.4501 30.7751 20.4471 30.7926 20.4421C30.9101 20.4107 31.0261 20.3703 31.1409 20.3314C31.3787 20.2507 31.6122 20.1569 31.8194 20.0218C32.1868 19.7815 32.4727 19.3987 32.4159 18.9694C32.4033 18.8732 32.2426 18.8672 32.2458 18.9694C32.2579 19.3319 31.9801 19.6415 31.657 19.8239C31.4799 19.9241 31.2863 19.9964 31.0906 20.0602C31.0124 20.0856 30.9331 20.1091 30.8544 20.1325C30.8609 20.1255 30.8691 20.1176 30.8752 20.1106C30.9932 19.98 31.0867 19.8359 31.1562 19.6788C31.1704 19.6474 31.1436 19.609 31.1124 19.5971C31.078 19.5841 31.037 19.5951 31.0179 19.6255C30.9408 19.7456 30.8484 19.8518 30.7374 19.9476C30.7106 19.9705 30.6832 19.9924 30.6554 20.0134C30.6466 20.0198 30.6373 20.0268 30.6286 20.0333C30.6269 20.0343 30.6286 20.0333 30.6258 20.0353C30.6083 20.0473 30.5908 20.0592 30.5723 20.0697C30.5662 20.0732 30.5597 20.0767 30.5531 20.0797C30.5526 20.0802 30.5405 20.0847 30.5389 20.0856C30.5378 20.0861 30.5373 20.0861 30.5362 20.0861C30.4361 19.9196 30.3207 19.7581 30.1693 19.639C29.9473 19.465 29.4656 19.612 29.6018 19.9281C29.7636 20.305 30.0736 20.6201 30.201 21.0134C30.3169 21.3719 30.3716 21.7722 30.3377 22.1446C30.3361 22.163 30.3311 22.181 30.3289 22.1994C30.213 21.4985 29.7778 20.8344 29.2847 20.306C29.2464 20.2651 29.1671 20.32 29.2021 20.3638C29.6592 20.9277 30.0036 21.5688 30.0168 22.2827C30.0222 22.5918 29.973 22.9278 29.8074 23.202C29.6849 23.4049 29.5269 23.5126 29.3393 23.6108C29.2765 23.6347 29.2136 23.6586 29.1496 23.6776C28.9123 23.7474 28.6685 23.7818 28.423 23.7918C28.4082 23.7823 28.3896 23.7763 28.3754 23.7658C28.0922 23.5574 27.938 23.2144 27.8424 22.9034C27.827 22.8535 27.7325 22.861 27.7396 22.9163C27.7756 23.2105 27.8544 23.5121 28.0397 23.7539C27.8336 23.6935 27.6313 23.6108 27.4383 23.5156C27.3793 23.4134 27.329 23.3062 27.2896 23.1975C27.1278 22.7493 27.1086 22.2473 27.2562 21.7941C27.2759 21.7343 27.1759 21.6934 27.1442 21.7508C26.8779 22.2274 26.8402 22.7673 27.0004 23.2763C26.9862 23.2673 26.9714 23.2598 26.9572 23.2508C26.8527 23.0674 26.7691 22.8769 26.7243 22.6725C26.6138 22.168 26.7161 21.6256 26.9479 21.1605C26.9747 21.1066 26.8965 21.0349 26.8484 21.0907C26.4252 21.5842 26.3213 22.2219 26.4531 22.8291C26.4564 22.8435 26.4635 22.857 26.4673 22.8715C26.4011 22.8086 26.3388 22.7428 26.2803 22.674C26.1912 22.3769 26.1381 22.0738 26.1365 21.7582C26.1354 21.5793 26.1649 21.3978 26.2366 21.2308C26.306 21.0693 26.441 20.9217 26.5706 20.7971C26.6067 20.7627 26.5695 20.7163 26.5231 20.7228C26.0578 20.7871 25.9118 21.312 25.8642 21.675C25.8566 21.7348 25.8599 21.7971 25.8571 21.8579C25.8522 21.837 25.8445 21.8176 25.8402 21.7966C25.7746 21.4526 25.8484 21.0792 26.06 20.7861C26.1688 20.635 26.3158 20.5224 26.464 20.4107C26.4749 20.4142 26.4848 20.4197 26.4957 20.4232C26.8686 20.5318 27.0758 20.1789 26.9577 19.9241C26.9615 19.9176 26.9681 19.9132 26.9719 19.9062C26.9785 19.8947 26.9801 19.8817 26.984 19.8698C27.0146 19.8439 27.0447 19.8174 27.0714 19.7865C27.09 19.7651 27.0807 19.7262 27.0447 19.7277C27.0244 19.7287 27.0036 19.7337 26.9834 19.7357C26.9594 19.6589 26.9014 19.5931 26.8254 19.5692C26.8413 19.5108 26.8369 19.4485 26.7981 19.3902C26.7554 19.3269 26.6237 19.3468 26.633 19.4311C26.5684 19.455 26.5045 19.4789 26.4405 19.5024C26.4006 19.472 26.3601 19.4415 26.3202 19.4106C26.2628 19.3643 26.2081 19.3139 26.1524 19.2661C26.0403 19.1698 25.9287 19.0731 25.8167 18.9769C25.5788 18.772 25.3415 18.5671 25.1037 18.3622C24.6423 17.9644 24.1813 17.5671 23.7199 17.1692C23.2005 16.7215 22.6778 16.2763 22.1562 15.8307C21.8642 15.54 21.5706 15.194 21.2338 14.9163C21.3115 14.8914 21.3897 14.867 21.4678 14.8426C21.663 14.9747 21.8757 15.0858 22.0222 15.1706C22.2705 15.3147 22.5007 15.4597 22.7106 15.6492C22.9484 15.8641 23.1759 16.0784 23.44 16.2674C23.6898 16.4463 23.9523 16.6069 24.1786 16.8118C24.3815 16.9952 24.5537 17.2011 24.7248 17.409C24.8866 17.6059 25.0474 17.8044 25.2278 17.9873C25.4115 18.1733 25.6204 18.2904 25.8588 18.4131C25.9173 18.443 25.9605 18.3682 25.9096 18.3333C25.6898 18.1812 25.5017 17.9574 25.3268 17.762C25.154 17.5685 25.0009 17.3617 24.8413 17.1598C24.505 16.7335 24.1305 16.378 23.6898 16.039C23.2481 15.699 22.9156 15.2519 22.446 14.9428C22.3038 14.8495 22.1557 14.7643 22.0102 14.6756C22.1595 14.6302 22.3082 14.5853 22.4569 14.54C22.4755 14.5629 22.4924 14.5873 22.5116 14.6097C22.6034 14.7194 22.7029 14.8226 22.8128 14.9178C22.9216 15.0121 23.0392 15.0983 23.1639 15.1741C23.288 15.2499 23.4329 15.2952 23.5706 15.3461C23.6576 15.3785 23.7101 15.2524 23.633 15.2105C23.5143 15.1457 23.4148 15.0619 23.3049 14.9861C23.1983 14.9124 23.0972 14.8306 23.0037 14.7434C22.9124 14.6586 22.8276 14.5684 22.7527 14.4717C22.7483 14.4662 22.745 14.4602 22.7412 14.4547C22.9255 14.3989 23.1086 14.342 23.2907 14.2842C23.9129 14.0868 24.5335 13.8864 25.1551 13.687C25.248 13.8016 25.3634 13.9078 25.4733 14.0105C25.6986 14.2209 25.9413 14.4193 26.2027 14.5913C26.6931 14.9139 27.2141 15.1965 27.7259 15.4897C27.9719 15.6302 28.2098 15.7743 28.4378 15.9289C28.6313 16.1313 28.832 16.3277 29.0507 16.5082C29.1873 16.6213 29.3421 16.745 29.5077 16.8586C29.5602 16.916 29.6127 16.9738 29.6647 17.0311C29.6674 17.2186 29.8265 17.3846 30.0211 17.421ZM26.3771 13.2951C26.4482 13.2722 26.5198 13.2492 26.5909 13.2268C26.5848 13.3136 26.5821 13.4008 26.581 13.488C26.5252 13.4357 26.4656 13.3863 26.4115 13.3325C26.4 13.32 26.3886 13.3071 26.3771 13.2951ZM26.8522 13.1426C26.9424 13.1136 27.0321 13.0847 27.1223 13.0563C27.0878 13.2308 27.0621 13.4068 27.0501 13.5828C27.043 13.6909 27.0414 13.7991 27.0403 13.9073C27.0332 13.9008 27.025 13.8948 27.0173 13.8884C26.9654 13.8415 26.9151 13.7931 26.8626 13.7463C26.8604 13.7054 26.8577 13.6645 26.8566 13.6241C26.8527 13.4636 26.8489 13.3031 26.8522 13.1426ZM27.6237 12.6136C27.6237 12.6146 27.6237 12.6161 27.6231 12.6171C27.5362 12.645 27.4492 12.6724 27.3623 12.7004C27.4498 12.6709 27.5367 12.6415 27.6242 12.6121C27.6242 12.6131 27.6237 12.6131 27.6237 12.6136ZM27.6269 14.2388C27.6253 14.2403 27.6242 14.2418 27.6226 14.2433C27.6231 14.2418 27.6231 14.2403 27.6237 14.2388C27.6247 14.2388 27.6258 14.2388 27.6269 14.2388ZM27.5898 12.9063C27.5531 13.2173 27.5225 13.5274 27.5077 13.8415C27.5028 13.9422 27.4984 14.0434 27.4935 14.1441C27.4913 14.1855 27.4848 14.2329 27.4881 14.2772C27.4285 14.2299 27.3711 14.1805 27.3126 14.1322C27.3087 14.0713 27.2983 14.0095 27.2962 13.9607C27.2896 13.8345 27.288 13.7089 27.2863 13.5828C27.2836 13.3903 27.2819 13.1984 27.2787 13.006C27.382 12.9731 27.4859 12.9397 27.5898 12.9063ZM28.3393 12.3773C28.4585 12.3384 28.5783 12.3015 28.6975 12.2631C28.6975 12.2671 28.698 12.2706 28.698 12.2746C28.5794 12.3125 28.4607 12.3504 28.3426 12.3878C28.3426 12.3873 28.3426 12.3868 28.3426 12.3858C28.3426 12.3828 28.3393 12.3808 28.3393 12.3773ZM28.7024 12.5498C28.7024 12.5757 28.7046 12.6031 28.7024 12.6281C28.6854 12.8569 28.6444 13.0802 28.581 13.3041C28.4902 13.6231 28.3399 13.9412 28.1507 14.2164C28.1529 14.1695 28.154 14.1237 28.1584 14.0818C28.177 13.8953 28.1923 13.7084 28.213 13.5214C28.2442 13.2393 28.2765 12.9571 28.3093 12.6754C28.4405 12.6336 28.5712 12.5917 28.7024 12.5498ZM29.7292 12.2208C29.786 12.2023 29.8429 12.1844 29.9003 12.1659C29.862 12.8021 29.8172 13.4402 29.6198 14.0549C29.5334 14.3251 29.4197 14.5873 29.2715 14.8346C29.1999 14.9537 29.1201 15.0689 29.0315 15.1786C28.9812 15.2404 28.9173 15.2992 28.8571 15.36C28.7833 15.3002 28.7089 15.2409 28.6346 15.1821C29.4509 14.4293 29.8128 13.2782 29.7292 12.2208ZM29.3126 12.0672C29.3147 12.0667 29.3169 12.0657 29.3197 12.0652C29.3202 12.0687 29.3208 12.0727 29.3213 12.0762C29.3197 12.0767 29.318 12.0772 29.3158 12.0777C29.3147 12.0742 29.3136 12.0707 29.3126 12.0672ZM29.692 11.9531C29.7461 11.9366 29.8008 11.9221 29.8555 11.9057C29.8013 11.9231 29.7472 11.9401 29.6931 11.9575C29.6925 11.956 29.6925 11.9546 29.692 11.9531ZM28.1524 12.4486C28.0184 12.4915 27.8845 12.5339 27.7505 12.5767C27.7494 12.5752 27.7494 12.5722 27.7478 12.5707C27.8834 12.5254 28.0195 12.4805 28.1556 12.4356C28.1545 12.4401 28.1535 12.4446 28.1524 12.4486ZM27.7724 14.2687C27.7696 14.2284 27.7757 14.1685 27.7767 14.1277C27.7789 14.0604 27.7811 13.9931 27.7833 13.9258C27.7882 13.7802 27.7948 13.6341 27.7959 13.4885C27.797 13.2742 27.7855 13.0608 27.7757 12.8469C27.8227 12.832 27.8691 12.817 27.9162 12.8021C27.9714 12.7841 28.0272 12.7667 28.0824 12.7487C28.0266 12.9935 27.9758 13.2393 27.9369 13.488C27.908 13.672 27.8795 13.856 27.8571 14.0409C27.8451 14.1376 27.8369 14.2348 27.8281 14.3321C27.8205 14.4198 27.8249 14.4906 27.8937 14.5574C27.8872 14.5674 27.8801 14.5768 27.8746 14.5868C27.8063 14.534 27.7379 14.4816 27.6701 14.4283C27.7516 14.4113 27.8112 14.3321 27.7724 14.2687ZM30.3951 12.8444C30.3399 13.2208 30.2486 13.5947 30.1277 13.9582C30.0113 14.3096 29.862 14.6491 29.6761 14.9747C29.5837 15.1362 29.482 15.2932 29.3711 15.4448C29.3186 15.5166 29.259 15.5849 29.201 15.6542C29.166 15.6238 29.1332 15.5914 29.0977 15.561C29.1414 15.5126 29.1819 15.4607 29.2207 15.4134C29.3229 15.2892 29.4148 15.1581 29.4974 15.023C29.6597 14.7578 29.786 14.4726 29.8806 14.1815C30.1015 13.504 30.1567 12.7861 30.1595 12.0827C30.2633 12.0493 30.3678 12.0159 30.4717 11.9825C30.441 12.2686 30.4372 12.5603 30.3951 12.8444ZM21.9938 2.90466C24.4372 3.14944 27.5307 4.31003 28.6718 6.45123C28.5006 6.49311 28.3295 6.53548 28.1595 6.58085C28.0545 5.8495 27.3711 5.31208 26.7352 4.90428C25.8735 4.3519 24.9348 3.89575 23.9413 3.57419C22.0616 2.96598 19.973 2.88721 18.1048 3.57469C17.1152 3.93862 16.2388 4.49149 15.5597 5.24528C15.5482 5.25774 15.5417 5.2717 15.5362 5.28516C15.4017 5.22833 15.2656 5.17498 15.13 5.12064C16.8746 3.40718 19.4547 2.65041 21.9938 2.90466ZM24.4722 4.32349C22.7068 3.65595 20.5045 3.6066 18.6871 4.14501C18.3935 4.23176 18.1158 4.34792 17.8468 4.47753C17.218 4.71035 16.5526 5.07179 16.2847 5.62566C16.1158 5.54639 15.9506 5.45965 15.7795 5.38437C16.9512 4.18639 18.6488 3.49742 20.394 3.38525C22.3224 3.26161 24.2333 3.83243 25.8675 4.73827C26.6335 5.16302 27.7505 5.76525 27.8325 6.67208C27.7079 6.70698 27.5832 6.74238 27.4585 6.77927C27.3054 6.35751 26.8063 5.849 26.6335 5.67701C26.0375 5.08475 25.2847 4.63058 24.4722 4.32349ZM26.3924 7.11229C26.2743 7.15117 26.1562 7.19205 26.0386 7.23194C26.0326 7.11428 26.0255 6.99663 26.0135 6.87897C26.0047 6.79522 25.9916 6.71197 25.9818 6.62871C26.1201 6.78276 26.2552 6.94329 26.3907 7.11079C26.3913 7.11129 26.3918 7.11179 26.3924 7.11229ZM25.7953 6.89543C25.7921 7.03601 25.7904 7.1761 25.7882 7.31619C25.7046 7.3451 25.6215 7.37452 25.5384 7.40343C25.5367 7.37552 25.5345 7.3476 25.5324 7.32018C25.5198 7.12226 25.5094 6.92484 25.5012 6.72692C25.493 6.529 25.4892 6.33109 25.4744 6.13317C25.4744 6.13018 25.4739 6.12718 25.4739 6.12469C25.5848 6.2244 25.6909 6.33009 25.7948 6.43777C25.7953 6.59032 25.7992 6.74287 25.7953 6.89543ZM25.2541 7.34112C25.2562 7.39496 25.2584 7.4488 25.2612 7.50264C25.1638 7.53754 25.066 7.57144 24.9687 7.60684C24.9714 6.97469 24.9736 6.34205 24.9424 5.71041C25.0501 5.78369 25.1529 5.86047 25.2513 5.93924C25.2475 6.00405 25.2437 6.06836 25.2404 6.13317C25.2295 6.33806 25.2344 6.54296 25.2382 6.74786C25.2409 6.94578 25.2464 7.1437 25.2541 7.34112ZM24.3694 5.6471C24.3634 5.55188 24.3514 5.45715 24.3404 5.36193C24.4006 5.39185 24.464 5.41578 24.5236 5.44768C24.5799 5.47809 24.6253 5.51349 24.6789 5.5454C24.6357 6.27176 24.6395 7.00012 24.6417 7.72748C24.5411 7.76437 24.4405 7.80176 24.3404 7.83915C24.3787 7.35557 24.3968 6.8715 24.3913 6.38692C24.388 6.14015 24.3847 5.89287 24.3694 5.6471ZM24.0605 7.94285C24.0069 7.96279 23.9544 7.98323 23.9009 8.00317C23.9069 7.76088 23.8834 7.51311 23.8724 7.27282C23.8604 6.99513 23.8506 6.71795 23.8353 6.44026C23.8199 6.16258 23.8025 5.8854 23.786 5.60771C23.7762 5.44519 23.774 5.2707 23.7505 5.1022C23.8828 5.15255 24.0113 5.20938 24.1398 5.26771C24.1398 5.28067 24.1387 5.29264 24.1382 5.3056C24.1338 5.41927 24.1267 5.53293 24.125 5.6466C24.1223 5.89287 24.1223 6.13915 24.1146 6.38592C24.0993 6.87848 24.072 7.37103 24.0354 7.86308C24.0332 7.89698 24.0441 7.92191 24.0605 7.94285ZM23.2207 5.58229C23.2169 5.36243 23.2224 5.13759 23.2065 4.91575C23.3131 4.94616 23.4159 4.98754 23.5209 5.02343C23.4979 5.21636 23.5149 5.41877 23.5187 5.60771C23.5242 5.89587 23.528 6.18402 23.5351 6.47217C23.5417 6.74985 23.5537 7.02704 23.563 7.30422C23.5723 7.57293 23.5641 7.84912 23.6013 8.11634C23.522 8.14625 23.4421 8.17616 23.3629 8.20657C23.3115 8.22601 23.2606 8.24645 23.2098 8.2659C23.2103 8.24596 23.2103 8.22601 23.2109 8.20258C23.2147 8.0281 23.2169 7.85311 23.218 7.67862C23.2207 7.32915 23.2229 6.97968 23.2251 6.6307C23.2278 6.28073 23.2273 5.93176 23.2207 5.58229ZM22.9331 8.37258C22.8724 8.39602 22.8117 8.41945 22.7511 8.44288C22.7686 7.84414 22.7401 7.23842 22.739 6.64167C22.7385 6.28123 22.7396 5.92079 22.7319 5.56035C22.727 5.31607 22.7467 5.05284 22.7215 4.80208C22.8145 4.82202 22.9063 4.84346 22.9982 4.86689C22.973 5.10419 22.9758 5.34598 22.9665 5.58179C22.9528 5.9188 22.9441 6.25531 22.9391 6.59232C22.9342 6.92933 22.9293 7.26634 22.9244 7.60285C22.9216 7.77733 22.9195 7.95232 22.9189 8.12681C22.9195 8.21355 22.9085 8.2988 22.9331 8.37258ZM22.4367 5.56085C22.429 5.92129 22.4301 6.28173 22.4296 6.64217C22.4285 7.28129 22.3951 7.93038 22.4219 8.571C22.3262 8.60839 22.23 8.64478 22.1343 8.68217C22.1436 8.02311 22.1535 7.36405 22.1578 6.70449C22.1606 6.3256 22.1628 5.94622 22.1655 5.56733C22.1671 5.28765 22.1863 4.98903 22.1485 4.70586C22.2513 4.71932 22.3547 4.72929 22.4564 4.74674C22.4214 5.01396 22.4421 5.29762 22.4367 5.56085ZM21.6056 4.65202C21.6718 4.65601 21.7385 4.65402 21.8046 4.6595C21.8533 4.66349 21.9014 4.67396 21.9495 4.67894C21.8981 4.96959 21.9085 5.27818 21.902 5.56683C21.8932 5.94572 21.8839 6.3251 21.8752 6.70399C21.8588 7.40144 21.8489 8.09889 21.8374 8.79634C21.7538 8.82924 21.6707 8.86314 21.5876 8.89604C21.5985 8.63182 21.5914 8.36411 21.5974 8.10337C21.6067 7.68461 21.616 7.26584 21.6248 6.84657C21.6406 6.11372 21.6543 5.38337 21.6056 4.65202ZM21.0255 8.35115C21.0518 8.04455 21.0119 7.72 21.0026 7.41739C20.9905 7.041 20.9774 6.6651 20.9583 6.28921C20.9391 5.91331 20.9271 5.53592 20.8921 5.16103C20.8763 4.99152 20.8642 4.82152 20.8369 4.65302C20.8364 4.64853 20.8353 4.64405 20.8347 4.63906C21.0381 4.63358 21.241 4.63756 21.4443 4.64604C21.364 5.36144 21.3416 6.07883 21.3202 6.79871C21.3082 7.20153 21.2962 7.60434 21.2836 8.00716C21.2754 8.27487 21.2513 8.55156 21.2453 8.82575C21.1573 8.73452 21.066 8.64428 20.9676 8.55754C20.9862 8.54209 21.0042 8.52613 21.0113 8.5017C21.0179 8.47478 21.0266 8.44886 21.0381 8.42343C21.049 8.39352 21.0403 8.37059 21.0255 8.35115ZM20.2448 6.44176C20.2574 5.85349 20.2978 5.25724 20.2672 4.66797C20.3919 4.65651 20.5165 4.65501 20.6417 4.64903C20.6406 4.71035 20.6319 4.77366 20.6302 4.83897C20.6264 5 20.6259 5.16152 20.6275 5.32255C20.6313 5.68498 20.6445 6.04792 20.6516 6.41035C20.6581 6.75982 20.6701 7.1088 20.6794 7.45827C20.6871 7.74294 20.6658 8.04903 20.7013 8.33719C20.5521 8.21904 20.4017 8.10387 20.2442 7.9927C20.259 7.47622 20.2338 6.95475 20.2448 6.44176ZM19.6428 4.75123C19.7877 4.7278 19.9331 4.70736 20.0786 4.69091C19.9823 5.25475 19.9621 5.83604 19.9364 6.40287C19.9162 6.84059 19.8812 7.29027 19.8746 7.73596C19.7981 7.68461 19.7254 7.63425 19.6499 7.5839C19.6543 7.51411 19.6652 7.44232 19.6658 7.40244C19.6685 7.27531 19.6707 7.14868 19.6718 7.02156C19.674 6.74686 19.6756 6.47167 19.6778 6.19698C19.6794 5.92229 19.6855 5.6471 19.6816 5.3724C19.6784 5.1685 19.68 4.95513 19.6428 4.75123ZM19.1622 4.84246C19.2634 4.82102 19.3629 4.79361 19.464 4.77566C19.4192 4.99202 19.4143 5.22035 19.4044 5.43572C19.3908 5.73135 19.3853 6.02798 19.376 6.32411C19.3662 6.62024 19.3547 6.91636 19.3481 7.21249C19.347 7.26783 19.3459 7.32317 19.3448 7.37851C19.3312 7.36953 19.317 7.35956 19.3033 7.35059C19.2699 7.32766 19.2344 7.30771 19.201 7.28478C19.2142 7.14768 19.2065 7.00411 19.2109 6.87549C19.2191 6.63619 19.2246 6.39689 19.2273 6.1571C19.2322 5.71839 19.2 5.28017 19.1622 4.84246ZM19.0436 4.86888C19.0206 5.28965 18.9905 5.70991 18.9736 6.13067C18.9643 6.3615 18.955 6.59182 18.9419 6.82214C18.9364 6.91686 18.9304 7.01208 18.9244 7.10681C18.8008 7.02554 18.6762 6.94578 18.5504 6.86751C18.5663 6.74537 18.5717 6.61924 18.5827 6.50208C18.5991 6.32261 18.6177 6.14264 18.6319 5.96317C18.6587 5.62466 18.686 5.28566 18.6986 4.94616C18.8123 4.91575 18.9288 4.89531 19.0436 4.86888ZM18.1879 5.4402C18.1857 5.33252 18.1797 5.22334 18.1633 5.11616C18.2672 5.07777 18.3733 5.04237 18.4804 5.00997C18.4318 5.31308 18.3924 5.61768 18.353 5.92179C18.3295 6.10126 18.3109 6.28123 18.2902 6.4607C18.282 6.531 18.2694 6.60528 18.2574 6.68006C18.2333 6.6656 18.2103 6.64915 18.1863 6.63469C18.1868 6.60677 18.1874 6.57886 18.1874 6.55094C18.1885 6.48164 18.1896 6.41235 18.1907 6.34255C18.1928 6.19249 18.1978 6.04194 18.1967 5.89138C18.195 5.74082 18.1907 5.59026 18.1879 5.4402ZM18.0365 5.16451C18.0135 5.27868 17.9993 5.39484 17.9878 5.509C17.9709 5.67103 17.9506 5.83255 17.9392 5.99507C17.9277 6.1551 17.9162 6.31513 17.9047 6.47516C17.8653 6.45223 17.8243 6.43079 17.7844 6.40786C17.7822 6.36598 17.779 6.3246 17.7784 6.28871C17.7768 6.15311 17.7746 6.01751 17.7686 5.88191C17.7626 5.7463 17.7587 5.6107 17.7505 5.4751C17.7472 5.41677 17.7363 5.35944 17.7298 5.30161C17.8304 5.25276 17.9326 5.20639 18.0365 5.16451ZM17.5395 5.40082C17.5373 5.42575 17.5318 5.45018 17.5302 5.4756C17.5225 5.6112 17.5182 5.7468 17.5121 5.8824C17.5067 6.00554 17.5045 6.12818 17.5029 6.25082C17.4717 6.23337 17.4405 6.21592 17.4094 6.19848C17.4088 6.17405 17.4088 6.14912 17.4077 6.12469C17.4039 6.04094 17.4033 5.95718 17.405 5.87343C17.4066 5.79267 17.4115 5.7124 17.4187 5.63164C17.4236 5.5763 17.4312 5.52047 17.4383 5.46513C17.4668 5.44718 17.4914 5.42724 17.5214 5.40979C17.5275 5.4068 17.5335 5.40381 17.5395 5.40082ZM17.1808 5.65208C17.1726 5.72287 17.165 5.79317 17.1606 5.86446C17.1568 5.92827 17.1557 5.99208 17.1546 6.05589C17.0972 6.02548 17.0425 5.99108 16.9845 5.96067C16.9534 5.94472 16.9211 5.93126 16.89 5.91531C16.9834 5.82358 17.0797 5.73584 17.1808 5.65208ZM10.7505 8.68915C10.7817 8.63631 10.8162 8.58446 10.8446 8.53062C11.0458 8.14575 11.3629 7.44681 11.0873 7.04598C11.0037 6.92434 10.8457 6.86851 10.7046 6.9054C10.7046 6.9054 10.7046 6.9054 10.7046 6.9049C10.6937 6.86352 10.6483 6.85255 10.6068 6.86053C10.5537 6.83859 10.4772 6.88745 10.4914 6.94977C10.4925 6.95475 10.4919 6.95924 10.493 6.96373C10.4799 6.98616 10.4668 7.00859 10.4526 7.03003C10.417 7.08337 10.3864 7.13971 10.3487 7.19205C10.2765 7.29126 10.1825 7.37402 10.0857 7.45229C9.88396 7.61531 9.62699 7.70854 9.35744 7.71153C9.27488 7.71252 9.27762 7.81971 9.35744 7.82669C9.66034 7.85311 9.97581 7.77384 10.23 7.62329C10.2475 7.61282 10.2612 7.59836 10.2782 7.58689C10.2776 7.58839 10.2776 7.58939 10.2771 7.59038C10.2743 7.59836 10.2705 7.60584 10.2678 7.61332C10.1841 7.6532 10.1333 7.74044 10.0808 7.80924C10.0256 7.88203 9.96487 7.94933 9.89653 8.01214C9.74727 8.14874 9.57012 8.25792 9.37767 8.33719C8.99823 8.49423 8.54443 8.54109 8.14421 8.42892C8.05783 8.40449 8.0283 8.52015 8.10758 8.54956C8.5488 8.71358 9.03322 8.7081 9.47226 8.54258C9.6494 8.47578 9.81069 8.38305 9.95995 8.27487C9.81124 8.53411 9.62808 8.77291 9.41266 8.98678C9.35744 9.0117 9.30331 9.03613 9.24918 9.05607C9.01846 9.14082 8.77789 9.20563 8.52912 9.22458C8.11688 9.25649 7.668 9.16127 7.40829 8.84719C7.35909 8.78786 7.24864 8.8417 7.29566 8.90701C7.5499 9.25898 8.00315 9.43097 8.45422 9.44344C8.5745 9.44693 8.69479 9.43496 8.81398 9.41552C8.69096 9.47983 8.5663 9.54015 8.44164 9.60147C8.33229 9.61493 8.2213 9.61842 8.11195 9.60745C7.78555 9.57605 7.45859 9.46687 7.16335 9.33974C6.56576 9.0825 6.04307 8.72854 5.63738 8.25044C5.60513 8.21206 5.5335 8.26241 5.56357 8.30229C5.97965 8.85217 6.5417 9.3193 7.21037 9.59798C7.43399 9.69121 7.668 9.77147 7.90911 9.81983C7.70463 9.86669 7.49468 9.89212 7.28309 9.8981C7.17265 9.87915 7.06275 9.85572 6.95613 9.82382C6.63191 9.7276 6.32574 9.57156 6.0633 9.37264C5.80688 9.17822 5.58927 8.9449 5.42853 8.67769C5.34761 8.54258 5.28473 8.39901 5.2224 8.25593C5.17538 8.14874 5.12836 8.04654 4.98238 8.06C4.87085 8.07047 4.84023 8.18364 4.92771 8.24446C4.95833 8.2659 5.00097 8.26839 5.03268 8.25593C5.05182 8.31974 5.06166 8.40599 5.06932 8.43091C5.09009 8.49921 5.1218 8.56552 5.15242 8.63033C5.22076 8.77341 5.30442 8.91 5.40174 9.03813C5.59036 9.2859 5.82382 9.50127 6.09064 9.67924C6.13438 9.70816 6.18358 9.7286 6.22896 9.75552C5.84241 9.63836 5.47609 9.45839 5.17812 9.20414C4.81125 8.89106 4.40065 8.402 4.59583 7.92041C4.79157 7.43733 5.3416 7.06443 5.74181 6.72592C5.97801 6.52651 6.21912 6.33208 6.4657 6.14314C6.63465 6.01352 6.8189 5.89586 6.97582 5.75478C6.99167 5.78718 7.00698 5.81959 7.02338 5.851C7.02284 5.8515 7.02229 5.851 7.02174 5.851C6.83585 5.93425 6.67183 6.05988 6.53405 6.19997C6.4657 6.26927 6.38971 6.34654 6.34214 6.4293C6.33011 6.45073 6.31808 6.47516 6.30988 6.49809C6.30277 6.51754 6.30277 6.54097 6.2984 6.56141C6.29348 6.58235 6.29348 6.60229 6.28364 6.62223C6.27325 6.64317 6.26341 6.66411 6.25411 6.68504C6.2399 6.71645 6.29567 6.73689 6.31371 6.70798C6.32519 6.68903 6.33613 6.66859 6.35034 6.65065C6.36401 6.6327 6.38533 6.61874 6.40392 6.60478C6.42087 6.59182 6.44001 6.58334 6.45586 6.56889C6.47391 6.55194 6.49195 6.53499 6.50726 6.51654C6.56412 6.44924 6.62153 6.38343 6.68714 6.32261C6.81234 6.20645 6.9534 6.11422 7.10376 6.02748C7.08735 6.0524 7.07095 6.07733 7.05455 6.10226C6.93536 6.28771 6.81945 6.47516 6.7019 6.66161C6.64668 6.74886 6.78828 6.82164 6.84843 6.73988C6.98019 6.56091 7.1136 6.38293 7.24427 6.20346C7.24427 6.20346 7.24427 6.20346 7.24427 6.20296C7.399 6.40437 7.59364 6.57537 7.86756 6.69551C7.95996 6.7359 8.08134 6.69302 8.08188 6.58783C8.08243 6.44076 8.06548 6.29519 8.03705 6.15111C8.09118 6.12619 8.12945 6.06985 8.09063 6.01302C8.02557 5.9178 7.95941 5.82208 7.8938 5.72586C7.87029 5.67501 7.84897 5.62267 7.82491 5.57182C7.92169 5.58129 7.97418 5.45666 7.88451 5.4078C7.83093 5.37839 7.7768 5.35396 7.72267 5.33252C7.70408 5.28815 7.68167 5.24528 7.66581 5.19941C7.51327 4.7627 7.42032 4.29856 7.43727 3.83891C7.46679 3.05671 7.87084 2.25756 8.64941 1.87768C9.04306 1.68574 9.49686 1.60697 9.93918 1.56111C9.71611 1.62343 9.49959 1.70568 9.2962 1.81038C8.8435 2.04369 8.47827 2.36325 8.20982 2.76906C8.17975 2.81442 8.25466 2.87026 8.29238 2.82689C8.58544 2.48639 8.96925 2.19225 9.38751 1.98736C9.59746 1.88466 9.82053 1.8039 10.0496 1.74607C10.27 1.69023 10.4974 1.67577 10.7188 1.62841C10.7445 1.63639 10.7713 1.64237 10.797 1.65134C10.674 1.67328 10.5526 1.7017 10.4356 1.73958C9.76805 1.95445 9.18358 2.33334 8.75547 2.84683C8.69807 2.91613 8.82163 2.99938 8.88615 2.93856C9.32026 2.52876 9.84787 2.17979 10.4378 1.98486C10.692 1.90111 10.9616 1.84826 11.2328 1.85375C11.247 1.85425 11.2612 1.85674 11.2754 1.85774C11.5236 1.98885 11.7522 2.15038 11.9561 2.33583C11.9589 2.34132 11.961 2.3463 11.9638 2.35178C11.8298 2.28349 11.6636 2.24709 11.5286 2.22516C11.2924 2.18677 11.0545 2.18677 10.8183 2.22217C10.3563 2.29146 9.93262 2.50234 9.67783 2.86577C9.63027 2.93357 9.73579 3.00187 9.79702 2.94953C10.0917 2.69926 10.4739 2.51381 10.8736 2.45747C11.0649 2.43055 11.2661 2.43255 11.4558 2.46645C11.5575 2.48439 11.6587 2.51032 11.7549 2.54522C11.8561 2.58211 11.9337 2.62548 12.0452 2.63196C12.0589 2.63296 12.0704 2.62747 12.0824 2.62349C12.1037 2.67832 12.1267 2.73466 12.1447 2.7875C12.171 2.86428 12.189 2.94205 12.2093 3.01932C12.1814 3.00437 12.1535 2.98941 12.1267 2.97595C11.9703 2.89768 11.8003 2.83736 11.6264 2.79947C11.2809 2.72469 10.9102 2.74812 10.5767 2.8583C10.4624 2.89618 10.5067 3.05472 10.6275 3.0268C10.9343 2.95501 11.2481 2.96997 11.5515 3.04574C11.697 3.08214 11.8347 3.13448 11.9643 3.20378C12.0305 3.23918 12.0955 3.27806 12.1551 3.32243C12.1737 3.33589 12.1907 3.34835 12.2076 3.36132C11.9824 3.27607 11.7254 3.24865 11.5122 3.36879C11.4143 3.42413 11.4996 3.55275 11.6013 3.50838C11.8599 3.39522 12.1251 3.56372 12.3137 3.71727C12.3203 3.85237 12.3192 3.98797 12.311 4.12457C12.2115 4.09316 12.113 4.05976 12.0135 4.02885C11.8812 3.98797 11.791 4.06375 11.7675 4.15797C11.7227 4.19686 11.7068 4.26067 11.7604 4.30853C11.8867 4.4207 12.0584 4.47404 12.2295 4.5224C13.7555 5.10569 15.1901 5.88639 16.5679 6.71645C17.2765 7.1432 17.967 7.59986 18.6379 8.07496C19.2202 8.48725 19.7489 8.9788 20.3235 9.40206C20.1081 9.4908 19.8943 9.58253 19.6794 9.67276C19.6253 9.60795 19.5471 9.57305 19.4668 9.53616C19.3727 9.49279 19.2792 9.44892 19.1857 9.40455C19.0048 9.3188 18.8254 9.23056 18.6472 9.14033C18.2847 8.95687 17.9178 8.78288 17.5608 8.59144C17.5056 8.56203 17.4608 8.63581 17.5116 8.66821C17.8511 8.88657 18.1868 9.10792 18.5411 9.30584C18.715 9.40305 18.8894 9.49877 19.0649 9.593C19.1557 9.64185 19.2464 9.68971 19.3377 9.73757C19.3656 9.75253 19.3946 9.76649 19.4236 9.78094C18.762 10.0616 18.1054 10.3498 17.4558 10.6499C16.8571 10.2565 16.2371 9.90109 15.581 9.59C14.8839 9.25898 14.1786 8.98778 13.4455 8.73302C13.4187 8.72405 13.3995 8.76493 13.4258 8.7754C14.7363 9.28939 15.9703 10.0098 17.0955 10.8149C16.9047 10.9051 16.7216 11.0043 16.5335 11.0976C16.5313 11.0821 16.5318 11.0657 16.5209 11.0512C16.4023 10.8922 16.2065 10.7925 16.037 10.6813C15.8397 10.5517 15.6384 10.428 15.4345 10.3074C15.0266 10.0666 14.6095 9.83678 14.1808 9.62789C13.3547 9.22458 12.4684 8.83124 11.5608 8.60939C11.5318 8.60241 11.5122 8.64129 11.54 8.65475C12.3809 9.0471 13.2339 9.39508 14.048 9.83628C14.4416 10.0497 14.8298 10.2715 15.2076 10.5073C15.4083 10.6329 15.6062 10.7626 15.803 10.8932C15.9643 10.9999 16.1229 11.137 16.306 11.2127C16.2699 11.2312 16.2333 11.2486 16.1978 11.2671C16.1901 11.2516 16.1863 11.2367 16.1759 11.2212C16.0053 10.9704 15.7341 10.8917 15.4531 10.7675C15.218 10.6633 14.9835 10.5577 14.7473 10.4555C14.2404 10.2366 13.7341 10.0167 13.23 9.79291C12.4023 9.42748 11.5734 9.06505 10.7505 8.68915ZM15.37 11.7113C15.2732 11.7651 15.1786 11.8219 15.083 11.8768C15.0819 11.8494 15.0808 11.8219 15.0802 11.7945C15.0775 11.7182 15.0748 11.6425 15.072 11.5662C15.1688 11.6155 15.2672 11.6674 15.37 11.7113ZM14.8659 11.4645C14.8621 11.5747 14.8577 11.6843 14.8539 11.7945C14.8511 11.8673 14.8484 11.9401 14.8462 12.0134C14.7801 12.0523 14.7123 12.0892 14.6461 12.1285C14.6445 12.0961 14.6423 12.0642 14.6417 12.0333C14.6395 11.9276 14.6319 11.8224 14.6248 11.7168C14.6166 11.5921 14.6149 11.4675 14.6117 11.3424C14.6964 11.3827 14.7812 11.4241 14.8659 11.4645ZM14.3875 12.2771C14.3306 12.312 14.2749 12.3494 14.218 12.3848C14.218 12.308 14.212 12.2307 14.2098 12.154C14.2054 12.0094 14.2038 11.8643 14.2032 11.7197C14.2027 11.5238 14.1918 11.3294 14.183 11.1345C14.2114 11.1489 14.2393 11.1634 14.2683 11.1778C14.3175 11.2023 14.3678 11.2252 14.4176 11.2496C14.4137 11.4057 14.4116 11.5617 14.4012 11.7173C14.3941 11.819 14.387 11.9202 14.3848 12.0224C14.3826 12.1031 14.3689 12.1948 14.3875 12.2771ZM13.902 12.4207C13.9053 12.4556 13.9113 12.4935 13.9304 12.5239C13.9381 12.5358 13.9506 12.5433 13.9616 12.5523C13.9239 12.5762 13.8872 12.6017 13.8495 12.6256C13.8446 12.5428 13.8386 12.4601 13.8331 12.3773C13.8211 12.1934 13.809 12.0099 13.797 11.8259C13.7762 11.5138 13.7429 11.2033 13.7112 10.8927C13.7954 10.9355 13.8796 10.9789 13.9638 11.0213C13.9282 11.2521 13.9036 11.4839 13.8987 11.7187C13.8954 11.8748 13.8954 12.0308 13.8976 12.1864C13.8982 12.2641 13.8943 12.3434 13.902 12.4207ZM13.58 12.3778C13.581 12.4765 13.58 12.5757 13.5827 12.6744C13.5838 12.7168 13.5827 12.7577 13.5898 12.7961C13.5149 12.8459 13.4383 12.8938 13.364 12.9441C13.3454 12.5757 13.3317 12.2108 13.3525 11.8389C13.3733 11.4745 13.3979 11.1095 13.4219 10.7451C13.4783 10.774 13.5351 10.8029 13.5914 10.8314C13.5821 11.1629 13.5718 11.4939 13.575 11.8254C13.5767 12.0099 13.5783 12.1938 13.58 12.3778ZM13.0928 13.0553C12.9703 12.6959 12.9457 12.2985 12.9681 11.9311C12.9955 11.4934 13.1016 11.0657 13.2153 10.6404C13.2213 10.6434 13.2279 10.6469 13.2339 10.6499C13.1923 11.0462 13.1491 11.4426 13.1108 11.8394C13.0726 12.2387 13.0507 12.653 13.0928 13.0553ZM12.2716 13.7258C12.2235 13.7622 12.1743 13.7971 12.1262 13.8335C12.1054 13.7882 12.0846 13.7428 12.0649 13.6959C11.9933 13.5244 11.937 13.3475 11.8954 13.168C11.8151 12.822 11.791 12.4665 11.8156 12.1136C11.8621 11.451 12.0857 10.8104 12.4066 10.2167C12.4876 10.2595 12.5674 10.3044 12.6483 10.3468C12.072 11.3822 11.9271 12.6066 12.2716 13.7258ZM11.1688 11.8618C11.2207 11.4136 11.3033 10.957 11.4919 10.5377C11.5843 10.3328 11.7194 10.1653 11.8501 9.98235C11.8604 9.96789 11.8697 9.95094 11.879 9.933C11.9736 9.98435 12.0682 10.0347 12.1628 10.0855C11.7948 10.7042 11.5335 11.3718 11.469 12.0772C11.434 12.4586 11.4575 12.8444 11.5384 13.2203C11.5914 13.4676 11.6653 13.8091 11.8282 14.0554C11.809 14.0708 11.7883 14.0843 11.7691 14.0992C11.7046 14.1501 11.6423 14.2039 11.5783 14.2553C11.5089 14.1381 11.4378 14.022 11.3815 13.8988C11.2918 13.7029 11.2344 13.493 11.1929 13.2846C11.0983 12.815 11.1136 12.3344 11.1688 11.8618ZM9.98948 16.4214C10.3017 16.1692 10.6155 15.9189 10.9299 15.6696C10.3148 16.2893 9.70189 16.911 9.08243 17.5277C9.02939 17.5805 9.11414 17.6588 9.16936 17.6069C10.1579 16.6792 11.1666 15.7703 12.1464 14.8356C12.3028 14.6865 12.4602 14.538 12.6188 14.3904C14.2207 13.2408 15.9523 12.2726 17.7784 11.4446C19.5942 10.6215 21.4449 9.88564 23.3191 9.20414C24.6308 8.84121 25.9544 8.47379 27.1496 7.891C28.0375 7.60335 28.9287 7.32317 29.8238 7.04897C29.9216 7.07988 30.0277 7.08786 30.1206 7.06692C30.4115 7.00211 30.5181 6.75235 30.4837 6.50707C30.353 5.59176 30.9293 4.71833 31.5876 4.07472C31.903 3.76662 32.2907 3.35683 32.7729 3.299C33.3229 3.23269 33.9364 3.28105 34.488 3.32592C35.4853 3.40768 36.5947 3.7058 37.0479 4.60017C37.3973 5.28865 37.2628 6.01701 37.3005 6.73141C37.2945 6.73739 37.2879 6.74337 37.2819 6.74936C37.2169 6.73141 37.1507 6.71745 37.0845 6.70249C37.0867 6.66012 37.0949 6.61824 37.0944 6.57537C37.0906 6.33906 37.0452 6.10176 36.9746 5.87443C36.8308 5.4093 36.5799 4.98504 36.3207 4.56627C36.26 4.46806 36.1102 4.55431 36.1584 4.65252C36.3574 5.05783 36.552 5.47261 36.6696 5.90484C36.7253 6.11023 36.7592 6.31962 36.757 6.5315C36.7565 6.5654 36.7494 6.5988 36.7472 6.6327C36.7111 6.62721 36.675 6.62123 36.6378 6.61625C36.6264 6.61076 36.6154 6.60378 36.6007 6.60428C36.6001 6.60428 36.6001 6.60428 36.5996 6.60428C36.412 5.60422 36.0599 4.5239 35.1398 3.89824C35.0758 3.85487 35.0042 3.94709 35.0567 3.99645C35.8101 4.70487 36.0824 5.63962 36.2672 6.57985C36.1868 6.57487 36.1059 6.57138 36.0255 6.57138C36.0124 6.48513 36.0009 6.39839 35.9807 6.31364C35.9216 6.06686 35.8303 5.82707 35.7067 5.60123C35.4596 5.15105 35.1124 4.77017 34.6668 4.47255C34.6204 4.44164 34.5635 4.50994 34.6056 4.54484C35.1179 4.97208 35.4804 5.53243 35.6543 6.14413C35.6953 6.28821 35.7253 6.43478 35.7412 6.58334C35.6406 6.59232 35.5416 6.60727 35.4443 6.62771C35.4427 6.60927 35.4388 6.59182 35.4345 6.57786C35.3973 6.4637 35.341 6.35252 35.2748 6.24982C35.201 6.13516 35.0944 6.03645 34.9812 5.9532C34.9479 5.92827 34.8866 5.96067 34.9161 5.99906C34.9894 6.09478 35.0435 6.19698 35.1037 6.29968C35.1622 6.39938 35.2065 6.50507 35.2371 6.61475C35.242 6.6327 35.2502 6.65364 35.2595 6.67358C35.0802 6.72892 34.9107 6.80768 34.7592 6.92085C34.5105 7.1068 34.7313 7.40642 34.9834 7.43933C35.1261 7.45777 35.2682 7.46126 35.4109 7.46027C35.4257 7.47223 35.4443 7.4827 35.4667 7.48918C35.8194 7.59487 36.1726 7.58889 36.5033 7.50264C36.9582 7.58989 37.3918 7.76138 37.7625 8.01813C38.3 8.39003 38.6586 8.93294 38.7291 9.52071C38.692 9.62291 38.6559 9.72311 38.6176 9.82083C38.6171 9.81534 38.6171 9.80986 38.616 9.80437C38.4919 9.02467 37.8303 8.4339 37.096 8.07994C37.0359 8.05103 36.9604 8.1278 37.0195 8.17068C37.5821 8.57748 38.1879 9.14232 38.2852 9.81883C38.3185 10.0482 38.2967 10.2825 38.2311 10.5058C38.1961 10.5467 38.1594 10.5871 38.119 10.626C38.2436 10.1399 38.0884 9.51722 37.6039 9.23904C37.534 9.19915 37.4459 9.27892 37.4902 9.34273C37.7532 9.72062 37.9407 10.1354 37.7833 10.5851C37.7209 10.7631 37.6034 10.9186 37.4618 11.0522C37.0851 11.2302 36.663 11.3473 36.259 11.3763C35.1288 11.4575 34.2469 10.6683 33.5198 9.98385C33.4602 9.92751 33.3765 10.0098 33.4279 10.0676C34.2169 10.9625 35.1622 11.8877 36.5427 11.7028C36.5985 11.6953 36.6537 11.6804 36.7095 11.6704C36.5651 11.7207 36.4197 11.7656 36.2715 11.798C35.9834 11.8389 35.6931 11.8439 35.3907 11.7796C34.885 11.6724 34.4197 11.4241 34.0315 11.114C33.2475 10.4874 32.64 9.6259 32.4962 8.6737C32.4864 8.60939 32.3683 8.62434 32.3721 8.68915C32.4241 9.57206 32.9151 10.438 33.5777 11.0956C32.7428 10.4909 32.0195 9.61144 31.9528 8.63332C31.9408 8.46033 31.7062 8.4359 31.634 8.58895C31.5247 8.82077 31.5034 9.05508 31.534 9.28739C31.2431 9.32778 30.9446 9.43546 30.675 9.50775C30.3071 9.60596 29.9402 9.70766 29.5739 9.81285C28.8249 10.0277 28.0796 10.2555 27.341 10.4993C26.6144 10.7386 25.9266 11.0577 25.2158 11.3314C24.5034 11.6061 23.7915 11.8738 23.0966 12.1849C23.0567 12.2028 23.0851 12.2666 23.1272 12.2512C23.838 11.9934 24.5427 11.7182 25.2584 11.473C25.9911 11.2222 26.7532 11.0477 27.4935 10.8154C28.2185 10.5881 28.9484 10.3737 29.6827 10.1723C30.0501 10.0716 30.4181 9.97437 30.7877 9.88065C31.0534 9.81335 31.3612 9.76798 31.6302 9.67376C31.657 9.74804 31.6871 9.82132 31.7204 9.89411C31.6805 9.90458 31.64 9.91555 31.6007 9.92602C31.4722 9.95992 31.3448 9.99681 31.218 10.0357C30.9686 10.1125 30.7385 10.2261 30.5045 10.3343C30.4372 10.3652 30.4837 10.4669 30.5559 10.4455C30.8008 10.3737 31.0528 10.3258 31.3 10.2585C31.4235 10.2246 31.5482 10.1937 31.6729 10.1648C31.7275 10.1524 31.7833 10.1414 31.8385 10.1294C31.8724 10.1927 31.9074 10.255 31.9435 10.3159C31.967 10.3553 31.9932 10.3951 32.0173 10.4345C30.0211 10.8912 28.0922 11.5418 26.1682 12.2013C24.4454 12.7921 22.6521 13.3116 20.9763 14.0215C20.8763 14.0549 20.7768 14.0893 20.6794 14.1222C20.2481 14.2692 19.8227 14.4298 19.4044 14.6043C18.5258 14.9712 17.6734 15.3924 16.8582 15.8661C16.0769 16.3202 15.3148 16.8352 14.6226 17.3976C14.2683 17.6857 13.9288 17.9888 13.5892 18.2909C13.2667 18.5776 12.8834 18.8727 12.6538 19.2297C12.633 19.2621 12.6767 19.3074 12.7128 19.2835C13.0731 19.0517 13.3673 18.7172 13.6888 18.4425C14.0135 18.1648 14.3547 17.9061 14.7063 17.6563C15.4619 17.1204 16.2311 16.6163 17.0425 16.1532C17.3208 15.9947 17.6073 15.8486 17.8927 15.7015C17.1054 16.226 16.347 16.7898 15.6084 17.3457C14.4017 18.254 13.2869 19.2327 12.241 20.2806C12.0622 20.1385 11.8703 20.0129 11.6549 19.9326C11.5603 19.8972 11.4908 20.0253 11.5581 20.0842C11.668 20.1799 11.7817 20.2701 11.896 20.3598C11.7391 20.4222 11.616 20.5448 11.6363 20.7223C11.6428 20.7786 11.6521 20.8315 11.6642 20.8823C11.5368 21.0164 11.405 21.1465 11.2798 21.2831C11.13 21.4456 11.3569 21.674 11.5357 21.5249C11.6406 21.4377 11.7495 21.3549 11.855 21.2682C11.8692 21.2866 11.8812 21.3051 11.8971 21.323C12.0239 21.4641 12.1529 21.6017 12.2661 21.7532C12.4908 22.0549 12.6817 22.3769 12.7954 22.7274C12.9763 23.2847 12.9714 23.9358 12.6128 24.4359C12.7533 24.0026 12.668 23.5166 12.5756 23.0823C12.4936 22.6955 12.306 22.335 11.9512 22.0997C11.9042 22.0688 11.8484 22.1366 11.89 22.172C12.1508 22.3969 12.2399 22.7119 12.294 23.024C12.3542 23.372 12.4072 23.7504 12.3596 24.1013C12.3203 24.3915 12.1573 24.6069 11.9419 24.7948C12.2667 24.212 12.1595 23.5161 11.8293 22.9512C11.7932 22.8894 11.6964 22.9338 11.7106 22.9971C11.8304 23.53 11.9769 24.1163 11.6549 24.6153C11.5373 24.7973 11.347 24.9663 11.124 25.0331C11.0485 25.0555 10.9731 25.0595 10.8965 25.0585C10.99 24.9967 11.0638 24.9264 11.1349 24.8427C11.2771 24.6747 11.3662 24.5017 11.3875 24.2888C11.4077 24.0894 11.3689 23.885 11.2793 23.703C11.2486 23.6412 11.148 23.6866 11.1639 23.7474C11.2065 23.9114 11.2011 24.0774 11.1442 24.2379C11.0934 24.3825 11.007 24.548 10.8845 24.6532C10.7664 24.7549 10.6078 24.8352 10.463 24.8751C10.3706 24.9005 10.311 24.909 10.2284 24.9135C10.1869 24.9159 10.1448 24.9194 10.1032 24.9249C10.0742 24.912 10.0447 24.8995 10.0168 24.8855C10.1573 24.8471 10.2885 24.7873 10.4072 24.7086C10.5483 24.6143 10.7117 24.4842 10.7292 24.3167C10.7374 24.2389 10.6357 24.2055 10.5718 24.234C10.5067 24.2629 10.4624 24.3102 10.4066 24.3511C10.3553 24.389 10.3011 24.4234 10.2432 24.4528C10.1294 24.5106 9.99385 24.5386 9.85607 24.559C9.85061 24.56 9.85115 24.56 9.8506 24.56C9.84678 24.56 9.84678 24.56 9.83912 24.5605C9.82217 24.5615 9.80577 24.563 9.78937 24.5645C9.75274 24.5675 9.71611 24.5695 9.67893 24.5695C9.64558 24.5695 9.61222 24.5685 9.57887 24.566C9.57778 24.566 9.54497 24.5625 9.54169 24.5625C9.53459 24.5615 9.52748 24.5605 9.52037 24.559C9.2213 24.3042 8.98073 23.9862 8.7686 23.6417C8.51545 23.2304 8.28473 22.7872 8.12781 22.3375C8.05017 22.1152 7.99276 21.8834 7.96488 21.651C7.9616 21.6256 7.95941 21.6007 7.95723 21.5753C8.07204 21.3983 8.23716 21.2477 8.46898 21.1415C8.56849 21.0962 8.49905 20.9516 8.39353 20.979C8.19287 21.0309 8.03924 21.1281 7.91021 21.2452C7.89435 21.1749 7.87412 21.1052 7.84022 21.0374C7.79156 20.9411 7.65488 20.9641 7.59692 21.0334C7.50015 21.1495 7.44985 21.2926 7.42415 21.4457C7.28692 21.483 7.15078 21.5279 7.00808 21.5464C6.7779 21.5768 6.53678 21.5753 6.3066 21.5478C5.84351 21.4925 5.36839 21.328 5.01027 21.0523C4.96817 21.0199 4.90967 21.0712 4.94903 21.1081C5.30824 21.4471 5.74619 21.6839 6.25575 21.7757C6.50343 21.8205 6.75548 21.8345 7.00753 21.8106C7.05564 21.8061 7.10758 21.8001 7.15898 21.7941C6.42798 22.0319 5.6434 22.0324 4.92005 21.7174C4.14696 21.3803 3.6024 20.7886 3.39026 20.0288C3.37058 19.9585 3.25467 19.9884 3.27162 20.0587C3.46353 20.8339 4.05401 21.5942 4.83312 21.9681C5.3159 22.1994 5.88342 22.2976 6.43946 22.2662C5.60895 22.4088 4.73143 22.2239 4.03761 21.7847C3.2749 21.3016 2.86976 20.4944 2.88452 19.6569C2.90092 18.7192 3.42744 17.7949 4.33886 17.3347C4.65816 17.1737 5.01136 17.073 5.37276 17.0316C6.13766 17.1792 6.84405 17.5202 7.56029 17.8263C7.54935 17.8487 7.53842 17.8717 7.52694 17.8941C7.50999 17.9405 7.50671 17.9873 7.51764 18.0337C7.52748 18.11 7.55974 18.1807 7.61988 18.2366C7.62371 18.2401 7.62754 18.2436 7.63082 18.2471C7.65269 18.2675 7.67948 18.281 7.70518 18.2949C7.75165 18.3388 7.81781 18.3602 7.88342 18.3438C7.88506 18.3438 7.88724 18.3438 7.88943 18.3438C8.0119 18.3488 8.17155 18.282 8.22513 18.1753C8.28637 18.0531 8.3651 17.94 8.45476 17.8338C8.47882 17.8083 8.50233 17.7819 8.52803 17.7575C8.56903 17.7191 8.61441 17.6842 8.65433 17.6448C8.69369 17.6054 8.73579 17.568 8.77898 17.5317C8.84022 17.4803 8.87849 17.4135 8.92551 17.3522C8.94301 17.3293 8.9441 17.2998 8.95121 17.2724C8.95504 17.2689 8.95832 17.2649 8.96214 17.2619C9.29183 16.9748 9.64448 16.7001 9.98948 16.4214Z" fill="#231F20"/>
</svg>
