<svg width="18" height="18" viewBox="0 0 18 18" fill="none" xmlns="http://www.w3.org/2000/svg">
<path d="M3.81055 15.1531L3.83777 15.1753C5.8963 16.8564 8.70596 17.5559 11.4693 16.816C15.0484 15.8577 17.4861 12.7653 17.7813 9.27477C17.7843 9.24245 17.7874 9.19487 17.7925 9.13126C17.4164 8.82082 17.109 8.70861 16.8713 8.7936C10.7271 10.9842 6.37365 13.104 3.81055 15.1531Z" fill="#4A3BE4"/>
<path d="M3.8125 15.1511L3.83973 15.1733C5.89825 16.8544 8.70791 17.5539 11.4703 16.814C15.0494 15.8557 17.487 12.7633 17.7822 9.27277C17.7853 9.24045 17.7883 9.19287 17.7934 9.12926C17.4173 8.81984 17.1099 8.70661 16.8723 8.7916C10.729 10.9812 6.37535 13.101 3.8125 15.1511Z" fill="url(#paint0_linear_138_1504)"/>
<path d="M16.9568 12.278L17.0074 12.1709C18.8687 8.19304 17.4069 3.3844 13.5313 1.14725C10.3222 -0.704657 6.41126 -0.242826 3.73416 2.01671C3.69743 2.04761 3.66105 2.07891 3.625 2.11061C3.62805 2.64038 3.74332 2.9587 3.97182 3.06684C8.92296 5.4162 12.7962 7.01849 14.5252 8.33757C16.3743 9.74774 17.1853 11.061 16.9568 12.278Z" fill="#B71E5E"/>
<path d="M16.9568 12.278L17.0074 12.1709C18.8687 8.19304 17.4069 3.3844 13.5313 1.14725C10.3222 -0.704657 6.41126 -0.242826 3.73416 2.01671C3.69743 2.04761 3.66105 2.07891 3.625 2.11061C3.62805 2.64038 3.74332 2.9587 3.97182 3.06684C8.92296 5.4162 12.7962 7.01849 14.5252 8.33757C16.3743 9.74774 17.1853 11.061 16.9568 12.278Z" fill="url(#paint1_linear_138_1504)"/>
<path d="M8.6289 0.0243976L8.51159 0.0335579C4.13577 0.410657 0.701172 4.08215 0.701172 8.55518C0.701172 12.26 3.05689 15.415 6.35307 16.6027L6.48844 16.6503C5.96376 10.5669 5.85053 6.37172 6.14773 4.06587C6.44289 1.76104 7.27088 0.413456 8.6289 0.0243976Z" fill="#F15522"/>
<path d="M8.6289 0.0243976L8.51159 0.0335579C4.13577 0.410657 0.701172 4.08215 0.701172 8.55518C0.701172 12.26 3.05689 15.415 6.35307 16.6027L6.48844 16.6503C5.96376 10.5669 5.85053 6.37172 6.14773 4.06587C6.44289 1.76104 7.27088 0.413456 8.6289 0.0243976Z" fill="url(#paint2_linear_138_1504)"/>
<path d="M3.8108 15.1533L3.83803 15.1755C4.751 15.9205 5.81054 16.4726 6.94896 16.7933C6.9622 16.7963 6.98026 16.8024 7.00673 16.8095L6.57187 13.3062L6.5253 13.3335C5.81869 13.7419 4.9136 14.3485 3.81055 15.1533H3.8108Z" fill="#4A3BE4"/>
<defs>
<linearGradient id="paint0_linear_138_1504" x1="10.0695" y1="14.6163" x2="20.5387" y2="8.10229" gradientUnits="userSpaceOnUse">
<stop stop-opacity="0"/>
<stop offset="1"/>
</linearGradient>
<linearGradient id="paint1_linear_138_1504" x1="11.5499" y1="5.26785" x2="-2.64191" y2="-0.0418092" gradientUnits="userSpaceOnUse">
<stop stop-color="#B71E5E"/>
<stop offset="1"/>
</linearGradient>
<linearGradient id="paint2_linear_138_1504" x1="5.84544" y1="8.47248" x2="10.1505" y2="21.1317" gradientUnits="userSpaceOnUse">
<stop stop-opacity="0"/>
<stop offset="1"/>
</linearGradient>
</defs>
</svg>
