<svg width="12" height="53" viewBox="0 0 12 53" fill="none" xmlns="http://www.w3.org/2000/svg">
<path fill-rule="evenodd" clip-rule="evenodd" d="M1 2.03846C1.55228 2.03846 2 1.58214 2 1.01923C2 0.456325 1.55228 0 1 0C0.447715 0 0 0.456325 0 1.01923C0 1.58214 0.447715 2.03846 1 2.03846ZM1 12.2308C1.55228 12.2308 2 11.7744 2 11.2115C2 10.6486 1.55228 10.1923 1 10.1923C0.447715 10.1923 0 10.6486 0 11.2115C0 11.7744 0.447715 12.2308 1 12.2308ZM2 21.4038C2 21.9668 1.55228 22.4231 1 22.4231C0.447715 22.4231 0 21.9668 0 21.4038C0 20.8409 0.447715 20.3846 1 20.3846C1.55228 20.3846 2 20.8409 2 21.4038ZM1 32.6154C1.55228 32.6154 2 32.1591 2 31.5962C2 31.0332 1.55228 30.5769 1 30.5769C0.447715 30.5769 0 31.0332 0 31.5962C0 32.1591 0.447715 32.6154 1 32.6154ZM2 41.7885C2 42.3514 1.55228 42.8077 1 42.8077C0.447715 42.8077 0 42.3514 0 41.7885C0 41.2256 0.447715 40.7692 1 40.7692C1.55228 40.7692 2 41.2256 2 41.7885ZM1 53C1.55228 53 2 52.5437 2 51.9808C2 51.4179 1.55228 50.9615 1 50.9615C0.447715 50.9615 0 51.4179 0 51.9808C0 52.5437 0.447715 53 1 53ZM12 1.01923C12 1.58214 11.5523 2.03846 11 2.03846C10.4477 2.03846 10 1.58214 10 1.01923C10 0.456325 10.4477 0 11 0C11.5523 0 12 0.456325 12 1.01923ZM11 12.2308C11.5523 12.2308 12 11.7744 12 11.2115C12 10.6486 11.5523 10.1923 11 10.1923C10.4477 10.1923 10 10.6486 10 11.2115C10 11.7744 10.4477 12.2308 11 12.2308ZM12 21.4038C12 21.9668 11.5523 22.4231 11 22.4231C10.4477 22.4231 10 21.9668 10 21.4038C10 20.8409 10.4477 20.3846 11 20.3846C11.5523 20.3846 12 20.8409 12 21.4038ZM11 32.6154C11.5523 32.6154 12 32.1591 12 31.5962C12 31.0332 11.5523 30.5769 11 30.5769C10.4477 30.5769 10 31.0332 10 31.5962C10 32.1591 10.4477 32.6154 11 32.6154ZM12 41.7885C12 42.3514 11.5523 42.8077 11 42.8077C10.4477 42.8077 10 42.3514 10 41.7885C10 41.2256 10.4477 40.7692 11 40.7692C11.5523 40.7692 12 41.2256 12 41.7885ZM11 53C11.5523 53 12 52.5437 12 51.9808C12 51.4179 11.5523 50.9615 11 50.9615C10.4477 50.9615 10 51.4179 10 51.9808C10 52.5437 10.4477 53 11 53Z" fill="url(#paint0_linear_133_1452)"/>
<defs>
<linearGradient id="paint0_linear_133_1452" x1="-7.8" y1="167.765" x2="22.3041" y2="-45.4037" gradientUnits="userSpaceOnUse">
<stop stop-color="#F2F1F4"/>
<stop offset="1" stop-color="#F2F1F4" stop-opacity="0"/>
</linearGradient>
</defs>
</svg>
