<svg width="225" height="235" viewBox="0 0 225 235" fill="none" xmlns="http://www.w3.org/2000/svg">
<g filter="url(#filter0_b_132_119)">
<path d="M101 35L106.303 54.6967L126 60L106.303 65.3033L101 85L95.6967 65.3033L76 60L95.6967 54.6967L101 35Z" fill="url(#paint0_linear_132_119)"/>
<path d="M151.5 205L154.152 214.848L164 217.5L154.152 220.152L151.5 230L148.848 220.152L139 217.5L148.848 214.848L151.5 205Z" fill="url(#paint1_linear_132_119)"/>
<path d="M181 85L184.606 94.8483L198 97.5L184.606 100.152L181 110L177.394 100.152L164 97.5L177.394 94.8483L181 85Z" fill="url(#paint2_linear_132_119)"/>
<path d="M30 110L33.6062 119.848L47 122.5L33.6062 125.152L30 135L26.3938 125.152L13 122.5L26.3938 119.848L30 110Z" fill="url(#paint3_linear_132_119)"/>
</g>
<g opacity="0.8" filter="url(#filter1_f_132_119)">
<path d="M108 20L113.303 39.6967L133 45L113.303 50.3033L108 70L102.697 50.3033L83 45L102.697 39.6967L108 20Z" fill="url(#paint4_linear_132_119)"/>
<path d="M158.5 190L161.152 199.848L171 202.5L161.152 205.152L158.5 215L155.848 205.152L146 202.5L155.848 199.848L158.5 190Z" fill="url(#paint5_linear_132_119)"/>
<path d="M188 70L191.606 79.8483L205 82.5L191.606 85.1517L188 95L184.394 85.1517L171 82.5L184.394 79.8483L188 70Z" fill="url(#paint6_linear_132_119)"/>
<path d="M37 95L40.6062 104.848L54 107.5L40.6062 110.152L37 120L33.3938 110.152L20 107.5L33.3938 104.848L37 95Z" fill="url(#paint7_linear_132_119)"/>
</g>
<defs>
<filter id="filter0_b_132_119" x="-987" y="-965" width="2185" height="2195" filterUnits="userSpaceOnUse" color-interpolation-filters="sRGB">
<feFlood flood-opacity="0" result="BackgroundImageFix"/>
<feGaussianBlur in="BackgroundImage" stdDeviation="500"/>
<feComposite in2="SourceAlpha" operator="in" result="effect1_backgroundBlur_132_119"/>
<feBlend mode="normal" in="SourceGraphic" in2="effect1_backgroundBlur_132_119" result="shape"/>
</filter>
<filter id="filter1_f_132_119" x="0" y="0" width="225" height="235" filterUnits="userSpaceOnUse" color-interpolation-filters="sRGB">
<feFlood flood-opacity="0" result="BackgroundImageFix"/>
<feBlend mode="normal" in="SourceGraphic" in2="BackgroundImageFix" result="shape"/>
<feGaussianBlur stdDeviation="10" result="effect1_foregroundBlur_132_119"/>
</filter>
<linearGradient id="paint0_linear_132_119" x1="23.8378" y1="133.205" x2="148.669" y2="-11.8001" gradientUnits="userSpaceOnUse">
<stop stop-color="white"/>
<stop offset="1" stop-color="#52B8E3"/>
</linearGradient>
<linearGradient id="paint1_linear_132_119" x1="112.919" y1="254.103" x2="175.335" y2="181.6" gradientUnits="userSpaceOnUse">
<stop stop-color="white"/>
<stop offset="1" stop-color="#52B8E3"/>
</linearGradient>
<linearGradient id="paint2_linear_132_119" x1="128.53" y1="134.103" x2="185.578" y2="43.979" gradientUnits="userSpaceOnUse">
<stop stop-color="white"/>
<stop offset="1" stop-color="#52B8E3"/>
</linearGradient>
<linearGradient id="paint3_linear_132_119" x1="-22.4703" y1="159.103" x2="34.5775" y2="68.979" gradientUnits="userSpaceOnUse">
<stop stop-color="white"/>
<stop offset="1" stop-color="#52B8E3"/>
</linearGradient>
<linearGradient id="paint4_linear_132_119" x1="30.8378" y1="118.205" x2="155.669" y2="-26.8001" gradientUnits="userSpaceOnUse">
<stop offset="0.507576" stop-color="white"/>
<stop offset="1" stop-color="#52B8E3"/>
</linearGradient>
<linearGradient id="paint5_linear_132_119" x1="119.919" y1="239.103" x2="182.335" y2="166.6" gradientUnits="userSpaceOnUse">
<stop offset="0.507576" stop-color="white"/>
<stop offset="1" stop-color="#52B8E3"/>
</linearGradient>
<linearGradient id="paint6_linear_132_119" x1="135.53" y1="119.103" x2="192.578" y2="28.979" gradientUnits="userSpaceOnUse">
<stop offset="0.507576" stop-color="white"/>
<stop offset="1" stop-color="#52B8E3"/>
</linearGradient>
<linearGradient id="paint7_linear_132_119" x1="-15.4703" y1="144.103" x2="41.5775" y2="53.979" gradientUnits="userSpaceOnUse">
<stop offset="0.507576" stop-color="white"/>
<stop offset="1" stop-color="#52B8E3"/>
</linearGradient>
</defs>
</svg>
