<svg width="40" height="40" viewBox="0 0 40 40" fill="none" xmlns="http://www.w3.org/2000/svg">
<g clip-path="url(#clip0_273_266)">
<path d="M12.5836 36.2501C27.6742 36.2501 35.9305 23.7446 35.9305 12.9032C35.9305 12.5517 35.9227 12.1923 35.907 11.8407C37.5131 10.6792 38.8992 9.24055 40 7.59229C38.5042 8.25779 36.9161 8.69243 35.2898 8.88135C37.0021 7.85497 38.2842 6.24258 38.8984 4.34307C37.2876 5.29772 35.526 5.97114 33.6891 6.33447C32.4514 5.01939 30.815 4.14865 29.0328 3.85687C27.2506 3.5651 25.422 3.86854 23.8296 4.72028C22.2372 5.57203 20.9697 6.92463 20.2231 8.56897C19.4765 10.2133 19.2924 12.0578 19.6992 13.8173C16.4375 13.6536 13.2466 12.8063 10.3333 11.3303C7.42004 9.85428 4.84949 7.78252 2.78828 5.24932C1.74067 7.05553 1.42009 9.19286 1.89172 11.2269C2.36334 13.261 3.59177 15.0392 5.32734 16.2001C4.02438 16.1587 2.74996 15.8079 1.60938 15.1767V15.2782C1.60821 17.1737 2.2635 19.0111 3.46385 20.4781C4.6642 21.945 6.33554 22.9511 8.19375 23.3251C6.98676 23.6553 5.71997 23.7035 4.49141 23.4657C5.01576 25.0958 6.03596 26.5216 7.40962 27.544C8.78328 28.5664 10.4419 29.1344 12.1539 29.1688C9.24737 31.452 5.65696 32.6903 1.96094 32.6845C1.30548 32.6835 0.650665 32.6433 0 32.5642C3.75476 34.973 8.12255 36.2524 12.5836 36.2501Z" fill="#1C172E"/>
</g>
<defs>
<clipPath id="clip0_273_266">
<rect width="40" height="40" fill="white"/>
</clipPath>
</defs>
</svg>
